<?xml version="1.0" encoding="UTF-8"?>
<!DOCTYPE svg PUBLIC "-//W3C//DTD SVG 1.1//EN" "http://www.w3.org/Graphics/SVG/1.1/DTD/svg11.dtd">
<!-- Creator: CorelDRAW 2021 (64 Bit) -->
<svg xmlns="http://www.w3.org/2000/svg" xml:space="preserve" width="215mm" height="70mm" version="1.1" style="shape-rendering:geometricPrecision; text-rendering:geometricPrecision; image-rendering:optimizeQuality; fill-rule:evenodd; clip-rule:evenodd"
viewBox="0 0 21500 7000"
 xmlns:xlink="http://www.w3.org/1999/xlink"
 xmlns:xodm="http://www.corel.com/coreldraw/odm/2003">
 <defs>
  <style type="text/css">
   <![CDATA[
    .fil3 {fill:#6F2F67}
    .fil1 {fill:#6F2F67;fill-rule:nonzero}
    .fil0 {fill:#05A983;fill-rule:nonzero}
    .fil2 {fill:#05A983;fill-rule:nonzero}
   ]]>
  </style>
 </defs>
 <g id="Camada_x0020_1">
  <metadata id="CorelCorpID_0Corel-Layer"/>
  <g id="_2152692670112">
   <g>
    <path class="fil0" d="M8972.14 2166.06c-243.19,0 -439.46,110.59 -577.37,300.26 -9.36,12.89 -25.28,18.05 -40.42,13.12 -15.14,-4.92 -24.97,-18.45 -24.97,-34.38l0 -160.2c0,-19.91 -16.24,-36.16 -36.15,-36.16l-267.44 0c-19.91,0 -36.15,16.25 -36.15,36.16l0 2246.22c0,19.91 16.24,36.15 36.15,36.15l276.62 0c19.91,0 36.15,-16.24 36.15,-36.15l0 -1263.15c0,-463.7 238.74,-789.67 601.44,-789.67 79.48,0 189.91,13.76 295.56,53.17 11.45,4.28 23.22,2.8 33.25,-4.17 10.04,-6.97 15.54,-17.48 15.54,-29.7l0 -242.22c0,-15.5 -9.25,-28.7 -23.82,-33.99 -98.22,-35.65 -199.2,-55.29 -288.39,-55.29z"/>
    <path class="fil0" d="M10444.79 4342.27c-405.68,0 -728.92,-261.68 -836.67,-658.35 -42.7,-157.19 -40.47,-426.9 2.77,-583.86 102.56,-372.2 416.37,-621.8 824.72,-621.8 444.02,0 776.39,283.41 855.9,700.73 2.09,10.97 -0.57,21.25 -7.69,29.85 -7.13,8.6 -16.75,13.1 -27.93,13.07l-1373.44 -3.75c-19.2,-0.06 -35.04,14.84 -36.19,34l-13.76 230.6c-0.62,10.3 2.67,19.39 9.74,26.91 7.07,7.52 15.94,11.36 26.27,11.39l1759.26 3.91c19.23,0.04 35.1,-14.94 36.18,-34.13 2.09,-37.22 2.09,-71.74 2.09,-103.53 0,-711.63 -509.62,-1230.44 -1216.66,-1230.44 -716.21,0 -1230.43,518.81 -1230.43,1225.85 0,739.17 523.4,1276.33 1248.8,1276.33 467.15,0 912.74,-262.99 1073.57,-630.2 4.15,-9.48 4.19,-19.18 0.14,-28.68 -4.06,-9.51 -11.08,-16.19 -20.79,-19.76l-246.03 -90.46c-17.28,-6.35 -36.33,1.13 -44.69,17.54 -126,247.5 -449.2,434.78 -785.16,434.78z"/>
    <path class="fil0" d="M12956.44 1152.2c-98.64,-31.79 -205.41,-51.29 -323.86,-51.29 -358.11,0 -601.44,261.7 -606.03,665.72l0 445.92c0,19.91 -16.24,36.15 -36.15,36.15l-304.17 0c-19.91,0 -36.15,16.25 -36.15,36.16l0 216.93c0,19.91 16.24,36.15 36.15,36.15l304.17 0c19.91,0 36.15,16.24 36.15,36.15l0 1956.99c0,19.91 16.24,36.15 36.15,36.15l281.21 0c19.92,0 36.16,-16.24 36.16,-36.15l0 -1956.99c0,-19.91 16.24,-36.15 36.15,-36.15l519.96 0c19.91,0 36.15,-16.24 36.15,-36.15l0 -216.93c0,-19.91 -16.24,-36.16 -36.15,-36.16l-519.96 0c-19.91,0 -36.15,-16.24 -36.15,-36.15l0 -409.19c0,-238.74 137.73,-381.07 339.75,-381.07 78.25,0 150.47,12.1 216.62,28.93 11.18,2.85 22,0.59 31.1,-6.49 9.11,-7.08 13.97,-17.01 13.97,-28.54l0 -229.58c0,-15.97 -9.87,-29.51 -25.07,-34.41z"/>
    <path class="fil0" d="M14155.16 4659.05c282.19,0 560.85,-123.89 730.29,-328.16 9.91,-11.95 25.49,-16.21 40.1,-10.93 14.6,5.27 23.87,18.49 23.87,34l0 177.12c0,19.91 16.24,36.15 36.15,36.15l276.63 0c19.91,0 36.16,-16.24 36.16,-36.15l0 -2246.22c0,-19.91 -16.25,-36.16 -36.16,-36.16l-276.63 0c-19.91,0 -36.15,16.25 -36.15,36.16l0 1322.82c0,422.39 -348.93,734.59 -752.95,734.59 -413.2,0 -647.34,-298.43 -647.34,-707.04l0 -1350.37c0,-19.91 -16.25,-36.16 -36.16,-36.16l-276.63 0c-19.91,0 -36.15,16.25 -36.15,36.16l0 1350.37c0,592.26 362.71,1023.82 954.97,1023.82z"/>
    <path class="fil0" d="M15648.67 4948.49c142.6,453.07 605.31,766.53 1150.74,766.53 688.67,0 1189.11,-440.75 1189.11,-1184.52l0 -2245.64c0,-19.91 -16.25,-36.16 -36.16,-36.16l-276.62 0c-19.91,0 -36.15,16.25 -36.15,36.16l0 241.31c0,15.52 -9.26,28.73 -23.86,34 -14.63,5.3 -30.23,0.99 -40.14,-11.02 -647.97,-784.59 -2047.93,-333.85 -2047.93,861.11 0,1055.67 1137.69,1592.67 1868.39,964.24 8.29,-7.12 12.56,-16.52 12.56,-27.45l0 -264.7c0,-15.07 -8.7,-27.94 -22.69,-33.56 -14.02,-5.62 -29.21,-2.28 -39.63,8.65 -508.52,533.91 -1469.71,218.19 -1469.71,-647.18 0,-1246.92 1793.11,-1227.42 1772.19,0l-22.03 1292.72c-14.34,842.17 -1370.6,944.46 -1643.58,157.29 -6.13,-17.7 -24.6,-27.78 -42.77,-23.3l-265.88 65.56c-10.06,2.48 -17.79,8.36 -22.86,17.39 -5.07,9.03 -6.09,18.69 -2.98,28.57z"/>
    <path class="fil0" d="M18684.13 4531.08l0 -2246.22c0,-19.91 -16.25,-36.16 -36.16,-36.16l-276.62 0c-19.91,0 -36.15,16.25 -36.15,36.16l0 2246.22c0,19.91 16.24,36.15 36.15,36.15l276.62 0c19.91,0 36.16,-16.24 36.16,-36.15z"/>
    <path class="fil0" d="M18684.13 1791.87l0 239.22c0,19.91 -16.25,36.15 -36.16,36.15l-276.62 0c-19.91,0 -36.15,-16.24 -36.15,-36.15l0 -239.22c0,-19.91 16.24,-36.15 36.15,-36.15l276.62 0c19.91,0 36.16,16.24 36.16,36.15z"/>
    <path class="fil0" d="M21449.72 3410.26c0,-734.58 -514.21,-1253.39 -1239.61,-1253.39 -725.4,0 -1235.02,518.81 -1235.02,1253.39 0,729.99 509.62,1248.79 1235.02,1248.79 725.4,0 1239.61,-518.8 1239.61,-1248.79zm-353.52 0c0,537.17 -371.88,932.01 -886.09,932.01 -514.21,0 -886.1,-394.84 -886.1,-932.01 0,-541.75 371.89,-932 886.1,-932 514.21,0 886.09,390.25 886.09,932z"/>
    <path class="fil0" d="M14738.7 1500.05l169.14 169.15c14.07,14.07 14.07,37.06 0,51.13l-336.34 336.34c-14.07,14.07 -37.05,14.08 -51.13,0l-169.14 -169.15c-14.09,-14.08 -14.09,-37.05 -0.01,-51.13l336.34 -336.34c14.07,-14.07 37.07,-14.06 51.14,0z"/>
   </g>
   <path class="fil1" d="M10369.43 5415.92c-25.78,-38.41 -66.73,-60.69 -120.56,-60.69 -94.39,0.68 -160.78,59.91 -173.62,151.17l74.55 0c12.14,-47.13 50.83,-76.66 104.37,-76.66 53.54,0 92.77,29.53 105.94,76.66l82.11 0 0 -135.81c0,-4.61 -3.03,-7.68 -6.83,-7.68l-47 0c-4.55,0 -6.83,3.07 -8.34,6.92l-10.62 46.09zm-295.1 149.58c10.25,95.61 77.65,159.17 174.54,158.47 53.83,0 94.78,-22.28 120.56,-60.69l9.86 46.09c1.51,3.84 3.79,6.92 8.34,6.92l47.01 0c4.55,0 7.58,-3.08 7.58,-7.69l0 -143.1 -80.25 0c-10.95,52.02 -51.45,84.72 -107.8,84.72 -55.53,0 -95.85,-33.64 -105.94,-84.72l-73.9 0zm758.8 73.2l-40.93 -38.41c-1.52,-1.55 -3.79,-1.55 -5.31,-1.55 -3.04,0 -5.31,0.78 -7.58,3.85 -17.44,25.35 -47.77,47.63 -94.02,47.63 -56.27,0 -96.15,-33.18 -106.04,-84.72l-73.77 0c9.02,81.78 61.08,140.07 138.1,155.39l-22.75 53.01c-1.5,3.84 0,6.92 4.56,6.92l34.88 0c21.99,0 40.18,4.6 40.18,22.28 0,15.36 -13.64,25.34 -33.35,25.34 -17.45,0 -40.19,-7.68 -51.57,-14.6 -1.51,-0.76 -2.28,-0.76 -3.79,-0.76 -2.28,0 -3.79,0.76 -5.31,2.31l-15.16 23.81c-2.27,2.31 -2.27,6.15 1.52,8.45 18.95,15.36 50.03,26.88 78.85,26.88 46.25,0 83.4,-25.34 83.4,-69.13 0,-40.71 -27.29,-57.62 -64.44,-62.23l7.58 -18.44c60.65,-3.84 107.66,-30.72 136.48,-75.27 2.26,-3.08 1.51,-7.69 -1.53,-10.76zm-252.23 -132.3c12.14,-47.13 50.85,-76.66 104.39,-76.66 41.7,0 74.31,18.44 94.77,49.17 2.28,3.07 4.56,4.6 6.83,4.6 2.28,0 3.79,-0.76 5.31,-2.29l44.72 -36.88c3.04,-3.08 3.79,-7.69 0.78,-10.76 -34.89,-53.78 -90.24,-79.12 -153.18,-79.12 -81.69,0.7 -163.39,51.15 -178.1,151.94l74.48 0zm591.6 -90.48c-25.78,-38.41 -66.73,-60.69 -120.55,-60.69 -94.4,0.68 -160.79,59.91 -173.63,151.17l74.55 0c12.14,-47.13 50.85,-76.66 104.37,-76.66 53.56,0 92.77,29.53 105.94,76.66l82.11 0 0 -135.81c0,-4.61 -3.04,-7.68 -6.83,-7.68l-47.01 0c-4.54,0 -6.81,3.07 -8.33,6.92l-10.62 46.09zm-295.1 149.58c10.25,95.61 77.65,159.17 174.55,158.47 53.82,0 94.77,-22.28 120.55,-60.69l9.85 46.09c1.52,3.84 3.79,6.92 8.35,6.92l47.01 0c4.54,0 7.58,-3.08 7.58,-7.69l0 -143.1 -80.25 0c-10.94,52.02 -51.43,84.72 -107.8,84.72 -55.52,0 -95.84,-33.64 -105.94,-84.72l-73.9 0zm528.32 -196.44c0,-4.62 -2.28,-7.68 -6.82,-7.68l-59.9 0c-5.31,0 -7.59,3.06 -7.59,7.68l0 137.34 74.62 0 -0.31 -137.34zm-74.31 196.44l0 143.1c0,4.61 3.03,7.69 7.59,7.69l59.9 0c5.29,0 7.58,-3.08 7.58,-7.69l-0.32 -143.1 -74.75 0zm87.95 -387.73c-1.51,-2.31 -3.79,-3.07 -6.05,-3.07 -1.54,0 -3.79,0.76 -5.33,2.31l-109.18 106.77c-3.02,3.07 -3.02,6.91 -0.75,9.99l20.47 25.36c1.51,1.53 3.03,3.06 5.31,3.06 1.51,0 3.79,-0.77 5.3,-2.3l125.11 -86.81c3.79,-2.3 3.79,-6.92 1.52,-9.98l-36.4 -45.33z"/>
   <path class="fil2" d="M12223.59 5354.46c-94.4,0 -160.81,60.4 -173.64,151.94l75.3 0c12.1,-47.35 50.7,-77.43 103.64,-77.43 54.92,0 95.45,29.67 108.08,77.43l78.76 0 -0.3 -135.81c0,-4.61 -3.04,-7.68 -7.58,-7.68l-40.96 0c-3.79,0.76 -6.82,2.31 -8.33,7.68l-12.14 46.86c-25.77,-39.18 -67.47,-62.99 -122.83,-62.99zm-174.56 211.04c10.2,96.08 77.62,158.53 174.56,159.23 52.32,0 92.5,-21.5 118.28,-57.61l0 43.79c-0.75,70.67 -41.7,112.93 -115.24,113.69 -43.98,-2.3 -79.62,-14.6 -103.88,-29.96 -1.52,-0.77 -2.28,-0.77 -3.8,-0.77 -2.27,0 -4.55,1.55 -6.06,3.84l-25.78 52.25c-2.29,4.6 -1.51,9.21 3.04,11.52 31.83,19.21 80.37,36.87 139.5,37.64 109.95,-0.77 186.53,-73.75 186.53,-187.44l-0.32 -146.18 -77.29 0c-10.53,51.36 -52.77,83.96 -109.68,83.96 -55.6,0 -95.39,-32.6 -105.27,-83.96l-74.59 0zm429.75 0c10.87,95.18 80.3,158.47 179.7,158.47 100.1,0 169.6,-63.29 180.47,-158.47l-74.58 0c-10.13,51.11 -49.9,83.96 -105.89,83.96 -55.34,0 -95.01,-32.85 -105.13,-83.96l-74.57 0zm359.44 -59.1c-12.97,-91.97 -81.67,-152.7 -179.74,-152.7 -97.38,0 -165.99,60.73 -178.96,152.7l75.12 0c11.88,-47.8 50.61,-78.19 103.84,-78.19 53.85,0 92.71,30.39 104.61,78.19l75.13 0zm42.85 59.1c10.87,95.18 80.3,158.47 179.7,158.47 100.1,0 169.59,-63.29 180.46,-158.47l-74.56 0c-10.13,51.11 -49.9,83.96 -105.9,83.96 -55.34,0 -95.02,-32.85 -105.14,-83.96l-74.56 0zm359.43 -59.1c-12.97,-91.97 -81.66,-152.7 -179.73,-152.7 -97.38,0 -165.99,60.73 -178.96,152.7l75.11 0c11.88,-47.8 50.62,-78.19 103.85,-78.19 53.86,0 92.72,30.39 104.62,78.19l75.11 0zm217.26 217.57c53.83,0 95.54,-22.28 121.32,-61.46l11.37 46.86c0.76,3.84 3.79,6.92 8.34,6.92l41.7 0c4.54,0 7.58,-2.31 7.58,-7.69l0 -143.1 -76.8 0c-10.41,52.02 -52.51,84.72 -108.21,84.72 -55.53,0 -95.29,-33.64 -105.23,-84.72l-74.62 0c10.26,95.5 77.66,158.47 174.55,158.47zm190.31 -217.57l0 -337.85c0,-4.61 -3.04,-6.91 -7.58,-6.91l-59.14 0c-3.79,0 -7.58,2.3 -7.58,6.91l0 242.76c-25.03,-35.35 -64.44,-56.08 -116.01,-56.08 -94.4,0 -160.8,59.78 -173.64,151.17l75.3 0c12.1,-47.35 50.7,-77.43 103.64,-77.43 53.57,0 93.83,30.08 106.5,77.43l78.51 0zm365.15 -75.12l81.88 0c4.54,0 7.58,-3.07 7.58,-7.68l0 -53.01c0,-4.61 -3.04,-7.68 -7.58,-7.68l-81.88 0 -0.77 -66.83c0.77,-49.93 18.21,-69.14 43.99,-69.14 18.95,0 34.87,9.21 44.74,15.37 1.5,0.76 3.03,1.53 4.54,1.53 2.28,0 4.54,-1.53 6.07,-3.84l23.5 -48.41c2.27,-3.84 1.51,-8.44 -1.52,-10.74 -10.6,-8.46 -43.21,-27.67 -85.68,-27.67 -66.73,0 -109.93,42.25 -109.93,135.98l0.75 73.75 -51.57 0c-4.54,0 -7.58,3.07 -7.58,7.68l0 53.01c0,4.61 3.04,7.68 7.58,7.68l51.57 0 0 75.12 74.31 0 0 -75.12zm-74.31 134.22l0 143.1c0,4.61 3.04,7.69 7.58,7.69l59.15 0c4.54,0 7.58,-3.08 7.58,-7.69l0 -143.1 -74.31 0zm198.32 0c10.87,95.18 80.3,158.47 179.7,158.47 100.1,0 169.59,-63.29 180.46,-158.47l-74.56 0c-10.13,51.11 -49.9,83.96 -105.9,83.96 -55.34,0 -95.02,-32.85 -105.14,-83.96l-74.56 0zm359.43 -59.1c-12.97,-91.97 -81.66,-152.7 -179.73,-152.7 -97.38,0 -165.99,60.73 -178.96,152.7l75.11 0c11.88,-47.8 50.62,-78.19 103.85,-78.19 53.86,0 92.72,30.39 104.62,78.19l75.11 0zm42.86 59.1c10.87,95.18 80.3,158.47 179.7,158.47 100.1,0 169.59,-63.29 180.46,-158.47l-74.56 0c-10.13,51.11 -49.9,83.96 -105.9,83.96 -55.33,0 -95.01,-32.85 -105.13,-83.96l-74.57 0zm359.43 -59.1c-12.97,-91.97 -81.66,-152.7 -179.73,-152.7 -97.38,0 -166,60.73 -178.97,152.7l75.13 0c11.88,-47.8 50.62,-78.19 103.84,-78.19 53.86,0 92.71,30.39 104.61,78.19l75.12 0zm217.27 217.57c53.82,0 95.52,-22.28 121.3,-61.46l11.38 46.86c0.76,3.84 3.8,6.92 8.34,6.92l41.7 0c4.55,0 7.58,-2.31 7.58,-7.69l0 -143.1 -76.79 0c-10.41,52.02 -52.52,84.72 -108.22,84.72 -55.52,0 -95.29,-33.64 -105.23,-84.72l-74.61 0c10.26,95.5 77.65,158.47 174.55,158.47zm190.3 -217.57l0 -337.85c0,-4.61 -3.03,-6.91 -7.58,-6.91l-59.13 0c-3.79,0 -7.58,2.3 -7.58,6.91l0 242.76c-25.03,-35.35 -64.45,-56.08 -116.01,-56.08 -94.41,0 -160.8,59.78 -173.64,151.17l75.29 0c12.1,-47.35 50.71,-77.43 103.64,-77.43 53.58,0 93.84,30.08 106.51,77.43l78.5 0z"/>
   <path class="fil3" d="M11724.88 5474.9c33.27,0 60.25,27.34 60.25,61.04 0,33.72 -26.98,61.05 -60.25,61.05 -33.27,0 -60.25,-27.33 -60.25,-61.05 0,-33.7 26.98,-61.04 60.25,-61.04z"/>
   <g>
    <path class="fil1" d="M3896.27 226.24l1267.21 1267.21c16.13,16.12 17.14,41.8 2.31,59.15 -28.55,33.38 -54.84,69.63 -78.78,108.58 -6.42,10.44 -15.77,17.09 -27.74,19.74 -11.99,2.64 -23.26,0.52 -33.48,-6.26 -51.51,-34.21 -106.84,-60.94 -164.86,-80.34 -6.29,-2.11 -11.28,-5.1 -16.1,-9.66l-1097.45 -1036.81c-70.35,-66.44 -163.21,-99.69 -256.13,-99.69 -92.92,0 -185.79,33.25 -256.13,99.69l-596.2 563.25c-9.57,9.05 -21.41,13.06 -34.51,11.67 -36.14,-3.82 -72.4,-5.89 -108.65,-5.89 -72.17,0 -142.89,8.31 -210.87,25.08 -19.28,4.75 -38.64,-3.61 -48.39,-20.91 -9.76,-17.28 -6.9,-38.18 7.14,-52.22l842.59 -842.59c111.47,-111.47 258.29,-167.2 405.02,-167.2 146.72,0 293.55,55.73 405.02,167.2zm2189.12 2189.13l679.62 679.61c111.47,111.47 167.2,258.3 167.2,405.02 0,146.72 -55.73,293.55 -167.2,405.02l-2868.74 2868.74c-111.47,111.47 -258.3,167.19 -405.02,167.19 -146.73,0 -293.55,-55.72 -405.02,-167.19l-2868.74 -2868.74c-111.47,-111.47 -167.21,-258.3 -167.21,-405.02 0,-146.72 55.74,-293.55 167.21,-405.02l1051.37 -1051.37c9.48,-9.49 21.48,-13.83 34.85,-12.58 24.02,2.24 48.13,5.17 72.07,8.89 14.73,2.3 26.37,10.98 32.73,24.48 6.35,13.48 5.66,27.97 -1.93,40.8 -61.08,103.03 -115.99,212.02 -165.25,321.7 -2.45,5.46 -5.47,9.72 -9.83,13.83l-865.11 817.3c-70.33,66.44 -105.51,154.19 -105.51,241.97 0,87.78 35.18,175.53 105.51,241.97l2868.73 2710.18c70.34,66.44 163.21,99.67 256.13,99.67 92.92,0 185.78,-33.23 256.13,-99.67l2868.72 -2710.18c70.34,-66.44 105.52,-154.19 105.52,-241.97 0,-87.78 -35.18,-175.53 -105.52,-241.97l-848.31 -801.43c-13.29,-12.56 -17.33,-31.01 -10.49,-47.97 6.86,-16.97 22.56,-27.46 40.86,-27.27 87.14,0.89 175.36,8.91 262.74,21.7 9.68,1.43 17.58,5.39 24.49,12.31z"/>
    <path class="fil1" d="M5366.32 3419.09c-124.74,57.07 -364.91,163.51 -642.08,268.99 -532.47,202.66 -958.81,309.78 -1232.85,309.78 -274.09,0 -700.38,-107.12 -1232.84,-309.78 -282.27,-107.39 -526.12,-215.81 -648.85,-272.06 -4.77,-2.18 -94.97,-38.07 -96.97,-42.65 -56.44,-19.54 -100.09,8.83 -19.45,92.9 1.44,-6.1 153.6,138.95 173.16,158.69 177.58,179.23 445.91,450.14 759.16,675.04 172.99,124.19 341.92,221.22 502.23,288.37 189.79,79.56 373.42,119.92 545.83,119.92 5.86,0 11.64,-0.06 17.5,-0.1 0.12,0 0.22,0 0.34,0 5.82,0.04 11.65,0.1 17.47,0.1 172.39,0 356.08,-40.36 545.87,-119.92 160.25,-67.15 329.2,-164.18 502.23,-288.37 313.18,-224.9 581.52,-495.81 759.1,-675.04 31.73,-32 310.25,-324.31 50.15,-205.87z"/>
    <path class="fil0" d="M1555.7 3296.18c8.19,-205.51 42.02,-414.83 101.37,-622.8 32.29,-112.94 98.98,-273.36 159.64,-409.66 3.66,-8.22 11.59,-13.08 20.57,-12.61 8.99,0.48 16.37,6.14 19.14,14.69 37.07,114.1 67.2,264.94 89.13,448.44 30.53,255.18 34.08,484.16 34.08,486.43 0.16,12.61 7.36,24.12 18.59,29.88 4.91,2.52 10.19,3.78 15.52,3.78 6.91,0 13.73,-2.11 19.56,-6.25 126.6,-88.82 215.12,-197.68 263.22,-323.44 38.44,-100.64 50.92,-211.77 37.18,-330.34 -9.56,-82.77 -30.5,-157.09 -51.97,-216.16 -3.19,-8.76 -0.53,-18.14 6.75,-23.93 7.28,-5.81 17.03,-6.28 24.84,-1.23 269.25,174.38 515.66,577.43 518.52,582.17 7.33,12.11 21.35,18.4 35.27,15.89 13.92,-2.59 24.78,-13.44 27.41,-27.3 53.8,-287.98 14.4,-530.52 -117.12,-720.83 -103.59,-149.93 -245.9,-237.37 -347.02,-284.32 -44.67,-20.77 -85.19,-35.61 -117.75,-45.97 -7.01,-2.23 -12,-7.37 -14.01,-14.44 -2.03,-7.06 -0.51,-14.07 4.25,-19.66 114.89,-134.95 295.99,-217.06 436.68,-263.78 176.51,-58.63 329.88,-75.87 334.57,-76.33 0.12,-0.02 0.21,-0.03 0.33,-0.04 14.88,-1.7 26.87,-12.87 29.69,-27.61 2.76,-14.82 -4.56,-29.76 -17.93,-36.65 -215.2,-110.47 -413.83,-166.49 -590.46,-166.49 -230.01,0 -381.49,95.67 -468.04,175.9 -27.79,25.77 -50.81,51.5 -69.46,75.1 -4.93,6.23 -12.3,9.09 -20.14,7.81 -7.85,-1.29 -13.92,-6.36 -16.6,-13.83 -161.34,-448.88 -482.47,-547.3 -732.95,-547.3 -259.57,0 -477.45,102.85 -486.57,107.22 -13.43,6.42 -21.17,20.82 -19.03,35.57 2.1,14.76 13.57,26.44 28.25,28.84 283.21,46.06 534.44,205.47 695.3,331.06 4.42,3.45 8.8,6.91 13.12,10.34 8.02,6.36 10.39,17.22 5.75,26.34 -4.64,9.11 -14.79,13.59 -24.65,10.87 -64.89,-17.9 -128.98,-26.91 -191.95,-26.91 -183.77,0 -361.12,78.31 -512.92,226.53 -112.59,109.96 -171.44,218.9 -174.86,225.16 -0.08,0.14 -0.13,0.25 -0.2,0.38 -2.54,4.9 -3.81,10.23 -3.84,15.55 -0.03,7.41 2.34,14.79 7.02,20.93 8.09,10.56 21.58,15.47 34.61,12.52 221.55,-50.19 424.01,-75.68 601.77,-75.68 221.6,0 366.91,38.35 459.16,79.56 6.06,2.72 10.18,7.54 11.89,13.98 1.7,6.42 0.54,12.66 -3.38,18.02 -88.61,121.45 -221.57,339.48 -359.1,695.15 -181.97,470.44 -236.67,952.14 -158.22,1393.14 14.27,80.3 32.71,159.29 54.78,236.73 1.1,3.85 2.95,6.89 5.86,9.64l781.8 738.58c7.59,7.18 19,7.83 27.37,1.58 8.37,-6.26 10.97,-17.4 6.23,-26.72 -198.73,-390.26 -367.61,-851.74 -416.72,-1346.54 -13.55,-136.54 -19.67,-273.81 -14.33,-410.96z"/>
    <path class="fil0" d="M5423.94 3836.98c-44,437.05 -194.88,844.2 -371.24,1187.16 -4.17,8.12 -1.93,17.89 5.38,23.37 7.3,5.48 17.28,4.91 23.92,-1.36l687.33 -649.34c2.51,-2.38 4.11,-5 5.08,-8.32 20.68,-71.08 37.81,-143.65 50.95,-217.5 68.49,-384.99 20.73,-805.51 -138.13,-1216.2 -120.06,-310.49 -236.13,-500.83 -313.49,-606.85 -3.42,-4.69 -4.43,-10.14 -2.95,-15.74 1.5,-5.62 5.09,-9.83 10.39,-12.2 80.53,-35.97 207.38,-69.46 400.84,-69.46 155.18,0 331.92,22.26 525.34,66.07 11.37,2.57 23.14,-1.71 30.21,-10.93 4.08,-5.36 6.15,-11.8 6.12,-18.27 -0.02,-4.65 -1.13,-9.3 -3.34,-13.57 -0.07,-0.12 -0.11,-0.22 -0.18,-0.34 -2.98,-5.46 -54.36,-100.56 -152.65,-196.56 -132.52,-129.39 -287.34,-197.76 -447.77,-197.76 -54.98,0 -110.92,7.87 -167.57,23.49 -8.61,2.38 -17.48,-1.53 -21.53,-9.49 -4.05,-7.96 -1.98,-17.44 5.02,-22.99 3.78,-2.99 7.6,-6.01 11.46,-9.02 140.42,-109.64 359.75,-248.8 606.99,-289.02 12.81,-2.09 22.83,-12.29 24.66,-25.17 1.87,-12.88 -4.89,-25.46 -16.61,-31.06 -7.96,-3.81 -198.17,-93.6 -424.77,-93.6 -218.67,0 -499.01,85.92 -639.86,477.79 -2.34,6.52 -7.65,10.95 -14.49,12.07 -6.84,1.12 -13.28,-1.38 -17.58,-6.82 -16.29,-20.6 -36.39,-43.06 -60.64,-65.56 -75.56,-70.04 -207.8,-153.56 -408.6,-153.56 -154.19,0 -327.59,48.91 -515.46,145.35 -11.67,6.01 -18.06,19.05 -15.65,31.99 2.46,12.87 12.93,22.62 25.92,24.11 0.1,0.01 0.18,0.02 0.28,0.03 4.09,0.4 137.99,15.46 292.08,66.64 122.82,40.78 280.92,112.46 381.22,230.27 4.16,4.88 5.48,11 3.71,17.16 -1.76,6.18 -6.12,10.67 -12.23,12.61 -28.43,9.04 -63.8,22 -102.8,40.13 -88.28,40.99 -212.51,117.33 -302.94,248.21 -114.82,166.14 -149.21,377.87 -102.25,629.28 2.3,12.1 11.78,21.57 23.93,23.83 12.15,2.19 24.39,-3.3 30.79,-13.87 2.5,-4.14 217.61,-356 452.66,-508.23 6.82,-4.41 15.33,-4 21.69,1.07 6.36,5.06 8.67,13.25 5.89,20.89 -18.74,51.58 -37.02,116.45 -45.37,188.71 -11.99,103.51 -1.1,200.53 32.46,288.39 41.99,109.78 119.27,204.82 229.79,282.35 5.09,3.62 11.04,5.46 17.08,5.46 4.65,0 9.26,-1.1 13.54,-3.3 9.81,-5.03 16.09,-15.08 16.23,-26.08 0,-1.98 3.1,-201.89 29.75,-424.66 19.15,-160.19 45.45,-291.87 77.81,-391.47 2.42,-7.48 8.87,-12.41 16.71,-12.83 7.84,-0.41 14.77,3.83 17.96,11 52.95,118.99 111.17,259.04 139.36,357.63 44.22,154.96 72.22,310.76 83.92,464.63 11.17,147.04 6.38,294.8 -8.37,441.44z"/>
   </g>
  </g>
 </g>
</svg>
