<?xml version="1.0" encoding="utf-8"?>
<!-- Generator: Adobe Illustrator 24.0.1, SVG Export Plug-In . SVG Version: 6.00 Build 0)  -->
<svg version="1.1" id="Camada_1" xmlns="http://www.w3.org/2000/svg" xmlns:xlink="http://www.w3.org/1999/xlink" x="0px" y="0px"
	 viewBox="0 0 1920 620" style="enable-background:new 0 0 1920 620;" xml:space="preserve">
<style type="text/css">
	.st0{fill:#00A580;}
	.st1{fill:#691460;}
	.st2{fill-rule:evenodd;clip-rule:evenodd;fill:#691460;}
</style>
<g>
	<path class="st0" d="M802.4,191.31c-21.59,0-39.02,9.82-51.26,26.66c-0.84,1.14-2.25,1.61-3.6,1.16c-1.35-0.43-2.22-1.63-2.22-3.05
		v-14.22c0-1.77-1.44-3.2-3.21-3.2h-23.75c-1.77,0-3.2,1.43-3.2,3.2v199.43c0,1.79,1.43,3.22,3.2,3.22h24.57
		c1.77,0,3.21-1.43,3.21-3.22V289.15c0-41.18,21.19-70.12,53.39-70.12c7.07,0,16.87,1.22,26.24,4.72c1.02,0.39,2.06,0.26,2.97-0.35
		c0.88-0.63,1.38-1.55,1.38-2.65v-21.49c0-1.38-0.83-2.55-2.12-3.03C819.28,193.06,810.32,191.31,802.4,191.31"/>
	<path class="st0" d="M933.15,384.53c-36.02,0-64.71-23.24-74.28-58.45c-3.79-13.95-3.6-37.9,0.24-51.85
		c9.11-33.05,36.97-55.21,73.23-55.21c39.42,0,68.94,25.17,76.01,62.22c0.17,0.96-0.06,1.89-0.69,2.65
		c-0.63,0.76-1.49,1.16-2.49,1.16l-121.95-0.33c-1.7,0-3.11,1.32-3.21,3.03l-1.22,20.47c-0.05,0.9,0.24,1.73,0.87,2.38
		c0.63,0.69,1.41,1.02,2.34,1.02l156.2,0.34c1.72,0,3.11-1.32,3.2-3.02c0.19-3.3,0.19-6.37,0.19-9.2
		c0-63.16-45.25-109.23-108.01-109.23c-63.6,0-109.26,46.07-109.26,108.84c0,65.62,46.48,113.32,110.89,113.32
		c41.47,0,81.03-23.36,95.31-55.97c0.36-0.82,0.37-1.69,0.01-2.53c-0.36-0.85-0.99-1.44-1.84-1.75l-21.84-8.03
		c-1.55-0.55-3.24,0.1-3.98,1.57C991.67,367.91,962.97,384.53,933.15,384.53"/>
	<path class="st0" d="M1156.16,101.31c-8.76-2.83-18.24-4.56-28.75-4.56c-31.81,0-53.4,23.23-53.81,59.1v39.59
		c0,1.77-1.45,3.22-3.21,3.22h-27c-1.79,0-3.22,1.43-3.22,3.22v19.23c0,1.79,1.43,3.22,3.22,3.22h27c1.77,0,3.21,1.45,3.21,3.2
		v173.77c0,1.77,1.44,3.2,3.2,3.2h24.97c1.77,0,3.22-1.43,3.22-3.2V227.54c0-1.75,1.43-3.2,3.2-3.2h46.16
		c1.78,0,3.21-1.43,3.21-3.22v-19.23c0-1.79-1.43-3.22-3.21-3.22h-46.16c-1.77,0-3.2-1.45-3.2-3.22v-36.31
		c0-21.22,12.22-33.85,30.15-33.85c6.95,0,13.36,1.08,19.25,2.57c0.98,0.25,1.94,0.06,2.75-0.57c0.8-0.63,1.24-1.51,1.24-2.56
		v-20.37C1158.37,102.94,1157.5,101.74,1156.16,101.31"/>
	<path class="st0" d="M1262.58,412.67c25.06,0,49.81-11,64.84-29.13c0.89-1.06,2.26-1.45,3.56-0.98c1.29,0.47,2.12,1.65,2.12,3.03
		v15.73c0,1.75,1.44,3.2,3.21,3.2h24.56c1.77,0,3.21-1.45,3.21-3.2V201.86c0-1.77-1.44-3.2-3.21-3.2h-24.56
		c-1.77,0-3.21,1.43-3.21,3.2v117.45c0,37.51-30.97,65.23-66.85,65.23c-36.69,0-57.48-26.49-57.48-62.77v-119.9
		c0-1.77-1.45-3.2-3.21-3.2h-24.56c-1.77,0-3.21,1.43-3.21,3.2v119.9C1177.79,374.34,1210,412.67,1262.58,412.67"/>
	<path class="st0" d="M1395.19,438.36c12.66,40.22,53.74,68.06,102.17,68.06c61.15,0,105.58-39.13,105.58-105.16V201.86
		c0-1.77-1.44-3.2-3.21-3.2h-24.55c-1.78,0-3.22,1.43-3.22,3.2v21.43c0,1.37-0.82,2.55-2.11,3.01c-1.3,0.47-2.69,0.1-3.58-0.96
		c-57.53-69.67-181.82-29.65-181.82,76.44c0,93.73,101.01,141.42,165.87,85.62c0.74-0.63,1.12-1.47,1.12-2.44v-23.49
		c0-1.34-0.77-2.5-2.02-2.99c-1.24-0.49-2.59-0.2-3.51,0.77c-45.15,47.41-130.5,19.37-130.5-57.47c0-110.71,159.21-108.98,157.36,0
		l-1.96,114.78c-1.28,74.8-121.69,83.85-145.94,13.97c-0.53-1.57-2.18-2.45-3.79-2.06l-23.59,5.82c-0.92,0.21-1.59,0.74-2.04,1.55
		C1394.99,436.64,1394.91,437.48,1395.19,438.36"/>
	<path class="st0" d="M1664.69,401.31V201.86c0-1.75-1.45-3.2-3.2-3.2h-24.57c-1.77,0-3.21,1.45-3.21,3.2v199.45
		c0,1.77,1.44,3.2,3.21,3.2h24.57C1663.25,404.51,1664.69,403.08,1664.69,401.31"/>
	<path class="st0" d="M1664.69,158.09v21.24c0,1.77-1.45,3.22-3.2,3.22h-24.57c-1.77,0-3.21-1.45-3.21-3.22v-21.24
		c0-1.77,1.44-3.2,3.21-3.2h24.57C1663.25,154.88,1664.69,156.32,1664.69,158.09"/>
	<path class="st0" d="M1878.86,301.78c0,47.7-33.03,82.75-78.67,82.75c-45.66,0-78.69-35.05-78.69-82.75
		c0-48.1,33.03-82.75,78.69-82.75C1845.84,219.03,1878.86,253.69,1878.86,301.78 M1910.25,301.78
		c0-65.21-45.66-111.28-110.06-111.28c-64.42,0-109.67,46.07-109.67,111.28c0,64.81,45.26,110.88,109.67,110.88
		C1864.59,412.67,1910.25,366.59,1910.25,301.78"/>
	<path class="st0" d="M1314.4,132.19l15.01,15.01c1.24,1.24,1.24,3.28,0,4.54l-29.87,29.86c-1.25,1.24-3.29,1.24-4.54,0L1280,166.59
		c-1.25-1.26-1.25-3.3,0-4.54l29.86-29.86C1311.1,130.93,1313.14,130.93,1314.4,132.19"/>
	<path class="st1" d="M1019.68,458.72c-0.14-0.2-0.33-0.28-0.54-0.28c-0.14,0-0.33,0.08-0.47,0.22l-9.69,9.47
		c-0.28,0.27-0.28,0.61-0.07,0.88l1.82,2.26c0.15,0.14,0.28,0.28,0.48,0.28c0.14,0,0.34-0.06,0.47-0.19l11.11-7.72
		c0.33-0.2,0.33-0.61,0.13-0.88L1019.68,458.72z M1018.47,475.71c0-0.41-0.2-0.69-0.61-0.69h-5.31c-0.48,0-0.67,0.27-0.67,0.69
		v30.14c0,0.41,0.28,0.67,0.67,0.67h5.31c0.47,0,0.67-0.25,0.67-0.67L1018.47,475.71z M977.9,490.84c0-5.85,3.84-9.75,9.62-9.75
		c5.79,0,9.7,3.89,9.82,9.75c-0.13,5.93-4.04,9.82-9.82,9.82C981.8,500.66,977.9,496.63,977.9,490.84 M997.76,479.86
		c-2.28-3.4-5.91-5.38-10.7-5.38c-9.36,0.06-15.61,6.62-15.61,16.37c0,9.76,6.24,16.44,15.61,16.36c4.78,0,8.41-1.98,10.7-5.38
		l0.87,4.09c0.15,0.35,0.33,0.61,0.74,0.61h4.18c0.4,0,0.67-0.25,0.67-0.67v-30.02c0-0.39-0.27-0.67-0.61-0.67h-4.17
		c-0.41,0-0.6,0.28-0.73,0.61L997.76,479.86z M967.62,499.64l-3.63-3.42c-0.13-0.12-0.33-0.12-0.46-0.12
		c-0.27,0-0.48,0.06-0.67,0.33c-1.56,2.26-4.25,4.22-8.36,4.22c-5.79,0-9.63-3.95-9.63-9.82c0-5.85,3.83-9.75,9.63-9.75
		c3.71,0,6.61,1.63,8.42,4.36c0.2,0.27,0.4,0.41,0.6,0.41c0.2,0,0.33-0.08,0.46-0.19l3.97-3.28c0.28-0.27,0.34-0.69,0.07-0.96
		c-3.1-4.78-8.02-7.01-13.6-7.01c-8,0.06-16.02,5.52-16.02,16.42c0,8.47,4.86,14.6,12.39,16.09l-2.02,4.72
		c-0.14,0.34,0,0.61,0.4,0.61h3.1c1.94,0,3.56,0.41,3.56,1.98c0,1.38-1.2,2.24-2.97,2.24c-1.54,0-3.56-0.67-4.56-1.28
		c-0.14-0.08-0.21-0.08-0.33-0.08c-0.21,0-0.36,0.08-0.47,0.2l-1.36,2.12c-0.2,0.22-0.2,0.55,0.14,0.75c1.69,1.37,4.44,2.4,6.99,2.4
		c4.11,0,7.41-2.24,7.41-6.15c0-3.6-2.43-5.11-5.73-5.52l0.68-1.63c5.39-0.36,9.56-2.73,12.12-6.68
		C967.96,500.33,967.9,499.92,967.62,499.64 M906.6,490.84c0-5.85,3.84-9.75,9.62-9.75c5.79,0,9.7,3.89,9.84,9.75
		c-0.14,5.93-4.05,9.82-9.84,9.82C910.51,500.66,906.6,496.63,906.6,490.84 M926.45,479.86c-2.28-3.4-5.92-5.38-10.69-5.38
		c-9.37,0.06-15.62,6.62-15.62,16.37c0,9.76,6.25,16.44,15.62,16.36c4.77,0,8.41-1.98,10.69-5.38l0.88,4.09
		c0.13,0.35,0.33,0.61,0.75,0.61h4.18c0.4,0,0.68-0.25,0.68-0.67v-30.02c0-0.39-0.28-0.67-0.62-0.67h-4.17
		c-0.4,0-0.6,0.28-0.73,0.61L926.45,479.86z"/>
	<path class="st0" d="M1358.22,490.84c0,5.93-4.11,9.82-9.83,9.82c-5.73,0-9.57-4.03-9.57-9.82c0-5.85,3.84-9.82,9.57-9.82
		C1354.17,481.02,1358.22,484.99,1358.22,490.84 M1347.91,507.22c4.77,0,8.48-1.98,10.78-5.46l1,4.17c0.07,0.34,0.33,0.61,0.75,0.61
		h3.7c0.4,0,0.66-0.22,0.66-0.69V457.9c0-0.39-0.26-0.61-0.66-0.61h-5.25c-0.35,0-0.68,0.22-0.68,0.61v21.55
		c-2.23-3.12-5.73-4.97-10.3-4.97c-9.35,0-15.62,6.62-15.62,16.37C1332.3,500.61,1338.56,507.22,1347.91,507.22 M1303.11,490.76
		c0-5.85,3.83-9.8,9.54-9.8c5.8,0,9.64,3.95,9.64,9.8c0,5.87-3.84,9.85-9.64,9.85C1306.94,500.61,1303.11,496.63,1303.11,490.76
		 M1296.57,490.76c0,9.77,6.47,16.47,16.09,16.47c9.71,0,16.16-6.7,16.16-16.47c0-9.74-6.45-16.42-16.16-16.42
		C1303.04,474.34,1296.57,481.02,1296.57,490.76 M1267.38,490.76c0-5.85,3.85-9.8,9.57-9.8c5.79,0,9.63,3.95,9.63,9.8
		c0,5.87-3.84,9.85-9.63,9.85C1271.23,500.61,1267.38,496.63,1267.38,490.76 M1260.85,490.76c0,9.77,6.47,16.47,16.1,16.47
		c9.69,0,16.15-6.7,16.15-16.47c0-9.74-6.47-16.42-16.15-16.42C1267.33,474.34,1260.85,481.02,1260.85,490.76 M1249.98,481.23h7.28
		c0.4,0,0.66-0.28,0.66-0.69v-4.69c0-0.41-0.26-0.69-0.66-0.69h-7.28l-0.07-5.93c0.07-4.44,1.62-6.15,3.91-6.15
		c1.68,0,3.1,0.82,3.97,1.37c0.13,0.06,0.27,0.14,0.4,0.14c0.22,0,0.42-0.14,0.55-0.35l2.09-4.28c0.21-0.36,0.13-0.77-0.14-0.96
		c-0.94-0.75-3.83-2.45-7.61-2.45c-5.92,0-9.77,3.75-9.77,12.06l0.08,6.56h-4.58c-0.4,0-0.68,0.28-0.68,0.69v4.69
		c0,0.41,0.27,0.69,0.68,0.69h4.58v24.62c0,0.41,0.26,0.69,0.66,0.69h5.26c0.4,0,0.67-0.27,0.67-0.69V481.23z M1210.96,490.84
		c0,5.93-4.11,9.82-9.82,9.82c-5.73,0-9.56-4.03-9.56-9.82c0-5.85,3.83-9.82,9.56-9.82
		C1206.93,481.02,1210.96,484.99,1210.96,490.84 M1200.66,507.22c4.78,0,8.49-1.98,10.77-5.46l1.01,4.17
		c0.07,0.34,0.34,0.61,0.74,0.61h3.7c0.4,0,0.68-0.22,0.68-0.69V457.9c0-0.39-0.28-0.61-0.68-0.61h-5.24
		c-0.34,0-0.68,0.22-0.68,0.61v21.55c-2.22-3.12-5.72-4.97-10.3-4.97c-9.36,0-15.62,6.62-15.62,16.37
		C1185.04,500.61,1191.3,507.22,1200.66,507.22 M1155.85,490.76c0-5.85,3.84-9.8,9.57-9.8c5.79,0,9.62,3.95,9.62,9.8
		c0,5.87-3.83,9.85-9.62,9.85C1159.69,500.61,1155.85,496.63,1155.85,490.76 M1149.33,490.76c0,9.77,6.46,16.47,16.09,16.47
		c9.69,0,16.15-6.7,16.15-16.47c0-9.74-6.46-16.42-16.15-16.42C1155.79,474.34,1149.33,481.02,1149.33,490.76 M1120.13,490.76
		c0-5.85,3.85-9.8,9.57-9.8c5.79,0,9.62,3.95,9.62,9.8c0,5.87-3.83,9.85-9.62,9.85C1123.98,500.61,1120.13,496.63,1120.13,490.76
		 M1113.61,490.76c0,9.77,6.46,16.47,16.09,16.47c9.69,0,16.17-6.7,16.17-16.47c0-9.74-6.48-16.42-16.17-16.42
		C1120.06,474.34,1113.61,481.02,1113.61,490.76 M1081.99,490.84c0-5.85,3.85-9.82,9.56-9.82c5.92,0,9.98,3.89,9.98,9.82
		c0,5.87-4.11,9.76-9.98,9.76C1085.84,500.61,1081.99,496.71,1081.99,490.84 M1091.09,474.4c-9.36,0-15.62,6.7-15.62,16.44
		c0,9.82,6.26,16.38,15.62,16.44c4.64,0,8.2-1.91,10.5-5.11v3.87c-0.07,6.29-3.71,10.04-10.24,10.1c-3.91-0.2-7.07-1.3-9.21-2.65
		c-0.15-0.08-0.21-0.08-0.34-0.08c-0.2,0-0.4,0.16-0.54,0.35l-2.29,4.64c-0.2,0.41-0.13,0.81,0.27,1.02
		c2.83,1.71,7.13,3.28,12.38,3.34c9.77-0.06,16.57-6.54,16.57-16.64l-0.07-30.27c0-0.41-0.26-0.69-0.68-0.69h-3.63
		c-0.34,0.06-0.61,0.2-0.75,0.69l-1.08,4.14C1099.7,476.52,1096,474.4,1091.09,474.4"/>
	<path class="st2" d="M1046.8,485.1c2.95,0,5.35,2.42,5.35,5.42c0,2.99-2.4,5.42-5.35,5.42c-2.95,0-5.36-2.44-5.36-5.42
		C1041.45,487.52,1043.85,485.1,1046.8,485.1"/>
	<path class="st1" d="M546.1,213.45l60.33,60.33c9.89,9.9,14.85,22.95,14.85,35.97c0,13.03-4.95,26.05-14.85,35.95l-254.71,254.7
		c-9.89,9.9-22.93,14.85-35.95,14.85c-13.02,0-26.07-4.95-35.96-14.85L25.1,345.71c-9.9-9.9-14.85-22.93-14.85-35.95
		c0-13.03,4.95-26.07,14.85-35.97l93.34-93.34c0.85-0.85,1.92-1.24,3.1-1.12c2.14,0.2,4.28,0.47,6.4,0.79
		c1.31,0.21,2.34,0.98,2.91,2.18c0.56,1.2,0.49,2.47-0.18,3.61c-5.43,9.16-10.31,18.84-14.68,28.57c-0.22,0.49-0.48,0.86-0.87,1.22
		l-76.81,72.57c-6.25,5.89-9.37,13.69-9.37,21.49c0,7.78,3.12,15.58,9.37,21.47l254.69,240.63c6.25,5.89,14.5,8.84,22.75,8.84
		c8.25,0,16.5-2.95,22.74-8.84l254.71-240.63c6.25-5.89,9.37-13.69,9.37-21.47c0-7.8-3.11-15.6-9.37-21.49l-75.31-71.14
		c-1.19-1.12-1.55-2.77-0.94-4.28c0.61-1.49,2-2.41,3.61-2.41c7.76,0.08,15.58,0.8,23.34,1.93
		C544.78,212.49,545.48,212.84,546.1,213.45 M351.72,19.09L464.23,131.6c1.44,1.43,1.53,3.69,0.22,5.25
		c-2.54,2.96-4.87,6.19-7.01,9.65c-0.56,0.92-1.4,1.51-2.46,1.75c-1.07,0.24-2.07,0.04-2.98-0.55c-4.58-3.04-9.49-5.42-14.63-7.13
		c-0.57-0.2-1.01-0.45-1.44-0.87L338.5,47.64c-6.23-5.9-14.49-8.84-22.74-8.84c-8.25,0-16.5,2.95-22.75,8.84l-52.93,50.02
		c-0.84,0.78-1.89,1.15-3.06,1.04c-3.21-0.36-6.43-0.53-9.65-0.53c-6.4,0-12.68,0.74-18.72,2.22c-1.71,0.43-3.42-0.31-4.29-1.84
		c-0.86-1.53-0.61-3.39,0.64-4.64l74.8-74.8c9.89-9.9,22.94-14.85,35.96-14.85C328.79,4.24,341.82,9.19,351.72,19.09"/>
	<path class="st1" d="M482.25,302.57c-11.08,5.07-32.4,14.52-57.02,23.89c-47.27,18-85.13,27.49-109.45,27.49
		c-24.35,0-62.19-9.49-109.48-27.49c-25.04-9.55-46.7-19.18-57.6-24.17c-0.42-0.2-8.45-3.38-8.61-3.77
		c-5.01-1.75-8.89,0.79-1.73,8.25c0.13-0.57,13.64,12.32,15.38,14.07c15.76,15.91,39.6,39.98,67.4,59.94
		c15.36,11.04,30.37,19.64,44.6,25.62c16.86,7.05,33.14,10.63,48.45,10.63c0.53,0,1.04,0,1.57,0h0.02c0.51,0,1.04,0,1.55,0
		c15.31,0,31.61-3.57,48.47-10.63c14.22-5.97,29.23-14.58,44.58-25.62c27.81-19.96,51.64-44.03,67.4-59.94
		C480.6,318.01,505.33,292.06,482.25,302.57"/>
	<path class="st0" d="M143.92,291.67c0.72-18.26,3.73-36.84,9-55.31c2.87-10.02,8.79-24.26,14.17-36.36
		c0.33-0.75,1.03-1.18,1.82-1.12c0.8,0.04,1.47,0.53,1.72,1.3c3.28,10.14,5.97,23.52,7.91,39.8c2.69,22.67,3.02,43,3.02,43.2
		c0,1.12,0.65,2.14,1.65,2.65c0.43,0.22,0.91,0.33,1.38,0.33c0.61,0,1.22-0.18,1.73-0.55c11.23-7.9,19.1-17.56,23.38-28.72
		c3.41-8.94,4.52-18.8,3.3-29.34c-0.84-7.35-2.71-13.95-4.62-19.19c-0.28-0.77-0.04-1.61,0.6-2.12c0.64-0.51,1.5-0.55,2.2-0.1
		c23.9,15.46,45.79,51.26,46.04,51.69c0.65,1.06,1.91,1.63,3.13,1.4c1.24-0.22,2.21-1.18,2.43-2.42
		c4.78-25.58,1.27-47.09-10.4-63.99c-9.19-13.32-21.83-21.08-30.81-25.27c-3.97-1.83-7.56-3.15-10.46-4.07
		c-0.62-0.2-1.07-0.67-1.25-1.28c-0.18-0.65-0.04-1.26,0.38-1.75c10.21-11.98,26.28-19.27,38.77-23.42
		c15.67-5.2,29.3-6.74,29.71-6.8h0.02c1.33-0.14,2.4-1.14,2.64-2.44c0.26-1.32-0.39-2.65-1.58-3.26
		c-19.11-9.8-36.75-14.77-52.43-14.77c-20.42,0-33.87,8.49-41.55,15.62c-2.46,2.28-4.51,4.56-6.16,6.66
		c-0.45,0.55-1.1,0.8-1.79,0.69c-0.7-0.12-1.24-0.57-1.47-1.22c-14.32-39.86-42.84-48.59-65.08-48.59c-23.05,0-42.38,9.13-43.2,9.52
		c-1.18,0.57-1.88,1.85-1.68,3.16c0.18,1.31,1.2,2.34,2.51,2.56c25.14,4.08,47.45,18.23,61.73,29.39c0.4,0.31,0.78,0.61,1.17,0.93
		c0.71,0.57,0.93,1.53,0.52,2.34c-0.41,0.8-1.32,1.22-2.2,0.96c-5.76-1.59-11.44-2.39-17.04-2.39c-16.32,0-32.06,6.97-45.54,20.11
		c-10,9.77-15.23,19.45-15.52,20c-0.03,0-0.03,0.02-0.03,0.02c-0.22,0.43-0.33,0.9-0.33,1.39c-0.02,0.65,0.19,1.32,0.62,1.85
		c0.72,0.94,1.9,1.38,3.07,1.12c19.67-4.46,37.64-6.72,53.42-6.72c19.68,0,32.58,3.4,40.77,7.06c0.55,0.25,0.91,0.69,1.06,1.23
		c0.15,0.59,0.05,1.14-0.29,1.61c-7.88,10.79-19.68,30.14-31.89,61.71c-16.17,41.77-21.02,84.54-14.05,123.71
		c1.26,7.13,2.91,14.14,4.86,21c0.09,0.35,0.27,0.61,0.52,0.86l69.41,65.58c0.66,0.63,1.69,0.69,2.43,0.14
		c0.75-0.57,0.98-1.55,0.55-2.38c-17.65-34.66-32.64-75.62-37.01-119.55C143.99,316.02,143.44,303.84,143.92,291.67"/>
	<path class="st0" d="M487.36,339.68c-3.91,38.8-17.29,74.95-32.96,105.4c-0.37,0.7-0.17,1.59,0.48,2.06
		c0.65,0.49,1.53,0.43,2.11-0.12l61.03-57.67c0.24-0.19,0.38-0.43,0.45-0.72c1.84-6.31,3.35-12.75,4.52-19.31
		c6.08-34.18,1.85-71.52-12.26-107.98c-10.66-27.56-20.96-44.46-27.82-53.89c-0.31-0.41-0.4-0.89-0.27-1.4
		c0.14-0.49,0.45-0.86,0.93-1.08c7.15-3.18,18.41-6.17,35.6-6.17c13.77,0,29.46,1.98,46.63,5.87c1.02,0.22,2.05-0.16,2.69-0.98
		c0.36-0.47,0.55-1.04,0.55-1.61c0-0.41-0.11-0.82-0.3-1.22c0,0,0-0.02-0.01-0.02c-0.26-0.49-4.83-8.94-13.56-17.45
		c-11.76-11.49-25.5-17.57-39.75-17.57c-4.89,0-9.85,0.71-14.88,2.08c-0.77,0.22-1.56-0.14-1.91-0.84
		c-0.35-0.71-0.18-1.55,0.45-2.04c0.33-0.26,0.66-0.53,1.01-0.79c12.47-9.74,31.94-22.1,53.9-25.68c1.11-0.18,2.02-1.08,2.18-2.24
		c0.16-1.14-0.43-2.24-1.47-2.75c-0.7-0.33-17.61-8.31-37.72-8.31c-19.41,0-44.3,7.62-56.82,42.42c-0.19,0.59-0.67,0.98-1.28,1.08
		c-0.61,0.1-1.18-0.12-1.56-0.61c-1.44-1.83-3.23-3.83-5.38-5.81c-6.71-6.23-18.45-13.63-36.28-13.63
		c-13.68,0-29.09,4.34-45.76,12.91c-1.04,0.53-1.61,1.69-1.4,2.85c0.22,1.12,1.15,1.98,2.3,2.12c0,0,0.02,0,0.02,0.02
		c0.37,0.02,12.26,1.36,25.93,5.91c10.9,3.62,24.95,9.98,33.84,20.45c0.38,0.41,0.51,0.96,0.35,1.51c-0.16,0.55-0.55,0.94-1.09,1.12
		c-2.53,0.81-5.68,1.95-9.14,3.56c-7.84,3.64-18.85,10.42-26.89,22.04c-10.19,14.75-13.25,33.56-9.08,55.88
		c0.2,1.08,1.04,1.9,2.12,2.1c1.08,0.2,2.16-0.27,2.73-1.22c0.23-0.37,19.33-31.61,40.19-45.13c0.59-0.39,1.36-0.35,1.93,0.1
		c0.56,0.46,0.77,1.18,0.52,1.85c-1.66,4.58-3.29,10.35-4.04,16.76c-1.06,9.2-0.09,17.8,2.89,25.6c3.73,9.74,10.58,18.19,20.4,25.07
		c0.45,0.34,0.97,0.49,1.52,0.49c0.41,0,0.82-0.1,1.2-0.3c0.87-0.43,1.43-1.34,1.45-2.32c0-0.18,0.26-17.92,2.64-37.7
		c1.69-14.22,4.03-25.91,6.91-34.76c0.2-0.67,0.77-1.1,1.48-1.14c0.7-0.04,1.31,0.33,1.59,0.98c4.7,10.55,9.87,22.99,12.38,31.75
		c3.92,13.75,6.41,27.6,7.44,41.26C489.1,313.53,488.67,326.65,487.36,339.68"/>
</g>
</svg>
