<?xml version="1.0" encoding="utf-8"?>
<!-- Generator: Adobe Illustrator 24.0.1, SVG Export Plug-In . SVG Version: 6.00 Build 0)  -->
<svg version="1.1" id="Camada_1" xmlns="http://www.w3.org/2000/svg" xmlns:xlink="http://www.w3.org/1999/xlink" x="0px" y="0px"
	 viewBox="0 0 600 540" style="enable-background:new 0 0 600 540;" xml:space="preserve">
<style type="text/css">
	.st0{fill:#00A580;}
	.st1{fill:#691460;}
</style>
<g>
	<g>
		<path class="st0" d="M46.72,365.92c-10.66,0-19.26,4.85-25.31,13.16c-0.42,0.56-1.11,0.79-1.77,0.57
			c-0.67-0.21-1.09-0.81-1.09-1.5v-7.02c0-0.87-0.71-1.58-1.58-1.58H5.24c-0.87,0-1.58,0.71-1.58,1.58v98.46
			c0,0.88,0.71,1.59,1.58,1.59h12.13c0.87,0,1.59-0.71,1.59-1.59v-55.36c0-20.33,10.46-34.62,26.36-34.62
			c3.49,0,8.33,0.6,12.95,2.33c0.5,0.19,1.02,0.13,1.47-0.17c0.44-0.31,0.68-0.77,0.68-1.31v-10.61c0-0.68-0.41-1.26-1.05-1.49
			C55.06,366.79,50.63,365.92,46.72,365.92"/>
		<path class="st0" d="M111.27,461.32c-17.78,0-31.95-11.47-36.67-28.86c-1.87-6.89-1.77-18.71,0.12-25.6
			c4.5-16.32,18.25-27.26,36.15-27.26c19.46,0,34.03,12.43,37.52,30.72c0.09,0.48-0.03,0.93-0.34,1.31
			c-0.31,0.38-0.74,0.57-1.23,0.57l-60.2-0.17c-0.84,0-1.54,0.65-1.58,1.49l-0.6,10.11c-0.03,0.45,0.12,0.85,0.43,1.17
			c0.31,0.34,0.7,0.5,1.15,0.5l77.11,0.17c0.85,0,1.53-0.65,1.58-1.49c0.09-1.63,0.09-3.14,0.09-4.54
			c0-31.18-22.34-53.93-53.32-53.93c-31.4,0-53.94,22.74-53.94,53.73c0,32.4,22.95,55.95,54.74,55.95
			c20.47,0,40.01-11.53,47.06-27.63c0.18-0.41,0.18-0.84,0.01-1.25c-0.18-0.42-0.49-0.71-0.91-0.86l-10.78-3.97
			c-0.76-0.27-1.6,0.05-1.96,0.78C140.17,453.11,126,461.32,111.27,461.32"/>
		<path class="st0" d="M221.37,321.49c-4.33-1.4-9.01-2.25-14.19-2.25c-15.7,0-26.36,11.47-26.57,29.18v19.54
			c0,0.87-0.71,1.59-1.59,1.59h-13.33c-0.88,0-1.59,0.71-1.59,1.59v9.49c0,0.88,0.71,1.59,1.59,1.59h13.33
			c0.87,0,1.59,0.72,1.59,1.58v85.79c0,0.87,0.71,1.58,1.58,1.58h12.33c0.87,0,1.59-0.71,1.59-1.58v-85.79
			c0-0.86,0.71-1.58,1.58-1.58h22.79c0.88,0,1.59-0.71,1.59-1.59v-9.49c0-0.88-0.71-1.59-1.59-1.59h-22.79
			c-0.87,0-1.58-0.72-1.58-1.59v-17.92c0-10.47,6.03-16.71,14.89-16.71c3.43,0,6.6,0.53,9.5,1.27c0.48,0.13,0.96,0.03,1.36-0.28
			c0.4-0.31,0.61-0.75,0.61-1.26v-10.06C222.46,322.3,222.03,321.7,221.37,321.49"/>
		<path class="st0" d="M273.91,475.21c12.37,0,24.59-5.43,32.01-14.38c0.44-0.52,1.12-0.72,1.76-0.49c0.64,0.23,1.05,0.81,1.05,1.49
			v7.77c0,0.86,0.71,1.58,1.59,1.58h12.12c0.87,0,1.58-0.72,1.58-1.58v-98.47c0-0.87-0.71-1.58-1.58-1.58h-12.12
			c-0.88,0-1.59,0.71-1.59,1.58v57.98c0,18.52-15.29,32.2-33,32.2c-18.11,0-28.38-13.08-28.38-30.99v-59.19
			c0-0.87-0.71-1.58-1.59-1.58h-12.12c-0.88,0-1.59,0.71-1.59,1.58v59.19C232.05,456.28,247.95,475.21,273.91,475.21"/>
		<path class="st0" d="M339.38,487.89c6.25,19.85,26.53,33.6,50.44,33.6c30.19,0,52.12-19.32,52.12-51.92v-98.44
			c0-0.87-0.71-1.58-1.59-1.58h-12.12c-0.88,0-1.59,0.71-1.59,1.58v10.58c0,0.68-0.41,1.26-1.04,1.48
			c-0.64,0.23-1.33,0.05-1.77-0.47c-28.4-34.39-89.76-14.64-89.76,37.74c0,46.28,49.87,69.82,81.89,42.27
			c0.37-0.31,0.55-0.73,0.55-1.2v-11.6c0-0.66-0.38-1.23-1-1.47c-0.61-0.24-1.28-0.1-1.73,0.38c-22.29,23.4-64.43,9.56-64.43-28.37
			c0-54.66,78.6-53.8,77.69,0l-0.97,56.66c-0.63,36.93-60.08,41.4-72.05,6.89c-0.26-0.78-1.07-1.21-1.87-1.02l-11.65,2.87
			c-0.45,0.11-0.79,0.37-1.01,0.76C339.28,487.04,339.24,487.46,339.38,487.89"/>
		<path class="st0" d="M472.43,469.6v-98.47c0-0.86-0.71-1.58-1.58-1.58h-12.13c-0.87,0-1.58,0.72-1.58,1.58v98.47
			c0,0.87,0.71,1.58,1.58,1.58h12.13C471.72,471.18,472.43,470.47,472.43,469.6"/>
		<path class="st0" d="M472.43,349.52v10.48c0,0.87-0.71,1.59-1.58,1.59h-12.13c-0.87,0-1.58-0.72-1.58-1.59v-10.48
			c0-0.87,0.71-1.58,1.58-1.58h12.13C471.72,347.94,472.43,348.65,472.43,349.52"/>
		<path class="st0" d="M578.16,420.46c0,23.55-16.3,40.85-38.84,40.85c-22.54,0-38.85-17.3-38.85-40.85
			c0-23.74,16.3-40.85,38.85-40.85C561.86,379.61,578.16,396.72,578.16,420.46 M593.66,420.46c0-32.19-22.54-54.94-54.33-54.94
			c-31.8,0-54.14,22.74-54.14,54.94c0,32,22.34,54.74,54.14,54.74C571.12,475.21,593.66,452.46,593.66,420.46"/>
		<path class="st0" d="M299.49,336.74l7.41,7.41c0.61,0.61,0.61,1.62,0,2.24l-14.75,14.74c-0.62,0.61-1.62,0.61-2.24,0l-7.41-7.41
			c-0.62-0.62-0.62-1.63,0-2.24l14.74-14.74C297.87,336.12,298.87,336.12,299.49,336.74"/>
	</g>
	<g>
		<path class="st1" d="M412.37,112.04l29.79,29.79c4.88,4.89,7.33,11.33,7.33,17.76c0,6.43-2.44,12.86-7.33,17.75L316.41,303.08
			c-4.88,4.89-11.32,7.33-17.75,7.33c-6.43,0-12.87-2.44-17.75-7.33L155.16,177.34c-4.89-4.89-7.33-11.32-7.33-17.75
			c0-6.43,2.44-12.87,7.33-17.76l46.08-46.08c0.42-0.42,0.95-0.61,1.53-0.55c1.06,0.1,2.11,0.23,3.16,0.39
			c0.65,0.11,1.16,0.48,1.44,1.08c0.28,0.59,0.24,1.22-0.09,1.78c-2.68,4.52-5.09,9.3-7.25,14.1c-0.11,0.24-0.24,0.43-0.43,0.6
			l-37.92,35.83c-3.09,2.91-4.63,6.76-4.63,10.61c0,3.84,1.54,7.69,4.63,10.6l125.74,118.8c3.09,2.91,7.16,4.36,11.23,4.36
			c4.07,0,8.15-1.45,11.23-4.36l125.75-118.8c3.09-2.91,4.62-6.76,4.62-10.6c0-3.85-1.54-7.7-4.62-10.61l-37.18-35.12
			c-0.59-0.55-0.76-1.37-0.46-2.12c0.3-0.74,0.99-1.19,1.78-1.19c3.83,0.04,7.69,0.4,11.52,0.95
			C411.72,111.57,412.07,111.74,412.37,112.04 M316.41,16.09l55.55,55.55c0.71,0.71,0.75,1.82,0.11,2.59
			c-1.25,1.46-2.41,3.05-3.46,4.76c-0.28,0.46-0.69,0.75-1.21,0.86c-0.53,0.12-1.02,0.02-1.47-0.27c-2.26-1.5-4.68-2.68-7.23-3.52
			c-0.28-0.1-0.5-0.22-0.71-0.43l-48.11-45.45c-3.08-2.91-7.15-4.37-11.23-4.37c-4.07,0-8.15,1.45-11.23,4.37L261.3,54.88
			c-0.41,0.38-0.94,0.57-1.51,0.51c-1.58-0.18-3.17-0.26-4.77-0.26c-3.16,0-6.26,0.37-9.24,1.09c-0.84,0.21-1.69-0.15-2.12-0.91
			c-0.42-0.75-0.3-1.67,0.32-2.29l36.93-36.93c4.88-4.89,11.33-7.33,17.75-7.33C305.09,8.76,311.52,11.2,316.41,16.09"/>
		<path class="st1" d="M380.85,156.04c-5.47,2.5-15.99,7.17-28.15,11.79c-23.33,8.88-42.03,13.57-54.03,13.57
			c-12.02,0-30.7-4.69-54.05-13.57c-12.36-4.71-23.06-9.47-28.44-11.93c-0.21-0.1-4.17-1.67-4.25-1.86
			c-2.47-0.86-4.39,0.39-0.86,4.07c0.06-0.28,6.73,6.08,7.59,6.95c7.78,7.86,19.55,19.74,33.27,29.59
			c7.58,5.45,14.99,9.7,22.02,12.65c8.32,3.48,16.36,5.25,23.92,5.25c0.26,0,0.51,0,0.77,0h0.01c0.25,0,0.51,0,0.76,0
			c7.56,0,15.61-1.76,23.93-5.25c7.02-2.95,14.43-7.2,22.01-12.65c13.73-9.86,25.49-21.74,33.27-29.59
			C380.03,163.66,392.25,150.85,380.85,156.04"/>
		<path class="st0" d="M213.82,150.66c0.36-9.01,1.84-18.19,4.44-27.3c1.42-4.95,4.34-11.98,7-17.95c0.16-0.37,0.51-0.58,0.9-0.55
			c0.4,0.02,0.73,0.26,0.85,0.64c1.62,5,2.95,11.61,3.91,19.65c1.33,11.19,1.49,21.23,1.49,21.33c0,0.55,0.32,1.06,0.82,1.31
			c0.21,0.11,0.45,0.16,0.68,0.16c0.3,0,0.6-0.09,0.85-0.27c5.55-3.9,9.43-8.67,11.54-14.18c1.68-4.42,2.23-9.28,1.63-14.48
			c-0.41-3.63-1.34-6.89-2.28-9.48c-0.14-0.38-0.02-0.8,0.3-1.05c0.32-0.25,0.74-0.27,1.09-0.05c11.8,7.63,22.6,25.31,22.73,25.52
			c0.32,0.52,0.94,0.81,1.54,0.69c0.61-0.11,1.09-0.58,1.2-1.19c2.36-12.63,0.63-23.25-5.13-31.59
			c-4.54-6.58-10.78-10.41-15.21-12.47c-1.96-0.9-3.73-1.55-5.16-2.01c-0.31-0.1-0.53-0.33-0.62-0.63
			c-0.09-0.32-0.02-0.62,0.19-0.86c5.04-5.91,12.97-9.51,19.14-11.56c7.74-2.57,14.46-3.33,14.67-3.35h0.01
			c0.66-0.07,1.18-0.56,1.3-1.2c0.13-0.65-0.19-1.31-0.78-1.61c-9.43-4.84-18.15-7.29-25.88-7.29c-10.08,0-16.72,4.19-20.52,7.71
			c-1.22,1.13-2.22,2.25-3.04,3.29c-0.22,0.27-0.54,0.4-0.88,0.34c-0.34-0.06-0.61-0.28-0.73-0.6
			c-7.07-19.68-21.15-23.99-32.13-23.99c-11.38,0-20.92,4.51-21.33,4.7c-0.58,0.28-0.93,0.91-0.83,1.56
			c0.09,0.65,0.59,1.16,1.24,1.26c12.41,2.02,23.42,9,30.47,14.51c0.19,0.15,0.39,0.3,0.58,0.46c0.35,0.28,0.46,0.76,0.25,1.15
			c-0.2,0.4-0.65,0.6-1.08,0.47c-2.84-0.79-5.65-1.18-8.41-1.18c-8.06,0-15.83,3.44-22.48,9.93c-4.94,4.82-7.52,9.6-7.66,9.87
			c-0.01,0-0.01,0.01-0.01,0.01c-0.11,0.21-0.16,0.45-0.16,0.69c-0.01,0.32,0.09,0.65,0.3,0.91c0.35,0.47,0.94,0.68,1.52,0.55
			c9.71-2.2,18.58-3.32,26.37-3.32c9.72,0,16.08,1.68,20.13,3.48c0.27,0.13,0.45,0.34,0.52,0.61c0.07,0.29,0.02,0.56-0.14,0.8
			c-3.89,5.33-9.71,14.88-15.74,30.47c-7.98,20.62-10.37,41.74-6.94,61.08c0.62,3.52,1.44,6.98,2.4,10.37
			c0.04,0.17,0.13,0.3,0.26,0.43l34.27,32.38c0.33,0.31,0.83,0.34,1.2,0.07c0.37-0.28,0.48-0.77,0.27-1.17
			c-8.72-17.11-16.12-37.33-18.27-59.02C213.85,162.68,213.59,156.67,213.82,150.66"/>
		<path class="st0" d="M383.37,174.36c-1.93,19.16-8.53,37-16.27,52.04c-0.18,0.35-0.09,0.78,0.24,1.02
			c0.32,0.24,0.76,0.21,1.04-0.06l30.13-28.47c0.12-0.1,0.19-0.21,0.22-0.36c0.91-3.11,1.66-6.3,2.23-9.53
			c3-16.88,0.91-35.31-6.05-53.31c-5.26-13.61-10.35-21.95-13.74-26.6c-0.15-0.2-0.2-0.44-0.13-0.69c0.07-0.24,0.22-0.43,0.46-0.53
			c3.53-1.57,9.09-3.05,17.57-3.05c6.8,0,14.54,0.98,23.02,2.9c0.5,0.11,1.01-0.08,1.33-0.48c0.18-0.23,0.27-0.51,0.27-0.8
			c0-0.2-0.05-0.41-0.15-0.6c0,0,0-0.01-0.01-0.01c-0.13-0.24-2.39-4.41-6.69-8.61c-5.81-5.67-12.59-8.67-19.62-8.67
			c-2.41,0-4.86,0.35-7.35,1.03c-0.38,0.11-0.77-0.07-0.94-0.42c-0.18-0.35-0.09-0.77,0.22-1.01c0.17-0.13,0.32-0.26,0.5-0.39
			c6.16-4.81,15.77-10.91,26.61-12.68c0.55-0.09,1-0.53,1.07-1.11c0.08-0.56-0.21-1.11-0.73-1.36c-0.35-0.16-8.69-4.1-18.62-4.1
			c-9.58,0-21.87,3.76-28.05,20.94c-0.1,0.29-0.33,0.49-0.63,0.53c-0.3,0.05-0.58-0.06-0.77-0.3c-0.71-0.9-1.59-1.89-2.66-2.87
			c-3.31-3.07-9.11-6.73-17.91-6.73c-6.75,0-14.36,2.14-22.59,6.37c-0.51,0.26-0.79,0.83-0.69,1.41c0.11,0.55,0.57,0.98,1.14,1.05
			c0,0,0.01,0,0.01,0.01c0.18,0.01,6.05,0.67,12.8,2.92c5.38,1.78,12.32,4.93,16.71,10.1c0.19,0.2,0.25,0.47,0.17,0.75
			c-0.08,0.27-0.27,0.47-0.54,0.55c-1.25,0.4-2.8,0.96-4.51,1.75c-3.87,1.8-9.31,5.14-13.28,10.88c-5.03,7.28-6.54,16.57-4.48,27.59
			c0.1,0.53,0.52,0.94,1.05,1.04c0.53,0.1,1.07-0.14,1.35-0.6c0.11-0.18,9.55-15.61,19.84-22.28c0.29-0.19,0.67-0.18,0.95,0.05
			c0.28,0.23,0.38,0.58,0.25,0.91c-0.82,2.26-1.62,5.11-1.99,8.27c-0.52,4.54-0.05,8.79,1.43,12.64c1.84,4.81,5.22,8.98,10.07,12.37
			c0.22,0.17,0.48,0.24,0.75,0.24c0.2,0,0.41-0.05,0.59-0.15c0.43-0.21,0.71-0.66,0.71-1.14c0-0.09,0.13-8.85,1.3-18.61
			c0.83-7.02,1.99-12.79,3.41-17.16c0.1-0.33,0.38-0.54,0.73-0.56c0.34-0.02,0.65,0.16,0.78,0.48c2.32,5.21,4.87,11.35,6.11,15.68
			c1.93,6.79,3.17,13.63,3.67,20.37C384.23,161.45,384.02,167.93,383.37,174.36"/>
	</g>
</g>
</svg>
