<?xml version="1.0" encoding="UTF-8"?>
<!DOCTYPE svg PUBLIC "-//W3C//DTD SVG 1.1//EN" "http://www.w3.org/Graphics/SVG/1.1/DTD/svg11.dtd">
<!-- Creator: CorelDRAW 2021 (64 Bit) -->
<svg xmlns="http://www.w3.org/2000/svg" xml:space="preserve" width="70mm" height="70mm" version="1.1" style="shape-rendering:geometricPrecision; text-rendering:geometricPrecision; image-rendering:optimizeQuality; fill-rule:evenodd; clip-rule:evenodd"
viewBox="0 0 7000 7000"
 xmlns:xlink="http://www.w3.org/1999/xlink"
 xmlns:xodm="http://www.corel.com/coreldraw/odm/2003">
 <defs>
  <style type="text/css">
   <![CDATA[
    .fil0 {fill:#6F2F67;fill-rule:nonzero}
   ]]>
  </style>
 </defs>
 <g id="Camada_x0020_1">
  <metadata id="CorelCorpID_0Corel-Layer"/>
  <g id="_2152686248912">
   <path class="fil0" d="M3905.02 226.25l1267.21 1267.21c16.13,16.12 17.14,41.8 2.31,59.15 -28.55,33.38 -54.84,69.63 -78.78,108.58 -6.42,10.44 -15.77,17.09 -27.74,19.74 -11.99,2.64 -23.26,0.52 -33.48,-6.26 -51.51,-34.21 -106.84,-60.94 -164.86,-80.34 -6.29,-2.11 -11.28,-5.1 -16.1,-9.66l-1097.45 -1036.81c-70.35,-66.44 -163.21,-99.69 -256.13,-99.69 -92.92,0 -185.79,33.25 -256.13,99.69l-596.2 563.25c-9.57,9.05 -21.41,13.06 -34.51,11.67 -36.14,-3.82 -72.4,-5.89 -108.65,-5.89 -72.17,0 -142.89,8.31 -210.87,25.08 -19.28,4.75 -38.64,-3.61 -48.39,-20.91 -9.76,-17.28 -6.9,-38.18 7.14,-52.22l842.59 -842.59c111.47,-111.47 258.29,-167.2 405.02,-167.2 146.72,0 293.55,55.73 405.02,167.2zm2189.12 2189.13l679.62 679.61c111.47,111.47 167.2,258.3 167.2,405.02 0,146.72 -55.73,293.55 -167.2,405.02l-2868.74 2868.74c-111.47,111.47 -258.3,167.19 -405.02,167.19 -146.73,0 -293.55,-55.72 -405.02,-167.19l-2868.74 -2868.74c-111.47,-111.47 -167.21,-258.3 -167.21,-405.02 0,-146.72 55.74,-293.55 167.21,-405.02l1051.37 -1051.37c9.48,-9.49 21.48,-13.83 34.85,-12.58 24.02,2.24 48.13,5.17 72.07,8.89 14.73,2.3 26.37,10.98 32.73,24.48 6.35,13.48 5.66,27.97 -1.93,40.8 -61.08,103.03 -115.99,212.02 -165.25,321.7 -2.45,5.46 -5.47,9.72 -9.83,13.83l-865.11 817.3c-70.33,66.44 -105.51,154.19 -105.51,241.97 0,87.78 35.18,175.53 105.51,241.97l2868.73 2710.18c70.34,66.44 163.21,99.67 256.13,99.67 92.92,0 185.78,-33.23 256.13,-99.67l2868.72 -2710.18c70.34,-66.44 105.52,-154.19 105.52,-241.97 0,-87.78 -35.18,-175.53 -105.52,-241.97l-848.31 -801.43c-13.29,-12.56 -17.33,-31.01 -10.49,-47.97 6.86,-16.97 22.56,-27.46 40.86,-27.27 87.14,0.89 175.36,8.91 262.74,21.7 9.68,1.43 17.58,5.39 24.49,12.31z"/>
   <path class="fil0" d="M5375.07 3419.1c-124.74,57.07 -364.91,163.51 -642.08,268.99 -532.47,202.66 -958.81,309.78 -1232.85,309.78 -274.09,0 -700.38,-107.12 -1232.84,-309.78 -282.27,-107.39 -526.12,-215.81 -648.85,-272.06 -4.77,-2.18 -94.97,-38.07 -96.97,-42.65 -56.44,-19.54 -100.09,8.83 -19.45,92.9 1.44,-6.1 153.6,138.95 173.16,158.69 177.58,179.23 445.91,450.14 759.16,675.04 172.99,124.19 341.92,221.22 502.23,288.37 189.79,79.56 373.42,119.92 545.83,119.92 5.86,0 11.64,-0.06 17.5,-0.1 0.12,0 0.22,0 0.34,0 5.82,0.04 11.65,0.1 17.47,0.1 172.39,0 356.08,-40.36 545.87,-119.92 160.25,-67.15 329.2,-164.18 502.23,-288.37 313.18,-224.9 581.52,-495.81 759.1,-675.04 31.73,-32 310.25,-324.31 50.15,-205.87z"/>
   <path class="fil0" d="M1564.45 3296.19c8.19,-205.51 42.02,-414.83 101.37,-622.8 32.29,-112.94 98.98,-273.36 159.64,-409.66 3.66,-8.22 11.59,-13.08 20.57,-12.61 8.99,0.48 16.37,6.14 19.14,14.69 37.07,114.1 67.2,264.94 89.13,448.44 30.53,255.18 34.08,484.16 34.08,486.43 0.16,12.61 7.36,24.12 18.59,29.88 4.91,2.52 10.19,3.78 15.52,3.78 6.91,0 13.73,-2.11 19.56,-6.25 126.6,-88.82 215.12,-197.68 263.22,-323.44 38.44,-100.64 50.92,-211.77 37.18,-330.34 -9.56,-82.77 -30.5,-157.09 -51.97,-216.16 -3.19,-8.76 -0.53,-18.14 6.75,-23.93 7.28,-5.81 17.03,-6.28 24.84,-1.23 269.25,174.38 515.66,577.43 518.52,582.17 7.33,12.11 21.35,18.4 35.27,15.89 13.92,-2.59 24.78,-13.44 27.41,-27.3 53.8,-287.98 14.4,-530.52 -117.12,-720.83 -103.59,-149.93 -245.9,-237.37 -347.02,-284.32 -44.67,-20.77 -85.19,-35.61 -117.75,-45.97 -7.01,-2.23 -12,-7.37 -14.01,-14.44 -2.03,-7.06 -0.51,-14.07 4.25,-19.66 114.89,-134.95 295.99,-217.06 436.68,-263.78 176.51,-58.63 329.88,-75.87 334.57,-76.33 0.12,-0.02 0.21,-0.03 0.33,-0.04 14.88,-1.7 26.87,-12.87 29.69,-27.61 2.76,-14.82 -4.56,-29.76 -17.93,-36.65 -215.2,-110.47 -413.83,-166.49 -590.46,-166.49 -230.01,0 -381.49,95.67 -468.04,175.9 -27.79,25.77 -50.81,51.5 -69.46,75.1 -4.93,6.23 -12.3,9.09 -20.14,7.81 -7.85,-1.29 -13.92,-6.36 -16.6,-13.83 -161.34,-448.88 -482.47,-547.3 -732.95,-547.3 -259.57,0 -477.45,102.85 -486.57,107.22 -13.43,6.42 -21.17,20.82 -19.03,35.57 2.1,14.76 13.57,26.44 28.25,28.84 283.21,46.06 534.44,205.47 695.3,331.06 4.42,3.45 8.8,6.91 13.12,10.34 8.02,6.36 10.39,17.22 5.75,26.34 -4.64,9.11 -14.79,13.59 -24.65,10.87 -64.89,-17.9 -128.98,-26.91 -191.95,-26.91 -183.77,0 -361.12,78.31 -512.92,226.53 -112.59,109.96 -171.44,218.9 -174.86,225.16 -0.08,0.14 -0.13,0.25 -0.2,0.38 -2.54,4.9 -3.81,10.23 -3.84,15.55 -0.03,7.41 2.34,14.79 7.02,20.93 8.09,10.56 21.58,15.47 34.61,12.52 221.55,-50.19 424.01,-75.68 601.77,-75.68 221.6,0 366.91,38.35 459.16,79.56 6.06,2.72 10.18,7.54 11.89,13.98 1.7,6.42 0.54,12.66 -3.38,18.02 -88.61,121.45 -221.57,339.48 -359.1,695.15 -181.97,470.44 -236.67,952.14 -158.22,1393.14 14.27,80.3 32.71,159.29 54.78,236.73 1.1,3.85 2.95,6.89 5.86,9.64l781.8 738.58c7.59,7.18 19,7.83 27.37,1.58 8.37,-6.26 10.97,-17.4 6.23,-26.72 -198.73,-390.26 -367.61,-851.74 -416.72,-1346.54 -13.55,-136.54 -19.67,-273.81 -14.33,-410.96z"/>
   <path class="fil0" d="M5432.69 3836.99c-44,437.05 -194.88,844.2 -371.24,1187.16 -4.17,8.12 -1.93,17.89 5.38,23.37 7.3,5.48 17.28,4.91 23.92,-1.36l687.33 -649.34c2.51,-2.38 4.11,-5 5.08,-8.32 20.68,-71.08 37.81,-143.65 50.95,-217.5 68.49,-384.99 20.73,-805.51 -138.13,-1216.2 -120.06,-310.49 -236.13,-500.83 -313.49,-606.85 -3.42,-4.69 -4.43,-10.14 -2.95,-15.74 1.5,-5.62 5.09,-9.83 10.39,-12.2 80.53,-35.97 207.38,-69.46 400.84,-69.46 155.18,0 331.92,22.26 525.34,66.07 11.37,2.57 23.14,-1.71 30.21,-10.93 4.08,-5.36 6.15,-11.8 6.12,-18.27 -0.02,-4.65 -1.13,-9.3 -3.34,-13.57 -0.07,-0.12 -0.11,-0.22 -0.18,-0.34 -2.98,-5.46 -54.36,-100.56 -152.65,-196.56 -132.52,-129.39 -287.34,-197.76 -447.77,-197.76 -54.98,0 -110.92,7.87 -167.57,23.49 -8.61,2.38 -17.48,-1.53 -21.53,-9.49 -4.05,-7.96 -1.98,-17.44 5.02,-22.99 3.78,-2.99 7.6,-6.01 11.46,-9.02 140.42,-109.64 359.75,-248.8 606.99,-289.02 12.81,-2.09 22.83,-12.29 24.66,-25.17 1.87,-12.88 -4.89,-25.46 -16.61,-31.06 -7.96,-3.81 -198.17,-93.6 -424.77,-93.6 -218.67,0 -499.01,85.92 -639.86,477.79 -2.34,6.52 -7.65,10.95 -14.49,12.07 -6.84,1.12 -13.28,-1.38 -17.58,-6.82 -16.29,-20.6 -36.39,-43.06 -60.64,-65.56 -75.56,-70.04 -207.8,-153.56 -408.6,-153.56 -154.19,0 -327.59,48.91 -515.46,145.35 -11.67,6.01 -18.06,19.05 -15.65,31.99 2.46,12.87 12.93,22.62 25.92,24.11 0.1,0.01 0.18,0.02 0.28,0.03 4.09,0.4 137.99,15.46 292.08,66.64 122.82,40.78 280.92,112.46 381.22,230.27 4.16,4.88 5.48,11 3.71,17.16 -1.76,6.18 -6.12,10.67 -12.23,12.61 -28.43,9.04 -63.8,22 -102.8,40.13 -88.28,40.99 -212.51,117.33 -302.94,248.21 -114.82,166.14 -149.21,377.87 -102.25,629.28 2.3,12.1 11.78,21.57 23.93,23.83 12.15,2.19 24.39,-3.3 30.79,-13.87 2.5,-4.14 217.61,-356 452.66,-508.23 6.82,-4.41 15.33,-4 21.69,1.07 6.36,5.06 8.67,13.25 5.89,20.89 -18.74,51.58 -37.02,116.45 -45.37,188.71 -11.99,103.51 -1.1,200.53 32.46,288.39 41.99,109.78 119.27,204.82 229.79,282.35 5.09,3.62 11.04,5.46 17.08,5.46 4.65,0 9.26,-1.1 13.54,-3.3 9.81,-5.03 16.09,-15.08 16.23,-26.08 0,-1.98 3.1,-201.89 29.75,-424.66 19.15,-160.19 45.45,-291.87 77.81,-391.47 2.42,-7.48 8.87,-12.41 16.71,-12.83 7.84,-0.41 14.77,3.83 17.96,11 52.95,118.99 111.17,259.04 139.36,357.63 44.22,154.96 72.22,310.76 83.92,464.63 11.17,147.04 6.38,294.8 -8.37,441.44z"/>
  </g>
 </g>
</svg>
