<?xml version="1.0" encoding="utf-8"?>
<!-- Generator: Adobe Illustrator 24.0.1, SVG Export Plug-In . SVG Version: 6.00 Build 0)  -->
<svg version="1.1" id="Camada_1" xmlns="http://www.w3.org/2000/svg" xmlns:xlink="http://www.w3.org/1999/xlink" x="0px" y="0px"
	 viewBox="0 0 500 600" style="enable-background:new 0 0 500 600;" xml:space="preserve">
<style type="text/css">
	.st0{fill:#F4DCBC;}
	.st1{opacity:0.5;}
	.st2{fill:#6FDAE1;}
	.st3{fill:#A48A7B;}
	.st4{fill:#CBBBA0;}
	.st5{fill:#E1A078;}
	.st6{fill:#55142E;}
	.st7{fill:#99265B;}
	.st8{fill:#93CEC0;}
	.st9{fill:#619B8C;}
	.st10{fill:#E25E8F;}
	.st11{fill:#FFFFFF;}
	.st12{fill:#FBBA00;}
	.st13{fill:#1E989B;}
	.st14{fill:#36082F;}
	.st15{fill:#F3DFD7;}
	.st16{fill:#802649;}
	.st17{fill:#F28F50;}
	.st18{fill:#F7AE80;}
	.st19{fill:#FFFAF7;}
	.st20{fill:#893253;}
	.st21{fill:#E7C8BC;}
	.st22{fill:#672161;}
	.st23{fill:#F9B233;}
	.st24{fill:#95C11F;}
	.st25{fill:#73C6CF;}
	.st26{fill:#52BAB9;}
	.st27{fill:#F07E16;}
	.st28{fill:#883153;}
	.st29{fill:#009FE3;}
	.st30{fill:#72BE8D;}
	.st31{fill:#EACFA5;}
	.st32{fill:#FEEAD3;}
	.st33{fill:#C7E4E0;}
	.st34{fill:#6FAA9B;}
	.st35{fill:#3FB091;}
	.st36{fill:#BE1622;}
	.st37{fill:#F39200;}
	.st38{fill:#D6906E;}
	.st39{fill:#3C153A;}
</style>
<g>
	<g>
		<path class="st8" d="M171.01,330.24c7.43,4.22,18.36-1.44,19.2-9.95c4.12,14.43-3.13,29.37-5.4,44.2
			c-1.1,7.19-1.02,14.51-0.93,21.79c0.02,1.58,0.07,3.26,0.96,4.56c0.8,1.18,2.16,1.84,3.48,2.39c8.08,3.37,16.94,4.36,25.68,4.9
			c32.2,2.01,64.74-1.54,95.75-10.46c2.85-0.82,5.91-1.84,7.58-4.3c1.07-1.58,1.4-3.54,1.6-5.44c2.41-23.68-12.24-48.26-3.82-70.52
			c2.41,3.39,4.88,6.84,8.23,9.29c3.36,2.45,7.82,3.77,11.75,2.4c2.78-0.97,4.94-3.14,7.01-5.23c5.32-5.41,10.64-10.81,15.96-16.22
			c1.93-1.96,3.92-4.03,4.65-6.68c1.58-5.74-3.27-11.09-7.8-14.94c-10.2-8.66-21.03-16.57-32.39-23.64
			c-2.37-1.47-4.93-2.96-7.72-2.91c-2.3,0.04-4.43,1.11-6.5,2.1c-26.18,12.54-56.97,15.17-84.9,7.25
			c-8.64-2.45-17.99-5.85-26.27-2.38c-3.72,1.56-6.76,4.36-9.72,7.11c-6.1,5.68-12.2,11.35-18.3,17.03
			c-5.74,5.35-11.77,11.17-13.52,18.82c-1.85,8.1,1.5,16.38,4.78,24.02c1.24,2.88,2.53,5.84,4.76,8.05c2.23,2.2,5.66,3.5,8.58,2.34"
			/>
	</g>
	<path class="st35" d="M305.07,308.36c3.56,20.15,6.94,40.43,6.81,60.96c-0.03,5.58,1.18,12.62-5.29,14.91
		c-4.55,1.61-10.62,1.45-15.42,1.92c-10.19,0.99-20.41,1.41-30.64,1.41c-5.21,0-5.22,8.1,0,8.1c12.79,0.01,25.57-0.68,38.27-2.24
		c9.11-1.12,19.03-0.8,20.61-11.75c3.53-24.57-2.26-51.32-6.53-75.45C311.97,301.08,304.16,303.25,305.07,308.36L305.07,308.36z"/>
	<path class="st35" d="M337.04,317.01c2.18-1.63,4.36-3.27,6.54-4.9c1.75-1.31,2.65-3.5,1.45-5.54c-1.01-1.72-3.78-2.77-5.54-1.45
		c-2.18,1.63-4.36,3.27-6.54,4.9c-1.75,1.31-2.65,3.5-1.45,5.54C332.51,317.28,335.28,318.33,337.04,317.01L337.04,317.01z"/>
	<g>
		<path class="st12" d="M185.27,403.32c42.65-1.8,85.3-3.6,127.96-5.4c1.24-0.05,2.52-0.1,3.67,0.34c1.36,0.52,2.39,1.64,3.38,2.7
			c25.2,26.9,62.34,38.64,92.48,59.87c8.04,5.66,16.32,13.56,15.79,23.38c-0.55,10.37-10.56,17.4-19.8,22.15
			c-32.3,16.57-67.92,25.37-103.18,34.03c-4.68-9.08-6.11-19.79-3.98-29.79c-5.71-0.41-7.7-8.74-4.42-13.43s9.29-6.44,14.84-7.84
			c5.55-1.4,11.56-3.05,14.97-7.64c-26.87-5.35-54.19-8.46-81.58-9.28c-10.71-0.32-21.57-0.27-31.96,2.36
			c-13.45,3.42-25.42,10.98-37.12,18.44c-1.41,0.9-2.91,1.9-3.5,3.47c-1.38,3.64,2.81,6.81,6.36,8.39c7.31,3.25,14.8,6.1,22.42,8.55
			c-1.5,2.09-3.01,4.18-4.72,6.1c-12.32,13.84-32.64,16.5-51.12,17.82c-5.82,0.42-11.73,0.78-17.43-0.44
			c-4.32-0.92-8.39-2.73-12.38-4.6c-8.36-3.92-16.55-8.18-24.56-12.77c-5.92-3.4-11.85-7.07-16.26-12.28
			c-4.41-5.21-7.13-12.28-5.63-18.94c2.09-9.31,11.26-14.97,19.52-19.75c34.32-19.85,66.98-42.56,97.54-67.82"/>
	</g>
	<g>
		<path class="st10" d="M206.27,160.04c3.37-9.22,6.81-18.56,12.51-26.54c4.51-6.31,10.36-11.67,14.12-18.45
			c3.89-7.02,5.31-15.19,9.06-22.29c0.53-1.01,1.35-2.13,2.49-2.04c0.88,0.07,1.51,0.86,2.01,1.59
			c9.78,14.28,14.85,33.1,29.91,41.65c3.64,2.07,7.67,3.38,11.27,5.51c3.6,2.13,6.89,5.35,7.63,9.47c4.84-5.95,14.47-3.6,21.51-6.64
			c5.17-2.23,8.63-7.35,10.21-12.75s1.56-11.12,1.52-16.74c-0.02-2.18-0.09-4.55-1.46-6.25c-1.01-1.26-2.56-1.93-3.87-2.87
			c-4.07-2.92-5.59-8.13-7.68-12.68c-7.03-15.3-22.04-24.99-34.92-35.84c-0.64-0.54-1.3-1.13-1.53-1.93
			c-0.46-1.61,0.99-3.06,2.15-4.26c6.12-6.36,7.04-16.02,6.91-24.84c-0.11-7.22-1.14-15.32-6.84-19.76
			c-4.26-3.32-10.05-3.69-15.46-3.91c-6.76-0.28-14.43-0.23-19.1,4.67c-3.96,4.14-5.13,11.21-10.5,13.22
			c-1.74,0.65-3.65,0.62-5.46,1.02c-5.54,1.24-9.34,6.33-11.79,11.44c-2.14,4.47-3.66,9.37-3.37,14.32
			c0.29,4.95,2.63,9.95,6.82,12.59c-17.3,4.75-31.12,20.33-33.76,38.07c-0.27,1.84-0.46,3.77-1.43,5.36
			c-0.77,1.26-1.95,2.2-3.04,3.21c-6.09,5.67-9.13,14.12-9.38,22.44c-0.25,8.32,2.06,16.54,5.37,24.17
			c1.76,4.08,3.88,8.12,7.13,11.15c3.25,3.03,7.82,4.93,12.18,4.04c4.35-0.89,8.07-5.12,7.5-9.52"/>
	</g>
	<g>
		<path class="st10" d="M200.86,185.63c-0.74,10.86-1.08,21.75-1.01,32.64c-0.74-4.76-0.54-9.67,0.61-14.35
			c1.1-4.49,3.03-8.73,4.33-13.16c1.3-4.43,1.94-9.26,0.42-13.62c-2.33,3.97-3.4,8.67-3.02,13.26"/>
	</g>
	<g>
		<path class="st5" d="M174.04,539.46c7.09,1.37,14.19,2.74,21.28,4.1c6.54,1.26,13.1,2.53,19.52,4.29
			c23.45,6.43,45.24,19.5,69.47,21.52c1.61,0.13,3.45,0.14,4.59-1c1.29-1.29,1.07-3.54,0.01-5.02c-1.06-1.48-2.74-2.38-4.36-3.22
			c-7.99-4.16-15.99-8.32-23.98-12.48c2.46-1.87,5.76-2.04,8.83-2.24c7.04-0.46,14.05-1.49,20.93-3.08
			c5.84-1.34,12.17-3.53,15.07-8.77c1.88-3.4,1.94-7.48,1.96-11.37c0.01-3.06,0.03-6.12,0.04-9.18c0.01-1.65-0.06-3.5-1.25-4.64
			c-1.21-1.17-3.2-1.14-4.73-0.44c-1.53,0.7-2.74,1.94-4,3.05c-3.34,2.95-7.29,5.21-11.52,6.58c-6.54,2.12-13.64,2.15-20.11,4.47
			c-2.88,1.03-5.6,2.51-8.56,3.28c-2.36,0.61-4.81,0.75-7.25,0.86c-14.21,0.61-28.66,0-42.23-4.26c-4.88-1.53-9.6-3.53-14.47-5.09
			c-1.25-0.4-2.54-0.78-3.84-0.68c-1.04,0.08-2.03,0.45-2.99,0.86c-7.36,3.1-13.86,8.22-18.6,14.65c-1.76,2.39-3.32,5.64-1.8,8.2
			c1.76,2.96,6.07,2.64,9.44,1.94"/>
	</g>
	<g>
		<path class="st5" d="M170.74,322.53c-1.26,0.83-1.79,2.39-2.23,3.83c-1.17,3.81-2.33,7.62-3.5,11.43
			c-0.84,2.74-1.69,5.56-1.46,8.41c0.16,2.05,0.87,4.04,1.91,5.82c2.96,5.06,8.41,8.27,14.07,9.79c5.66,1.52,11.6,1.54,17.46,1.56
			c5.7,0.01,11.4,0.03,17.1,0.04c1.22,0,2.48,0,3.59-0.52c1.66-0.77,2.61-2.51,3.4-4.16c5.07-10.53,8.12-22.04,8.95-33.7
			c2.08,0.96,2.92,3.42,3.49,5.64c1.22,4.74,2.17,9.55,2.84,14.4c0.54-0.2,1.09-0.39,1.66-0.45c2.3-0.27,4.47,1.48,5.4,3.61
			c0.93,2.12,0.9,4.53,0.75,6.84c-0.09,1.4-0.22,2.83-0.73,4.14c-1.05,2.7-3.53,4.53-5.89,6.21c-2.85,2.03-5.7,4.05-8.55,6.08
			c-2.69,1.91-5.4,3.84-8.42,5.19c-4.08,1.82-8.56,2.51-12.98,3.18c-3.97,0.6-7.93,1.2-11.9,1.81c-3.56,0.54-7.13,1.08-10.73,1.2
			c-2.86,0.09-5.73-0.09-8.58-0.33c-7.04-0.59-14.13-1.55-20.75-4.02c-5.93-2.21-11.42-5.6-16.04-9.93
			c-1.15-1.08-2.27-2.24-2.94-3.67c-0.68-1.44-0.86-3.05-1-4.63c-0.62-6.99-0.49-14.04,0.36-21c0.36-2.91,0.85-5.83,1.93-8.56
			c1.34-3.41,3.55-6.41,5.73-9.36c4.21-5.69,8.42-11.39,12.62-17.08c0.3-0.4,0.64-0.83,1.13-0.94c0.82-0.18,1.49,0.6,1.96,1.3
			c3.65,5.42,7.29,10.83,10.94,16.25"/>
	</g>
	<g>
		<path class="st5" d="M299.02,324.74c3.68,9,3.06,19.1,4.34,28.74c0.1,0.76,0.22,1.54,0.6,2.21c0.88,1.57,2.88,2.09,4.67,2.27
			c9.48,0.95,18.61-3.39,27.01-7.87c5.14-2.74,10.57-5.92,12.95-11.24c1.15-2.57,1.47-5.42,1.73-8.22c0.24-2.57,0.43-5.17-0.07-7.7
			c-0.81-4.12-3.34-7.64-5.56-11.2c-1.55-2.49-3.03-5.4-2.28-8.24c0.65-2.44,2.78-4.17,4.85-5.62c3.46-2.42,7.09-4.6,10.87-6.5
			c0.41-0.21,0.86-0.42,1.31-0.32c0.48,0.1,0.82,0.53,1.1,0.94c4.38,6.39,4.87,14.56,7.1,21.98c2.72,9.02,8.22,17.9,6.42,27.15
			c-0.66,3.42-2.31,6.58-4.26,9.47c-6.76,9.99-17.29,17.04-28.64,21.1c-11.36,4.06-23.54,5.3-35.6,5.36
			c-3.16,0.01-6.42-0.07-9.29-1.38c-3.37-1.54-5.83-4.63-7.34-8.01c-1.5-3.38-2.15-7.08-2.72-10.73
			c-0.81-5.19-1.46-10.75,0.77-15.51c0.12-0.25,0.27-0.53,0.54-0.61c0.39-0.12,0.76,0.23,1.02,0.55c0.54,0.65,1.08,1.3,1.62,1.96
			c2.33-3.01,2.78-7.01,3.54-10.74c0.76-3.73,2.19-7.75,5.54-9.56"/>
	</g>
	<g>
		<path class="st5" d="M212.96,255.87c18.67,7.83,39.55,7.96,59.79,7.53c2.89-0.06,6.1-0.27,8.1-2.36c1.04-1.1,1.95-2.77,3.46-2.65
			c0.68,0.05,1.25,0.49,1.86,0.79c2.93,1.48,6.43-0.01,9.36-1.49c5.82-2.94,11.63-5.88,17.45-8.82c-0.32-1.7-2.16-2.57-3.78-3.18
			c-6.8-2.58-13.6-5.16-20.4-7.75c-2.01-0.76-4.06-1.55-5.69-2.95c-1.26-1.08-2.2-2.47-2.99-3.92c-4.05-7.42-4.2-16.25-5.27-24.63
			c-0.07-0.52-0.17-1.1-0.58-1.43c-0.43-0.35-1.04-0.3-1.58-0.25c-8.12,0.88-16.24,1.75-24.36,2.63c-0.66,0.07-1.37,0.16-1.88,0.59
			c-0.57,0.47-0.77,1.24-0.9,1.96c-0.46,2.5-0.44,5.07-0.56,7.61c-0.28,6.05-1.32,12.12-3.7,17.69
			c-2.38,5.57-6.14,10.63-11.17,14.01c-4.88,3.28-10.7,4.84-16.48,5.92"/>
	</g>
	<g>
		<path class="st5" d="M271.15,203.82c12.35-4.41,22.38-14.85,26.29-27.37c1.38-4.41,2.03-9.08,1.53-13.67
			c-0.35-3.28-1.28-6.46-2.27-9.61c-1.56-4.96-3.38-10.03-7-13.76c-3.07-3.15-7.15-5.05-10.81-7.48
			c-14.17-9.42-21.22-26.17-31.57-39.68c-0.38-0.5-0.9-1.05-1.52-0.95c-0.47,0.08-0.79,0.51-1.05,0.91
			c-3.33,5.3-3.84,11.86-6.18,17.66c-2.5,6.22-7.19,11.53-13.04,14.79c-1.96,1.09-4.09,2-5.64,3.62c-1.31,1.38-2.09,3.17-2.85,4.92
			c-5.84,13.54-11.78,27.54-11.92,42.29c1.39-6.76,0.73-13.93-1.87-20.33c-1.52-3.76-4.78-7.77-8.76-6.97
			c-2.18,0.44-3.87,2.34-4.51,4.47c-0.64,2.13-0.38,4.44,0.23,6.57c1.15,4,3.48,7.54,5.77,11.01c6.7,10.15,13.53,20.45,22.87,28.24
			c9.33,7.79,21.7,12.85,33.66,10.68"/>
	</g>
	<g>
		<path class="st5" d="M298.46,170.44c3.79-0.75,6.17-4.52,7.49-8.15c1.89-5.21,2.53-10.87,1.84-16.37
			c-0.09-0.72-0.21-1.45-0.56-2.07c-0.7-1.25-2.25-1.85-3.68-1.71s-2.72,0.9-3.8,1.84c-3.41,2.98-4.87,7.71-4.84,12.23
			s1.36,8.93,2.74,13.23"/>
	</g>
	<g>
		<path class="st20" d="M216.63,168.14c5.62-0.79,11.34-1.58,16.95-0.69c0.39,0.06,0.8,0.15,1.05,0.45
			c0.19,0.24,0.23,0.56,0.23,0.87c0.02,2.17-1.61,4.1-3.58,5.03c-2.09,0.98-4.48,1.03-6.79,1.06c-2.65,0.03-5.36,0.05-7.86-0.82
			c-0.92-0.32-1.88-0.86-2.16-1.79c-0.24-0.79,0.11-1.66,0.67-2.26s1.32-0.98,2.06-1.34"/>
	</g>
	<g>
		<path class="st20" d="M272.27,172.06c0.24,0.65,1.01,0.92,1.68,1.07c5.22,1.19,10.82,0.66,15.72-1.49
			c0.74-0.32,1.52-0.74,1.84-1.48c0.37-0.84,0-1.86-0.68-2.47c-0.68-0.61-1.61-0.86-2.52-0.96c-2.31-0.24-4.61,0.44-6.8,1.23
			c-3.34,1.2-6.58,2.68-9.68,4.4"/>
	</g>
	<g>
		<path class="st20" d="M277.52,138.43c-3.11,0.41-6.22,0.77-9.34,1.07c-0.24,0.02-0.5,0.04-0.72-0.06c-0.24-0.11-0.4-0.34-0.5-0.59
			c-0.26-0.66-0.13-1.43,0.23-2.04s0.93-1.07,1.55-1.43c1.83-1.06,4.12-1.22,6.12-0.53c0.54,0.18,1.07,0.43,1.48,0.83
			c0.41,0.4,0.69,0.96,0.65,1.52c-0.01,0.17-0.06,0.34-0.17,0.47c-0.2,0.23-0.54,0.25-0.85,0.25c-0.97,0-1.94,0-2.91,0"/>
	</g>
	<g>
		<path class="st20" d="M227.02,139.59c3.4-0.42,6.7-1.54,9.65-3.28c1.01-0.6,2.03-1.32,2.49-2.41c-5.23-1.15-10.99,0.45-14.88,4.13
			c-0.17,0.16-0.34,0.38-0.25,0.59c0.08,0.17,0.29,0.22,0.48,0.25c1.21,0.18,2.42,0.32,3.64,0.43"/>
	</g>
	<g>
		<path class="st5" d="M186.79,390.14c8.76,0.79,17.53,1.58,26.29,2.37c10.41,0.94,20.85,1.88,31.31,1.65
			c5.38-0.11,10.76-0.54,16.12-0.96c10.87-0.85,21.8-1.72,32.35-4.48c3.76-0.99,7.71-2.22,11.46-1.19c3.75,1.03,6.84,5.46,4.91,8.84
			c-1.42,2.48-4.64,3.14-7.46,3.54c-36.16,5.12-72.94,9.55-109.11,4.43c-1.54-0.22-3.14-0.48-4.43-1.35
			c-3.24-2.21-2.99-6.99-2.38-10.86"/>
	</g>
	<g>
		<path class="st36" d="M229.65,317.88c-1.07-0.04-2.15,0.21-3.09,0.72c-0.39,0.21-0.76,0.46-1.18,0.57
			c-0.43,0.11-0.94,0.04-1.21-0.3c-0.2-0.24-0.23-0.57-0.27-0.88c-0.13-1.28-0.18-2.76,0.78-3.61c0.55-0.49,1.33-0.64,2.07-0.63
			c1.71,0.01,3.4,0.76,4.54,2.03c0.69,0.76,1.13,2.06,0.35,2.73"/>
	</g>
	<g>
		<path class="st36" d="M235.8,294.07c2.34,0.78,4.75,1.35,7.19,1.71c0.48,0.07,1.08,0.07,1.31-0.35c0.19-0.35,0.01-0.77-0.18-1.12
			c-0.7-1.34-1.39-2.68-2.09-4.01c-0.5-0.95-1.01-1.93-1.78-2.67c-0.68-0.65-1.54-1.11-2.46-1.29c-0.71-0.14-1.5-0.12-2.11,0.29
			c-0.45,0.3-0.76,0.77-1.01,1.26c-0.61,1.16-0.99,2.52-0.63,3.78c0.36,1.26,1.64,2.31,2.92,2.05"/>
	</g>
	<g>
		<path class="st36" d="M271.97,285.69c0.16,1.38,0.32,2.77,0.48,4.15c0.06,0.55,0.18,1.19,0.68,1.45c0.49,0.25,1.09-0.02,1.52-0.37
			c2.14-1.68,2.58-4.71,2.74-7.42c0.02-0.3,0.03-0.62-0.12-0.88c-0.14-0.25-0.41-0.41-0.68-0.52c-0.97-0.41-2.05-0.43-3.1-0.45
			c-0.65-0.01-1.37,0-1.87,0.42c-0.91,0.77-0.47,2.23-0.62,3.41"/>
	</g>
	<g>
		<path class="st24" d="M295.86,278.71c-1.17,0.93-2,2.29-2.29,3.76c-0.04,0.21-0.07,0.46,0.07,0.63c0.09,0.12,0.25,0.18,0.39,0.21
			c0.84,0.21,1.71-0.07,2.51-0.37c0.84-0.32,1.69-0.69,2.31-1.34c0.61-0.65,0.93-1.66,0.54-2.47c-0.41-0.85-1.44-1.21-2.38-1.25
			c-1.77-0.07-3.68,0.94-4.14,2.65"/>
	</g>
	<g>
		<path class="st24" d="M295.85,301.38c-1.04,0.6-1.75,1.72-1.85,2.92c-0.02,0.21-0.01,0.43,0.12,0.59c0.13,0.15,0.35,0.2,0.55,0.23
			c3.19,0.45,6.57-0.99,8.45-3.6c0.22-0.31,0.43-0.7,0.28-1.04c-0.13-0.29-0.45-0.43-0.75-0.53c-1.23-0.42-2.53-0.75-3.83-0.59
			c-1.29,0.16-2.58,0.89-3.1,2.08"/>
	</g>
	<g>
		<path class="st37" d="M257.09,274.56c0.14,1.2,0.68,2.31,1.16,3.41c0.48,1.1,0.93,2.27,0.87,3.48c-0.06,1.2-0.77,2.45-1.93,2.79
			c-1.01,0.3-2.11-0.15-2.95-0.79c-1.83-1.37-2.94-3.64-2.88-5.92c0.02-0.84,0.26-1.79,1-2.2c0.87-0.48,1.97,0.03,2.94-0.18"/>
	</g>
	<g>
		<path class="st37" d="M284.07,262.34c-2.16,1.31-3.55,3.8-3.54,6.32c2.13-0.01,4.25-0.89,5.76-2.4c1.51-1.5,2.4-3.62,2.43-5.75
			c0-0.33-0.02-0.68-0.18-0.97c-0.19-0.35-0.56-0.57-0.93-0.7c-2.09-0.75-4.34,0.75-5.66,2.54c-1.17,1.59-1.94,3.47-2.23,5.42"/>
	</g>
	<g>
		<path class="st37" d="M267.27,300.6c-0.26-2.25,0.02-4.57,0.81-6.7c0.12-0.31,0.41-0.69,0.7-0.53c0.12,0.07,0.18,0.2,0.23,0.33
			c0.74,1.8,1.48,3.67,1.39,5.61c-0.08,1.94-1.23,3.97-3.1,4.47c-0.21,0.06-0.44,0.09-0.65,0.02c-0.15-0.05-0.28-0.15-0.4-0.27
			c-0.76-0.71-1.14-1.81-0.99-2.84s0.84-1.97,1.78-2.43"/>
	</g>
	<g>
		<path class="st24" d="M272.57,302.15c2.52-1.53,5.09-2.97,7.71-4.31c0.67-0.34,1.53-0.66,2.1-0.17c0.26,0.22,0.38,0.56,0.42,0.9
			c0.14,1.23-0.78,2.39-1.89,2.94c-1.11,0.55-2.4,0.61-3.64,0.67c-1.3,0.06-2.61,0.12-3.91,0.18"/>
	</g>
	<g>
		<path class="st36" d="M251.91,304.39c-1.08-2.08-3.14-3.62-5.45-4.05c-1.15-0.22-2.39-0.16-3.43,0.39
			c-1.03,0.55-1.81,1.66-1.75,2.83c0.02,0.45,0.19,0.93,0.57,1.18c0.28,0.19,0.64,0.22,0.98,0.24c3.3,0.19,6.63-0.15,9.83-1.01"/>
	</g>
	<g>
		<path class="st36" d="M254.3,303.78c0.32-1.3,0.87-2.55,1.61-3.67c0.18-0.27,0.38-0.55,0.67-0.71c0.31-0.17,0.67-0.19,1.02-0.2
			c0.71-0.02,1.41-0.02,2.12,0.01c0.74,0.03,1.52,0.09,2.13,0.5s0.98,1.28,0.6,1.91c-0.25,0.42-0.75,0.62-1.21,0.78
			c-2.31,0.82-4.71,1.42-7.13,1.79"/>
	</g>
	<g>
		<path class="st22" d="M250.11,369.6c-0.21,2.39,3.95,5.95,5.95,7.06c2,1.11,5.1-2.16,7.35-2.14c4.89,0.04,12.9,2.73,15.89-1.39
			c0.82-1.13-1.17-6.05-0.6-7.34c1.05-2.39,2.1-4.81,2.68-7.38c0.46-2.03,0.63-4.12,0.8-6.2c0.47-5.85,0.94-11.7,1.41-17.56
			c0.4-4.99,0.8-9.98,0.65-14.98c-0.05-1.83-0.19-3.7-0.88-5.37c-0.69-1.68-2.02-3.15-3.7-3.49c-1.96-0.4-3.86,0.74-5.63,1.71
			c-5.78,3.15-12.37,4.8-18.82,3.99c-1.63-0.2-3.46-0.51-4.77,0.54c-0.58,0.47-6.68,3.7-7.02,4.39c-2.53,5.16,3.06,8.67,3,14.49
			c-0.06,5.77-0.11,11.6,1,17.25c0.66,3.35,1.74,6.68,1.55,10.1"/>
	</g>
	<g>
		<path class="st6" d="M244.48,318.36c2.67-0.96,5.53-1.38,8.36-1.23c3.48,0.18,6.86,1.21,10.33,1.55
			c5.24,0.52,10.62-0.57,15.25-3.09c1.09-0.6,2.17-1.29,2.91-2.3c1.38-1.88,1.29-4.43,1.14-6.76c-0.04-0.6-0.08-1.23-0.41-1.73
			c-0.53-0.82-1.62-1.05-2.59-1.18c-7.32-1.04-14.76-1.3-22.14-0.8c-3.86,0.27-7.84,0.79-11.14,2.81c-0.94,0.57-1.83,1.29-2.37,2.25
			c-0.61,1.09-0.71,2.39-0.75,3.64c-0.06,1.8-0.01,3.71,0.95,5.24c0.96,1.53,3.12,2.45,4.63,1.47"/>
	</g>
	<path class="st37" d="M174.82,407.12c-4.33,8.39-11.94,13.21-20.04,17.58c-10.44,5.62-21.14,10.8-31.71,16.17
		c-17.39,8.84-37.07,21.2-46.35,39.17c-9.35,18.1-3.36,37.28,12.99,48.73c17.86,12.5,43.6,12.51,64.44,15.45
		c4.37,0.62,8.65-1.07,9.97-5.66c1.09-3.79-1.33-9.35-5.66-9.97c-9.79-1.38-19.58-2.72-29.36-4.14c-9.43-1.38-19.44-2.76-27.85-7.54
		c-6.6-3.75-12.73-10.11-13.08-18.09c-0.4-9.05,5.9-16.77,12.02-22.69c14.53-14.05,32.49-22,50.29-31.04
		c14.51-7.37,30.5-14.59,38.33-29.79C193.59,406.05,179.61,397.84,174.82,407.12L174.82,407.12z"/>
	<path class="st37" d="M139,494.03c10.95-0.77,19.97,7.16,30.53,8.83c5.1,0.8,7.3-7,2.15-7.81c-11.41-1.8-20.73-9.96-32.69-9.11
		C133.83,486.3,133.79,494.4,139,494.03L139,494.03z"/>
	<path class="st37" d="M295.86,500.15c-1.22,1.92-0.86,4.38,0.48,6.11c0.62,0.81,1.37,1.37,2.31,1.77c1.07,0.45,2.35,0.6,3.47,0.21
		c1-0.35,1.87-0.92,2.42-1.86c0.51-0.87,0.72-2.15,0.41-3.12c-0.32-0.98-0.92-1.93-1.86-2.42c-0.93-0.49-2.1-0.77-3.12-0.41
		c-0.1,0.03-0.18,0.06-0.28,0.07c0.36-0.05,0.72-0.1,1.08-0.14c-0.1,0.01-0.18,0.01-0.28,0c0.36,0.05,0.72,0.1,1.08,0.14
		c-0.1-0.02-0.18-0.04-0.27-0.07c0.32,0.14,0.65,0.27,0.97,0.41c-0.15-0.06-0.28-0.14-0.41-0.24c0.27,0.21,0.55,0.42,0.82,0.63
		c-0.1-0.09-0.19-0.18-0.28-0.28c0.21,0.27,0.42,0.55,0.63,0.82c-0.1-0.13-0.18-0.27-0.25-0.42c0.14,0.32,0.27,0.65,0.41,0.97
		c-0.05-0.12-0.08-0.24-0.1-0.37c0.05,0.36,0.1,0.72,0.14,1.08c-0.01-0.13-0.01-0.25,0.01-0.37c-0.05,0.36-0.1,0.72-0.14,1.08
		c0.02-0.1,0.05-0.18,0.08-0.27c-0.14,0.32-0.27,0.65-0.41,0.97c0.03-0.06,0.06-0.12,0.1-0.17c0.55-0.87,0.68-2.15,0.41-3.12
		c-0.26-0.94-0.99-1.96-1.86-2.42C299.4,497.63,297.08,498.24,295.86,500.15L295.86,500.15z"/>
	<g>
		<g>
			<path class="st37" d="M197.45,516.2c3.86,0,3.87-6,0-6C193.58,510.2,193.58,516.2,197.45,516.2L197.45,516.2z"/>
		</g>
	</g>
	<g>
		<g>
			<path class="st37" d="M192.43,516.92c3.86,0,3.87-6,0-6C188.57,510.92,188.56,516.92,192.43,516.92L192.43,516.92z"/>
		</g>
	</g>
	<path class="st37" d="M257.63,473.72c35.16-4.68,72.16,20.63,105.56,0.64c4.47-2.67,0.4-9.68-4.09-6.99
		c-31.14,18.63-68.28-6.16-101.47-1.75C252.53,466.3,252.47,474.41,257.63,473.72L257.63,473.72z"/>
	<path class="st35" d="M170.87,330.2c1.79,1.27,3.77,2.21,5.85,2.91c1.62,0.55,3.78-0.35,4.57-1.86c0.77-1.47,0.8-3.78-0.63-4.91
		c-1.76-1.39-3.59-2.46-5.79-3.02c-2.05-0.53-4.49,0.67-4.98,2.83c-0.48,2.11,0.63,4.42,2.83,4.98c0.31,0.08,0.62,0.17,0.93,0.27
		c0.96,0.29-0.66-0.39,0.22,0.09c0.28,0.15,0.57,0.3,0.84,0.47c0.18,0.11,0.96,0.69,0.23,0.11c1.31-2.26,2.63-4.51,3.94-6.77
		c-0.16-0.06-1.51-0.6-0.64-0.21c-0.37-0.16-0.73-0.34-1.08-0.52c-0.76-0.4-1.49-0.86-2.19-1.36c-1.73-1.24-4.58-0.36-5.54,1.45
		C168.31,326.75,169.02,328.89,170.87,330.2L170.87,330.2z"/>
	<path class="st35" d="M180.84,331.03c2.39-1.35,5.01-2.55,7.18-4.23c1.01-0.78,1.82-1.71,2.41-2.85c0.44-0.84,0.59-1.85,1.29-2.45
		c1.65-1.43,1.47-4.26,0-5.73c-1.64-1.64-4.07-1.44-5.73,0c-0.81,0.7-1.43,1.58-1.89,2.54c-0.31,0.66-0.49,1.57-1.01,2.11
		c-0.63,0.65-1.89,1.1-2.67,1.54c-1.22,0.69-2.45,1.38-3.67,2.07C172.21,326.59,176.29,333.59,180.84,331.03L180.84,331.03z"/>
	<path class="st38" d="M248.38,215.27c8,0.73,15.96,0.86,22.89-3.73c-1.98-0.81-3.97-1.61-5.95-2.42
		c2.77,10.07,7.91,21.09,14.61,29.16c6.56,7.9,16.07,11.73,25.42,15.3c4.87,1.86,6.98-5.97,2.15-7.81
		c-8.23-3.14-16.58-6.48-22.14-13.66c-5.49-7.09-9.88-16.59-12.23-25.15c-0.66-2.41-3.75-3.88-5.95-2.42
		c-5.69,3.77-12.3,3.22-18.8,2.62C243.19,206.69,243.22,214.79,248.38,215.27L248.38,215.27z"/>
	<path class="st38" d="M356,297.22c10.15,16.34,16.49,39.04,2.78,55.47c-6.06,7.26-14.8,9.87-23.74,11.71
		c-11.35,2.34-22.84,4.06-34.33,5.46c-5.11,0.62-5.17,8.73,0,8.1c13.27-1.61,26.63-3.43,39.67-6.43
		c10.28-2.37,19.6-6.77,25.98-15.45c14.15-19.25,8.34-44.12-3.36-62.95C360.25,288.71,353.23,292.78,356,297.22L356,297.22z"/>
	<path class="st38" d="M190.29,397.53c30.58,3.93,61.6,3.84,92.16-0.25c8.63-1.16,17.21-2.62,25.73-4.4
		c3.4-0.71,1.96-5.92-1.44-5.21c-29.72,6.2-60.21,8.49-90.53,6.84c-8.67-0.47-17.31-1.27-25.92-2.38c-1.45-0.19-2.7,1.37-2.7,2.7
		C187.59,396.44,188.84,397.34,190.29,397.53L190.29,397.53z"/>
	<path class="st38" d="M180.8,519.02c15.61,4.1,31.22,8.18,46.82,12.3c6.49,1.71,13.26,3.57,18.22,8.35
		c2.46,2.37,4.49,5.14,6.66,7.77c2.17,2.63,4.5,5.13,7,7.47c5.71,5.34,12.17,9.86,19.16,13.37c3.1,1.56,5.83-3.1,2.73-4.66
		c-6.16-3.1-11.9-6.95-17.02-11.57c-2.6-2.35-5.05-4.87-7.31-7.55c-2.2-2.61-4.21-5.39-6.59-7.84c-5-5.16-11.56-7.81-18.36-9.72
		c-7.68-2.15-15.43-4.08-23.15-6.1c-8.91-2.34-17.81-4.68-26.72-7.02C178.88,512.93,177.44,518.14,180.8,519.02L180.8,519.02z"/>
	<path class="st38" d="M248.52,531.7c8.96-3.78,19.05,0.09,28.19-3.13c4.66-1.64,8.63-4.53,12.6-7.38c4.53-3.25,9.06-6.5,13.59-9.75
		c1.18-0.85,1.75-2.35,0.97-3.69c-0.68-1.17-2.5-1.82-3.69-0.97c-4.44,3.19-8.88,6.37-13.31,9.56c-3.78,2.71-7.63,5.78-12.12,7.22
		c-8.99,2.87-18.77-0.8-27.65,2.94c-1.34,0.57-2.31,1.78-1.89,3.32C245.54,531.08,247.16,532.28,248.52,531.7L248.52,531.7z"/>
	<path class="st14" d="M311.69,396.23c-2.72,0.26-2.71,0.26-3.96-2.28c-0.23-0.48-0.82-0.89-0.83-1.35c-0.04-1.6-1.1-1.67-2.21-1.61
		c-3.05,0.18-6.1,0.54-9.15,0.59c-1.45,0.02-2.76,0.04-3.94,1.01c-0.3,0.24-0.86,0.4-1.21,0.3c-2.55-0.71-4.93,1.24-7.51,0.41
		c-0.5-0.16-1.22,0.34-1.83,0.54c-0.6,0.2-1.2,0.57-1.8,0.58c-2.53,0.04-5.07-0.1-7.6-0.03c-2.77,0.08-5.6,0.77-8.3,0.4
		c-3.76-0.52-7.17,0.67-10.7,1.28c-1.03,0.18-1.85,0.42-2.54-0.61c-0.7-1.07-0.56-1.88,0.66-2.2c1.56-0.41,3.15-0.79,4.75-0.91
		c8.13-0.6,16.26-1.11,24.4-1.66c0.32-0.02,0.65-0.02,0.97-0.07c4.86-0.81,9.73-1.63,14.59-2.44c0.11-0.02,0.22-0.03,0.32-0.02
		c6.15,0.54,11.78-1.96,17.66-3.04c0.32-0.06,0.65-0.08,0.95-0.19c0.91-0.35,2.64,0.59,2.66-0.95c0.03-1.86-0.64-3.73-1.07-5.58
		c-0.04-0.17-0.55-0.32-0.85-0.34c-2.25-0.15-4.5-0.34-6.75-0.37c-5.72-0.09-10.97-1.41-15.81-4.71c-3.8-2.59-5.61-6.14-6.47-10.36
		c-0.54-2.63-1.06-5.29-1.19-7.95c-0.2-4.19-0.09-8.39-0.05-12.58c0-0.51,0.27-1.04,0.51-1.52c0.52-1.02,1.23-1.05,1.88-0.02
		c0.33,0.52,0.4,1.21,0.71,1.75c0.25,0.45,0.67,0.8,1.02,1.2c0.25-0.44,0.64-0.86,0.73-1.33c0.54-3.07,1.02-6.15,1.49-9.23
		c0.59-3.85,1.9-7.41,4.09-10.63c0.35-0.52,0.91-0.91,1.4-1.33c1.61-1.37,1.98-1.26,2.9,0.8c0.22,0.49,0.39,1.02,0.68,1.46
		c1.62,2.45,1.89,5.16,1.71,8.02c-0.49,7.51-0.2,15,0.67,22.49c0.19,1.65,0.92,2.58,2.25,3.21c3.21,1.52,6.55,0.88,9.84,0.43
		c0.37-0.05,0.82-0.92,0.89-1.46c0.47-3.29,0.95-6.59,1.2-9.9c0.12-1.58-0.31-3.2-0.45-4.8c-0.75-8.53-1.52-17.06-2.22-25.6
		c-0.2-2.45-0.11-4.92-0.32-7.36c-0.11-1.24-0.65-2.43-0.88-3.66c-0.1-0.55,0.1-1.16,0.16-1.74c0.67,0.11,1.35,0.19,2.02,0.35
		c0.17,0.04,0.28,0.32,0.42,0.47c2.74,2.98,5.55,5.92,8.2,8.98c0.94,1.08,1.49,2.49,2.23,3.74c0.25,0.43,0.52,0.85,0.78,1.28
		c0.42-0.3,0.91-0.52,1.23-0.9c2.5-2.96,4.94-5.98,7.46-8.91c1.11-1.3,2.41-2.44,3.59-3.68c1.77-1.85,3.46-3.77,5.27-5.58
		c2.27-2.28,4.58-4.53,6.96-6.69c1.91-1.73,3.9-3.38,5.96-4.93c1.11-0.84,0.86-1.53,0.15-2.37c-1.79-2.14-3.55-4.32-5.37-6.43
		c-2.6-3.01-5.27-5.96-7.86-8.99c-0.9-1.05-1.63-2.25-2.44-3.38c-0.38-0.52-0.7-1.11-1.18-1.52c-3.49-3.02-6.96-6.07-10.55-8.97
		c-3-2.43-6.15-4.69-9.25-7c-0.69-0.52-1.38-1-2.15,0.08c-2.74,3.79-7.09,5.03-11.08,6.77c-2.13,0.93-4.29,1.91-6.82,1.64
		c-0.94-0.1-1.97,0.76-2.97,1.16c-0.47,0.19-0.99,0.52-1.44,0.45c-0.71-0.1-1.39-0.48-2.08-0.74c0.41-0.55,0.72-1.26,1.26-1.62
		c0.88-0.59,1.9-0.99,2.89-1.41c4.13-1.75,8.28-3.47,12.41-5.24c0.31-0.13,0.49-0.59,0.73-0.89c-0.3-0.07-0.59-0.2-0.89-0.2
		c-2.24-0.02-4.09-1.09-6.05-2.04c-4.16-2.01-8.36-3.98-12.67-5.64c-9.01-3.48-15.4-9.46-17.87-18.9
		c-1.23-4.68-1.45-9.61-0.67-14.45c0.28-1.77-0.41-2.13-1.87-1.93c-1.49,0.2-2.97,0.58-4.45,0.61c-0.68,0.01-1.37-0.63-2.06-0.98
		c0.5-0.49,0.92-1.24,1.52-1.43c2.04-0.66,4.29-0.82,6.19-1.73c2.89-1.39,5.49-3.35,8.32-4.87c5.34-2.87,7.49-7.99,9.68-13.15
		c0.84-1.97,1.8-3.93,2.98-5.71c1.67-2.52,2.45-5.13,2.16-8.17c-0.39-4.17-0.22-8.37-1.3-12.49c-1.55-5.89-4.44-11.13-7.31-16.41
		c-2.56-4.72-5.06-9.47-7.65-14.18c-1.53-2.79-2.51-5.97-5.38-7.86c-0.24-0.16-0.47-0.52-0.49-0.81c-0.12-1.87-1.18-3.17-2.46-4.38
		c-0.26-0.25-0.27-0.75-0.4-1.14c0.49-0.11,1.1-0.46,1.44-0.29c0.85,0.43,1.92,0.93,2.29,1.7c1.69,3.56,5.11,3.54,8.02,3.48
		c4.48-0.09,11.31-3.84,13.57-10.02c4.12-11.24,4.32-22.53,0.99-33.93c-0.44-1.49-1.35-2.93-2.33-4.17
		c-3.42-4.29-7.33-8.1-11.85-11.24c-0.48-0.34-0.81-0.9-1.21-1.36l-0.07,0.07c1.93,0.87,3.86,1.74,5.78,2.63
		c0.77,0.36,1.52,0.76,2.24,1.2c0.91,0.54,1.99,0.96,2.63,1.73c2.33,2.8,5.3,4.57,8.5,6.2c2.17,1.1,4.14,2.7,5.97,4.33
		c2.47,2.2,4.88,4.52,7.02,7.03c1.21,1.43,1.92,3.32,2.72,5.06c2.24,4.88,4.45,9.77,3.8,15.39c-0.06,0.51,0.61,1.37,1.16,1.65
		c3.51,1.85,5.16,4.83,6.15,8.58c1.87,7.13,2.24,14.1-0.22,21.22c-1.55,4.47-4.54,7.48-8.25,9.96c-2.23,1.48-4.62,2.76-7.05,3.88
		c-1.32,0.61-1.62,1.33-1.64,2.69c-0.04,2.68-0.28,5.37-0.59,8.03c-0.14,1.15-0.68,2.25-1.04,3.37c-0.35,1.08-0.53,2.26-1.09,3.22
		c-1.4,2.37-2.87,4.73-4.55,6.9c-0.55,0.71-0.91,1.01-0.78,2.06c0.22,1.77-0.1,3.61-0.19,5.43c-0.17,3.4-0.65,6.82-0.42,10.19
		c0.36,5.23,1.26,10.42,1.84,15.64c0.21,1.87,0.17,3.78,0.24,5.67c-2.1-0.99-2.39-3.16-3.06-4.98c-2.27-6.2-3.35-12.67-3.81-19.25
		c-0.05-0.75-0.07-1.51-0.17-2.26c-0.04-0.29-0.27-0.54-0.42-0.81c-0.33,0.18-0.7,0.32-0.96,0.57c-0.22,0.21-0.37,0.54-0.47,0.84
		c-1.83,5.14-5.85,8.93-8.44,13.6c-0.25,0.45-0.69,0.83-1.12,1.13c-2.54,1.77-5.13,3.48-7.64,5.29c-0.36,0.26-0.56,0.96-0.58,1.47
		c-0.09,2.03,0,4.07-0.13,6.09c-0.57,8.6,0.7,16.46,7.77,22.52c2.45,2.1,5.15,3.55,8.04,4.63c5.16,1.93,10.21,4.01,14.86,6.99
		c0.78,0.5,1.47,1.18,2.15-0.44c0.62-1.47,2.34-0.9,3.48-0.54c1.97,0.62,3.83,1.37,5.92,0.51c0.43-0.18,1.19-0.1,1.56,0.17
		c1.7,1.26,3.34,2.62,4.97,3.98c0.98,0.82,1.79,2.03,2.91,2.47c3.31,1.3,5.34,3.92,7.37,6.55c1.6,2.08,3.29,3.92,5.79,4.93
		c0.77,0.31,1.49,0.9,2.05,1.53c2.78,3.1,5.5,6.25,8.24,9.39c2.23,2.55,4.49,5.08,6.68,7.67c0.69,0.81,1.15,1.81,1.8,2.66
		c0.63,0.82,1.24,1.73,2.07,2.29c0.91,0.62,1.15,1.31,0.74,2.17c-0.95,1.99-0.24,3.65,0.63,5.46c1.68,3.48,3.1,7.08,4.68,10.61
		c0.53,1.17,1.01,2.5,1.91,3.32c1.71,1.57,2.21,3.59,2.83,5.64c0.56,1.85,1.2,3.69,2.02,5.43c1.74,3.68,2.29,7.46,2.29,11.54
		c0,3.82-0.99,7.16-2.44,10.54c-0.97,2.26-1.62,4.65-2.48,6.95c-0.64,1.74-1.59,3.13-3.37,4.11c-1.22,0.68-1.94,2.22-2.91,3.35
		c-0.69,0.79-1.34,1.65-2.16,2.28c-1.47,1.13-3.58,1.56-4.02,3.78c-2.63,0.67-3.82,3.1-5.74,4.58c-1.81,1.4-3.8,2.66-5.7,3.99
		c-2.03,1.41-4.71,2-7.18,2.65c-5.27,1.39-10.82,1.68-15.87,3.99c-0.29,0.13-0.6,0.28-0.91,0.34c-1.35,0.26-2.7,0.48-4.06,0.72
		c-0.21,2.22-0.46,4.44-0.61,6.67c-0.08,1.14,0.1,2.3,0.02,3.44c-0.13,1.94-0.98,3.2-3.12,3.6c-1.64,0.31-3.2,1.04-4.75,1.71
		c-0.41,0.18-0.78,0.79-0.89,1.27c-0.16,0.68-0.05,1.43-0.06,2.15L311.69,396.23z M299.82,72.25c0.08-0.03,0.17-0.05,0.24-0.1
		c0.05-0.04,0.06-0.12,0.08-0.18c-0.1,0.09-0.2,0.18-0.29,0.27c0.68,1.33,1.72,2.6,1.99,4.02c0.69,3.66,1.7,7.24,1.57,11.08
		c-0.17,4.94,0.27,9.93-1.41,14.69c-0.99,2.83-2.18,5.61-3.54,8.28c-0.91,1.78-2,3.63-3.47,4.94c-3.86,3.42-8.28,5.79-13.68,5.59
		c-1.16-0.04-1.61,0.43-1.2,1.56c0.43,1.21,0.77,2.48,1.34,3.62c1.87,3.72,4.44,7.08,5.7,11.13c0.24,0.79,0.89,1.45,1.35,2.17
		c1.03,1.63,2.18,3.2,3.06,4.9c1.43,2.76,2.41,5.79,4.07,8.38c2.51,3.92,2.83,8.26,3.28,12.64c0.09,0.88,0.42,1.75,0.64,2.62
		c0.94-0.45,1.97-0.79,2.81-1.38c0.75-0.53,1.44-1.23,0.6-2.39c-0.22-0.31,0.19-1.24,0.51-1.77c2.67-4.31,3.09-9.08,2.79-13.96
		c-0.07-1.23-0.46-2.47-0.88-3.65c-0.34-0.94-0.95-1.26-1.98-0.55c-0.86,0.59-2.3,1.12-2.83-0.02c-0.38-0.82,0.13-2.22,0.58-3.2
		c0.24-0.52,1.25-1.04,1.84-0.97c1.67,0.2,3.8,0.18,4.84,1.19c2.13,2.05,3.79,1.32,5.71,0.1c0.63-0.4,1.27-0.82,1.96-1.12
		c6.59-2.96,9.56-8.38,10.09-15.26c0.5-6.53-0.74-12.86-3.08-18.96c-0.35-0.91-1-1.7-1.52-2.55c-0.15,1.04-0.4,2.07-0.45,3.11
		c-0.16,3.73,0.01,7.49-1.77,10.96c-3.01,5.9-7.34,10.21-13.84,12.25c-4.64,1.46-9.17,1.02-13.64-0.38
		c-2.43-0.76-4.92-1.74-6.51-3.97c-0.62-0.88-1.19-1.98-0.18-2.93c0.87-0.81,1.66-0.2,2.57,0.31c3.27,1.82,6.55,3.39,10.44,3.88
		c9.94,1.25,19-6.86,18.92-16.2c-0.03-3.66,0.12-7.35-0.25-10.99c-0.39-3.82-0.96-7.7-2.09-11.36c-2.18-7.02-7.61-11.56-13.23-15.82
		C300.72,72.05,300.18,72.25,299.82,72.25z M348.43,328.73c-0.33-2.87-0.52-5.78-1.03-8.62c-0.77-4.25-1.99-8.37-4.63-11.93
		c-0.68-0.92-1.28-1.54-2.25-0.46c-2.13,2.39-4.22,4.8-6.3,7.23c0,0.01,0.45,0.57,0.64,0.54c0.52-0.08,1-0.43,1.52-0.51
		c0.35-0.05,0.77,0.13,1.08,0.34c0.09,0.06-0.02,0.69-0.21,0.84c-2.42,1.97-4.79,4.07-8.08,4.45c-1.07,0.12-2.03,0.04-2.9-0.94
		c-1.83-2.08-3.8-4.04-5.78-5.98c-0.86-0.84-1.9-1.5-2.86-2.24c-0.19,1.26-0.55,2.51-0.53,3.77c0.05,3.98,0.32,7.95,0.35,11.93
		c0.02,3.09-0.46,6.2-0.21,9.27c0.25,3.07,1.37,6.07,0.38,9.19c-0.09,0.28-0.06,0.71,0.1,0.94c1.77,2.6,1.39,5.56,1.41,8.44
		c0.01,1.14,0.34,1.63,1.48,1.4c1.16-0.24,2.34-0.42,3.46-0.77c6.23-1.94,12.53-3.71,17.63-8.16c0.77-0.68,2-0.83,3.02-1.22
		c-0.52,1.14-1.03,2.29-1.58,3.41c-0.08,0.17-0.38,0.21-0.53,0.36c-3.45,3.38-8.05,4.63-12.26,6.59c-1.55,0.72-3.23,1.15-4.86,1.68
		c-1.7,0.55-3.66,0.72-5.05,1.69c-1.74,1.22-3.15-0.77-4.67,0.07c-0.37,0.2-0.81,0.35-1.23,0.38c-4.39,0.37-8.87,1.11-12.61-2.15
		c-0.69-0.6-1.47-1.39-1.65-2.21c-0.74-3.35-1.64-6.73-1.77-10.13c-0.23-5.69,0.11-11.4,0.14-17.11c0-0.93-0.28-1.9-0.59-2.8
		c-0.18-0.52-0.69-0.91-1.05-1.37c-0.37,0.37-0.83,0.69-1.09,1.13c-0.33,0.55-0.59,1.17-0.71,1.79c-0.42,2.09-0.79,4.18-1.12,6.28
		c-0.42,2.64-0.69,5.32-1.19,7.94c-0.4,2.09-0.99,4.15-1.64,6.17c-0.16,0.5-1.13,1.24-1.34,1.13c-2.28-1.18-1.88,0.65-2.31,1.82
		c-0.71,1.91-0.02,3.61,0.46,5.35c0.66,2.37,1.4,4.72,2.08,7.09c1.1,3.89,1.62,8.18,6.52,9.47c0.26,0.07,0.38,0.57,0.65,0.68
		c0.87,0.36,1.76,0.84,2.67,0.9c3.96,0.26,7.95,0.64,11.91,0.51c4.07-0.14,8.17-0.59,12.17-1.36c4.2-0.8,8.29-2.16,12.45-3.24
		c3.95-1.02,7.91-1.87,11.42-4.26c4.07-2.78,8.3-5.32,12.6-7.74c4.77-2.68,8.11-6.63,10.7-11.29c0.71-1.28,1.05-2.8,1.41-4.25
		c0.6-2.39,0.73-4.97,1.69-7.19c1.19-2.78,1.11-5.49,0.54-8.22c-0.68-3.25-1.68-6.45-2.62-9.64c-0.3-1.02-0.74-2.03-1.27-2.96
		c-2.93-5.13-5.91-10.22-7.93-15.83c-0.83-2.31-2.05-4.49-3.26-6.63c-0.85-1.5-1.76-1.69-2.81-0.7c-3.83,3.62-7.69,7.21-11.37,10.98
		c-2.03,2.08-1.85,2.29-0.24,4.7c1.91,2.87,3.97,5.68,4.5,9.21c1.09,7.21,1.96,14.4-0.01,21.65c-0.53,1.94-1.2,3.61-2.75,4.87
		c-0.3,0.25-0.64,0.46-0.96,0.69c-0.05-0.46-0.28-1.01-0.12-1.38C347.91,338,348.31,333.42,348.43,328.73z M299.38,171.18
		c-0.15,0.25-0.35,0.47-0.41,0.73c-0.04,0.17,0.11,0.39,0.17,0.59c0.25-0.31,0.5-0.62,0.75-0.92
		C299.75,171.47,299.62,171.36,299.38,171.18z M310.87,389.95c-0.29-0.04-0.57-0.14-0.82-0.1c-0.1,0.01-0.16,0.31-0.24,0.48
		c0.27,0.06,0.53,0.15,0.8,0.15C310.69,390.49,310.76,390.2,310.87,389.95z M312.44,389.67c-0.03-0.07-0.05-0.19-0.08-0.19
		c-0.08-0.01-0.17,0.04-0.25,0.07c0.03,0.07,0.05,0.2,0.08,0.21C312.27,389.75,312.35,389.7,312.44,389.67z M299.26,174.23
		l-0.14,0.22l0.2,0.05L299.26,174.23z"/>
	<path class="st14" d="M154.74,299.07c2.11,4.82,5.98,8.18,9.61,11.78c1.71,1.7,2.83,4,4.2,6.05c0.07,0.11-0.03,0.44-0.16,0.56
		c-0.12,0.11-0.45,0.17-0.56,0.09c-1.02-0.79-2.06-1.56-2.99-2.44c-2.64-2.52-5.2-5.14-7.86-7.63c-1.58-1.47-2.24-1.33-2.44,0.7
		c-0.22,2.21-1.55,3.59-3.06,4.65c-1.27,0.89-1.81,1.95-2.34,3.26c-0.91,2.23-1.57,4.83-3.18,6.43c-1.95,1.94-2.46,3.91-2.75,6.42
		c-0.23,2.02-0.6,4.31-2.84,5.48c-0.33,0.17-0.58,0.66-0.69,1.04c-0.94,3.48-2.22,6.92-2.65,10.47c-0.62,5.08-0.46,10.23-0.14,15.36
		c0.18,2.9,0.8,5.42,2.96,7.58c1.13,1.14,2.18,2.46,2.54,4.31c0.2,0.99,1.57,2.14,2.65,2.5c4.78,1.57,9.43,3.69,14.56,4
		c0.11,0.01,0.22,0.02,0.32,0.06c5.72,1.88,11.64,1.68,17.56,1.94c8.36,0.38,16.5-0.38,24.58-2.47c3.01-0.78,6.15-1.03,9.22-1.56
		c4.45-0.77,8.8-1.75,12.83-3.96c1.77-0.97,3.85-1.33,5.74-2.09c2.69-1.08,4.71-2.99,6.16-5.47c2.49-4.28,5-8.57,5.22-13.71
		c0.09-2.01,1.8-3.79,0.83-5.93c-0.36-0.79-0.67-1.68-1.26-2.26c-0.28-0.27-2.4,2.09-2.44,2.76c-0.11,2.23-0.2,4.47-0.34,6.7
		c-0.02,0.4-0.21,0.79-0.33,1.18c-0.22-0.34-0.59-0.66-0.65-1.03c-0.73-4.24-1.47-8.47-2.09-12.73c-0.53-3.61-1.29-7.23-0.27-10.88
		c0.03-0.1,0.04-0.23,0.01-0.32c-0.42-1.13-0.85-2.25-1.27-3.38c-1.21,0.89-1.09,2.13-1.12,3.46c-0.12,4.71-0.89,9.32-2.55,13.75
		c-0.3,0.8-0.67,1.59-0.91,2.41c-0.9,3.12-2.24,5.99-4.3,8.55c-0.77,0.96-1.52,2.3-1.49,3.45c0.06,2.14-1.19,2.59-2.74,3.34
		c-4.82,2.35-9.91,2.56-15.1,2.46c-1.35-0.03-2.72,0.35-4.08,0.51c-0.74,0.09-1.49,0.22-2.22,0.17c-6.85-0.47-13.64-1.54-20.38-2.77
		c-2.29-0.42-4.9-1.02-6.56-2.47c-2.34-2.04-4.17-4.67-7.11-6.04c-0.08-0.04-0.16-0.16-0.18-0.26c-1.32-5.22-4.73-10.08-2.51-15.9
		c0.72-1.89,1.01-3.96,1.4-5.96c0.69-3.5,2.9-6.2,4.72-9.11c0.57-0.91,1.42-1.15,2.19-0.62c0.5,0.34,1.02,1.28,0.9,1.81
		c-0.31,1.34-0.84,2.68-1.54,3.87c-0.8,1.37-0.31,1.93,0.97,2.28c2.07,0.57,4.13,1.16,6.22,1.68c0.33,0.08,0.74-0.16,1.12-0.25
		c-0.16-0.36-0.23-0.84-0.5-1.07c-3.42-3.01-5.07-7.16-7.11-11.06c-0.17-0.32-0.1-0.76-0.14-1.14c0.46,0.12,1.12,0.08,1.36,0.38
		c1.87,2.35,3.68,4.75,5.47,7.16c0.38,0.51,0.57,1.16,0.9,1.71c1.58,2.64,1.52,2.57,3.81,0.43c1.56-1.46,3.31-2.73,5.01-4.03
		c1.14-0.87,2.05-1.72,2.06-3.39c0.01-2.03,0.34-4.06,0.59-6.09c0.06-0.48,0.29-1.32,0.51-1.34c0.56-0.06,1.33,0.08,1.7,0.46
		c0.48,0.49,0.87,1.27,0.89,1.94c0.04,1.27-0.14,2.57-0.35,3.84c-0.7,4.13-1.58,8.23-2.14,12.38c-0.32,2.33,0.13,4.77-0.25,7.08
		c-0.96,5.91-2.18,11.77-3.3,17.65c-0.14,0.73-0.43,1.49-0.34,2.19c0.05,0.41,0.82,1.1,1.13,1.03c2.12-0.47,3.8,0.69,5.53,1.45
		c2.06,0.9,4.07,1.05,6.29,0.82c4.7-0.49,9.45-0.56,14.15-1.08c3.81-0.42,6.87-2.53,8.5-5.94c2.49-5.21,4.97-10.5,6.62-16
		c1.12-3.7,1.65-7.81,0.89-11.78c-0.32-1.67,0.23-2.92,0.96-4.2c0.54-0.94,1.35-2.01,2.54-1.52c0.86,0.35,1.88,1.3,2.06,2.14
		c0.8,3.8,2.06,7.49,1.77,11.54c-0.17,2.37,0.81,4.83,1.32,7.23c0.03,0.15,0.56,0.39,0.68,0.31c2.68-1.7,4.43-0.15,6.11,1.71
		c0.01,0.01-0.06-0.07-0.06-0.07c0.15,2.57,0.35,5.14,0.42,7.72c0.02,0.82-0.04,1.87-0.51,2.45c-2.65,3.22-3.52,7.31-5.25,10.94
		c-2.53,5.32-6.31,8.26-12,8.95c-1.38,0.17-2.36,0.52-2.82,2.05c-0.21,0.72-1.02,1.54-1.74,1.78c-2.9,0.96-5.85,1.83-8.83,2.52
		c-3.76,0.86-7.75,1.02-11.29,2.38c-3.39,1.3-6.73,1.39-10.18,1.57c-2.88,0.15-5.75,0.54-8.63,0.86c-0.27,0.03-0.62,0.25-0.74,0.49
		c-0.79,1.58,0.39,3.76,2.1,4.05c2.43,0.42,4.83,0.97,7.27,1.31c2.13,0.3,4.29,0.36,6.42,0.6c2.77,0.31,5.53,0.77,8.31,1.02
		c2.35,0.21,4.73,0.15,7.09,0.31c3.43,0.23,6.85,0.54,10.27,0.81c2.36,0.19,4.72,0.36,7.08,0.55c1.06,0.09,2.13,0.17,3.18,0.35
		c0.58,0.1,1.13,0.39,1.69,0.59c-0.53,0.44-1.13,1.32-1.59,1.25c-2.84-0.43-5.77,0.85-8.56-0.44c-0.57-0.26-1.25-0.43-1.88-0.41
		c-4.25,0.13-8.5,0.43-12.75,0.45c-2.08,0.01-4.15-0.51-6.24-0.7c-2.66-0.24-5.34-0.63-7.98-0.49c-1.97,0.11-3.76-0.18-5.57-0.74
		c-0.72-0.22-1.44-0.48-2.19-0.58c-0.91-0.12-1.57-0.2-1.36,1.32c0.23,1.75-0.09,3.61-0.39,5.38c-0.26,1.56,0.25,2.11,1.78,2.29
		c5.01,0.57,10,1.26,15,1.87c0.96,0.12,1.94,0,2.9,0.08c1.69,0.14,3.38,0.44,5.07,0.5c3.01,0.11,6.03,0.01,9.04,0.15
		c6.44,0.29,12.87,0.69,19.3,1.02c1.07,0.05,2.14,0.01,3.21-0.03c3.87-0.15,7.74-0.34,11.62-0.45c0.47-0.01,0.94,0.31,1.41,0.48
		c-0.36,0.47-0.68,0.98-1.11,1.39c-0.2,0.19-0.64,0.29-0.91,0.22c-2.28-0.63-4.61,1.08-6.9-0.19c-0.4-0.22-1.23-0.21-1.56,0.05
		c-3.06,2.44-6.32,0.12-9.46,0.47c-0.39,0.04-0.94-0.47-1.19-0.33c-3.07,1.74-6.03-0.32-9.04-0.21c-0.86,0.03-1.83-0.2-2.56,0.11
		c-1.61,0.69-3.06,0.37-4.68,0.06c-1.29-0.25-2.71,0.3-4.07,0.25c-2.87-0.11-5.7-0.43-8.61-0.37c-4.01,0.08-8.13-0.54-12.02-1.56
		c-3.21-0.84-6.39-0.75-9.59-1.03c-1.59-0.14-2.91,1.21-2.76,2.81c0.04,0.48,0.87,1.19,1.42,1.27c1.37,0.2,2.79,0.01,4.17,0.12
		c2.35,0.19,4.69,0.46,7.02,0.76c0.39,0.05,0.73,0.4,1.1,0.61c-0.38,0.33-0.74,0.69-1.15,0.99c-0.16,0.12-0.44,0.19-0.62,0.14
		c-3.41-1.01-6.68,1.11-10.08,0.45c-0.42-0.08-1,0.11-1.27-0.11c-2.19-1.78-3.46-0.04-4.84,1.22c-2.22,2.03-4.4,4.08-6.6,6.12
		c-0.16,0.14-0.32,0.36-0.5,0.38c-3.82,0.5-5.89,3.7-8.78,5.63c-3.47,2.33-6.96,4.61-10.54,6.77c-2.93,1.77-6.09,3.15-8.97,4.99
		c-3.61,2.31-7.03,4.93-10.55,7.38c-1.59,1.1-3.24,2.11-4.86,3.17c-3.06,1.99-6.08,4.05-9.2,5.95c-3.48,2.12-7.08,4.04-10.57,6.14
		c-3.68,2.22-7.2,4.7-10.95,6.78c-3.81,2.11-6.36,5.71-9.99,7.98c-1.35,0.84-2.75,1.61-4.06,2.52c-0.86,0.6-1.69,1.31-2.34,2.13
		c-1.2,1.5-2.33,3.07-3.38,4.68c-2.56,3.92-4.39,8.13-4.72,12.87c-0.12,1.61-0.02,3.24-0.16,4.84c-0.07,0.77-0.32,1.63-0.77,2.23
		c-0.93,1.25-1.32,1.15-1.8-0.43c-1.39-4.64-1.54-9.25,0.05-13.93c2.11-6.21,5.87-11.54,10.79-15.43
		c7.47-5.91,14.66-12.3,23.1-16.94c4.6-2.53,9.05-5.34,13.55-8.07c4.12-2.5,8.24-4.99,12.28-7.61c1.97-1.28,3.65-3.03,5.65-4.24
		c5.42-3.27,10.98-6.32,16.42-9.56c2.77-1.65,5.42-3.51,8.11-5.29c2.49-1.65,4.82-3.63,7.48-4.94c6.17-3.03,9.61-8.41,12.73-14.08
		c0.7-1.27,1.01-2.26,2.76-1.6c1.26,0.48,1.93-0.04,1.94-1.57c0.02-2.01-0.05-3.68-2.13-4.93c-1.27-0.77-2.1-2.36-2.95-3.71
		c-0.3-0.48-0.09-1.31-0.02-1.97c0.04-0.4,0.39-0.8,0.34-1.16c-0.17-1.25-0.1-2.78-0.81-3.6c-0.45-0.52-2.15,0.19-3.27,0.09
		c-3.95-0.32-7.94-0.53-11.83-1.2c-4.96-0.86-9.87-2.02-14.74-3.3c-2.26-0.59-4.51-1.52-6.5-2.74c-1.55-0.95-3.16-2.23-3.18-4.51
		c0-0.49-0.64-1.03-1.08-1.44c-2.89-2.69-4.48-5.95-4.79-9.91c-0.35-4.4-0.76-8.76-0.17-13.2c0.64-4.89,1.95-9.45,4.74-13.56
		c0.47-0.7,0.88-1.52,1.03-2.34c0.89-4.72,3.13-8.89,5.22-13.14c1.23-2.5,2.27-5.09,3.58-7.54c0.69-1.28,1.69-2.43,2.7-3.49
		c2.01-2.1,2.11-3.32,0.21-5.51c-0.42-0.48-0.97-0.92-1.17-1.48c-0.12-0.35,0.2-1.21,0.48-1.29c1.38-0.38,2.8-0.58,4.21-0.85
		L154.74,299.07z M178.62,359.81c0.86-0.17,1.28-0.3,1.71-0.34c3.62-0.31,3.16-0.68,3.36-3.7c0.19-2.87,0.67-5.73,1.14-8.58
		c0.6-3.71,1.35-7.39,1.96-11.09c0.42-2.54,0.72-5.09,1.03-7.65c0.1-0.83,0.07-1.67,0.09-2.51c-0.66,0.48-1.43,0.87-1.97,1.47
		c-0.85,0.95-1.51,2.07-2.32,3.06c-0.81,0.99-1.64,1.97-2.58,2.83c-0.41,0.38-1.16,0.7-1.67,0.61c-3.56-0.63-7.1-1.33-10.63-2.11
		c-1.26-0.28-1.74,0.12-2.01,1.32c-0.66,2.92-1.47,5.8-2.13,8.72c-0.2,0.91-0.25,1.9-0.11,2.82c0.19,1.24,0.63,2.45,0.94,3.67
		c0.56,2.21,1.13,4.3,3.75,5.17c1.11,0.37,2.35,1.38,2.84,2.42C173.49,359.05,176.91,358.16,178.62,359.81z"/>
	<path class="st14" d="M268.31,545.02c3.94-0.66,8.25-1.51,12.6-2.08c5.41-0.71,10.86-1.17,16.09-2.86
		c0.44-0.14,0.97,0.02,1.46,0.04c-0.19,0.55-0.23,1.3-0.62,1.61c-0.62,0.49-1.47,0.92-2.23,0.94c-1.97,0.04-3.68,0.63-5.51,1.35
		c-1.92,0.76-4.18,0.73-6.3,0.85c-1.52,0.09-2.84,0.48-4.28,1.05c-2.13,0.84-4.55,1.03-6.87,1.28c-2.64,0.28-5.31,0.31-7.96,0.49
		c-0.4,0.03-0.77,0.28-1.16,0.43c0.25,0.29,0.45,0.66,0.77,0.85c2.42,1.41,4.85,2.79,7.29,4.15c3.09,1.73,6.09,3.69,9.32,5.09
		c2.34,1.01,4.7,1.9,6.77,3.41c0.51,0.37,1.11,0.66,1.54,1.11c2.08,2.2,1.36,4.99-1.55,5.76c-1.12,0.3-2.37,0.36-3.51,0.19
		c-2.31-0.33-4.58-0.91-6.87-1.36c-0.41-0.08-0.88-0.16-1.26-0.04c-5.21,1.55-10.42,0.34-15.59-0.12c-2.07-0.18-4.09-1.27-6.07-2.11
		c-3.35-1.43-6.63-3.02-9.95-4.5c-0.78-0.35-1.63-0.79-2.44-0.79c-3.53-0.02-6.27-1.89-9.2-3.48c-4.39-2.39-8.85-4.66-13.4-6.71
		c-1.75-0.79-3.86-0.79-5.79-1.18c-1.36-0.28-2.9-0.28-4.01-0.97c-2.87-1.78-5.89-2-9.15-2.03c-2.84-0.03-5.78,0.25-8.56-0.82
		c-0.56-0.21-1.27,0.03-1.91-0.03c-1.25-0.14-2.5-0.33-3.75-0.54c-0.42-0.07-0.85-0.42-1.22-0.36c-2.77,0.47-5.24-0.84-7.77-1.47
		c-3.63-0.91-7.21-0.74-10.86-0.68c-2.29,0.04-4.59-0.55-6.89-0.86c-0.74-0.1-1.48-0.3-2.22-0.33c-3.09-0.09-6.18-0.01-9.26-0.22
		c-2.86-0.2-5.7-0.7-8.55-1.03c-0.74-0.09-1.5,0.01-2.24-0.09c-0.94-0.13-1.92-0.26-2.78-0.62c-0.99-0.42-2.1-1.14-1.74-2.39
		c0.43-1.49,1.74-0.75,2.74-0.67c7.3,0.57,14.59,1.14,21.89,1.72c2.24,0.18,4.47,0.41,6.71,0.55c0.34,0.02,0.71-0.32,1.06-0.49
		c-0.34-0.1-0.89-0.1-0.98-0.31c-0.23-0.5-0.5-1.24-0.29-1.63c1.11-2.08,2.27-4.14,3.59-6.08c1.33-1.95,2.78-3.84,4.35-5.61
		c2.57-2.88,5.2-5.7,7.94-8.42c1.9-1.88,4-3.54,6.06-5.26c0.96-0.8,0.95-1.13-0.31-1.59c-5.44-2.01-10.83-4.18-16.28-6.16
		c-1.59-0.58-3.37-0.64-4.99-1.14c-3.69-1.14-7.31-2.49-11.01-3.6c-8.12-2.45-16.28-4.76-24.75-5.75c-1.29-0.15-2.54-0.93-3.72-1.57
		c-0.31-0.17-0.54-0.99-0.4-1.34c0.15-0.38,0.8-0.8,1.21-0.78c1.17,0.04,2.34,0.3,3.51,0.44c0.3,0.04,0.61-0.05,0.91-0.08
		c-0.24-0.18-0.46-0.42-0.72-0.54c-1.77-0.8-3.42-1.61-4.59-3.37c-0.73-1.11-0.05-1.22,0.5-1.42c0.43-0.16,1.03-0.05,1.49,0.12
		c3.11,1.13,6.24,2.25,9.3,3.51c1.08,0.44,2.5,0.82,2.14,2.67c-0.05,0.24,1.16,0.9,1.86,1.1c5.07,1.41,10.18,2.69,15.25,4.13
		c1.95,0.56,3.8,1.49,5.73,2.12c1.72,0.56,3.55,0.82,5.26,1.42c4.15,1.45,8.22,3.13,12.39,4.5c2.33,0.77,4.8,1.45,7.22,1.53
		c2.66,0.08,4.72,1.35,6.67,2.66c1.57,1.06,3.02,1.97,4.91,2.05c0.32,0.01,0.65,0.04,0.96,0.09c3.2,0.52,4.37,2.39,3.25,5.36
		c-0.18,0.49-0.92,0.77-1.4,1.15c-0.27-0.43-0.68-0.82-0.8-1.28c-0.62-2.41-0.83-2.64-3.03-2.3c-1.59,0.25-3.16,0.61-4.73,0.98
		c-0.38,0.09-0.71,0.39-1.07,0.59c0.31,0.24,0.59,0.57,0.95,0.7c2.1,0.78,4.24,1.45,6.34,2.26c4.99,1.93,9.95,3.94,14.96,5.85
		c1.29,0.49,2.67,0.74,4.03,1.02c3.05,0.62,6.13,1.13,9.17,1.79c2.03,0.44,3.95,0.44,6.04,0.02c2.78-0.55,5.65-1.31,8.56-0.09
		c0.74,0.31,1.86-0.08,2.73-0.37c1.63-0.55,3.18-1.3,4.8-1.88c3.24-1.16,6.56-1.49,9.81-0.23c3.87,1.5,7.83,1.34,11.79,0.95
		c1.42-0.14,2.84-0.83,4.13-1.51c4-2.1,7.94-4.31,11.89-6.5c2.73-1.51,5.4-3.14,8.17-4.58c1.16-0.6,1.51-1.17,1.15-2.5
		c-0.39-1.45,0.61-3.23-1.17-4.42c-0.29-0.19-0.28-1.32-0.01-1.77c1.25-2.11,2.34-4.45,4.05-6.15c3.87-3.84,5.26-4.29,10.59-6.06
		c7.54-2.51,15-5.23,22.54-7.73c3.73-1.24,7.57-2.12,11.32-3.29c4.71-1.46,9.35-3.18,14.09-4.54c3.29-0.95,6.69-1.51,10.06-2.17
		c0.17-0.03,0.71,0.75,0.66,0.82c-0.52,0.66-1.03,1.46-1.75,1.82c-1.52,0.78-3.12,1.47-4.76,1.92c-2.33,0.63-4.75,0.96-7.11,1.53
		c-1.03,0.25-2.16,0.55-2.95,1.2c-1.36,1.12-2.61,1.19-4.15,0.51c-0.59-0.26-1.61-0.36-2.04-0.02c-2.9,2.29-6.07,3.81-9.79,4.1
		c-0.31,0.02-0.66,0.09-0.92,0.25c-4.09,2.6-8.99,3.12-13.29,5.25c-2.43,1.21-5.35,1.39-7.98,2.28c-3.13,1.06-6.18,2.37-9.26,3.58
		c-0.62,0.24-1.05,0.35-0.46,1.28c2.93,4.61,5.6,9.44,6.78,14.78c0.63,2.85,0.33,5.98,0.07,8.95c-0.39,4.49-1.06,8.97-1.73,13.43
		c-0.22,1.47-0.82,2.88-1.22,4.32c-0.11,0.39-0.1,0.8-0.15,1.2c0.39-0.02,0.78,0.03,1.16-0.06c4.19-0.95,8.37-1.93,12.56-2.89
		c7.75-1.78,15.48-3.62,22.74-7.01c2.22-1.04,4.67-1.57,7.02-2.33c4.39-1.42,8.78-2.88,13.19-4.25c5.52-1.72,11.07-3.38,16.6-5.05
		c4.42-1.34,8.96-2.4,13.25-4.07c3.95-1.54,7.65-3.73,11.45-5.66c2.18-1.11,4.32-2.33,6.5-3.43c0.65-0.33,1.41-0.48,2.14-0.62
		c0.59-0.11,1.14-0.03,0.65,0.81c-0.59,1.01-1.16,2.04-1.78,3.04c-0.46,0.73-0.92,1.15-2.04,1.09c-1.15-0.05-2.64,0.45-3.45,1.24
		c-2.73,2.66-6.02,4.21-9.37,5.88c-4.5,2.24-9.36,3.02-14.1,4.25c-3.8,0.99-7.42,2.99-11.19,3.29c-2.99,0.24-5.4,1.29-7.99,2.3
		c-2.83,1.11-6.02,1.15-8.61,2.98c-0.4,0.28-1.05,0.43-1.53,0.35c-2.67-0.47-5.41,0.23-7.4,1.45c-2.34,1.43-4.83,1.84-7.24,2.72
		c-1.07,0.39-2.18,0.7-3.28,1.02c-0.52,0.15-1.22,0.08-1.54,0.41c-2.44,2.5-6.09,1.58-8.91,3.27c-1.82,1.08-4.29,1.16-6.5,1.47
		c-3.6,0.51-7.02,1.3-10.3,3.08c-1.79,0.97-4.18,0.92-6.31,1.1c-0.74,0.06-1.59-0.46-2.3-0.87c-0.85-0.48-1.43-1.04-0.01-1.7
		c1.77-0.83,2.62-2.29,3.03-4.26c1.55-7.48,2.93-14.98,3.54-22.59c0.16-1.94-0.63-4-1.17-5.95c-0.32-1.17-0.86-0.97-1.78-0.17
		c-3.19,2.82-6.52,5.43-10.57,7.06c-2.75,1.1-5.28,2.73-7.96,4.02c-2.89,1.39-5.9,2.54-8.73,4.04c-1.69,0.89-3.12,2.19-5.26,1.52
		c-0.39-0.12-1.05,0.25-1.45,0.57c-2.79,2.22-5.89,1.94-8.83,0.75c-4.88-1.98-9.39-1.28-13.92,0.97c-1,0.5-1.4,0.99-0.85,1.94
		c0.96,1.65,2,3.26,3.03,4.87c0.4,0.62,1.11,1.13,1.26,1.78c0.83,3.74,3.9,5.53,6.53,7.67c0.7,0.57,1.78,0.79,2.72,0.91
		C262.27,544.47,265.06,544.7,268.31,545.02z M170.99,530.74l-0.08,0.12c0,0,0.14-0.07,0.14-0.07c-1.11,0.99-2.26,1.94-3.31,2.99
		c-0.65,0.65-0.78,1.32,0.48,1.45c0.75,0.08,1.5,0.16,2.24,0.31c3.77,0.78,7.55,1.56,11.31,2.41c0.55,0.13,1.01,0.66,1.51,1.01
		c-0.54,0.13-1.07,0.33-1.61,0.37c-0.86,0.07-1.72,0.03-2.58,0.07c-0.19,0.01-0.37,0.14-0.55,0.21c0.19,0.18,0.37,0.5,0.58,0.52
		c2.78,0.2,5.56,0.39,8.35,0.52c2.11,0.1,4.28-0.15,6.34,0.2c5.81,0.99,11.59,2.14,17.36,3.36c2.6,0.55,5.28,1.12,7.67,2.24
		c5.04,2.35,9.87,5.15,14.87,7.6c2.01,0.98,4.18,1.82,6.36,2.21c3.42,0.61,6.67,1.61,9.84,3c3.04,1.34,6.09,2.77,9.28,3.61
		c4.64,1.23,9.5,1.68,14.11,3.01c4.13,1.2,8.08,0.47,12.11,0.02c0.32-0.04,0.65-0.11,0.93-0.26c0.9-0.49,1.01-1.6,0.1-2
		c-1.92-0.84-3.47-2.52-5.9-2.32c-1.08,0.09-2.31-0.49-3.33-1.03c-4.46-2.34-8.88-4.74-13.27-7.21c-1.3-0.73-2.5-1.66-3.65-2.63
		c-2.38-2.01-4.54-4.3-7.07-6.09c-2.52-1.78-4.24-3.97-5.06-6.86c-0.98-3.48-3.05-6.33-5.92-8.19c-2.26-1.46-4.82-4.54-8.03-1.19
		c-0.18,0.19-0.61,0.21-0.92,0.2c-3.62-0.11-7.25-0.22-10.87-0.4c-0.62-0.03-1.22-0.42-1.84-0.59c-0.61-0.17-1.26-0.44-1.86-0.37
		c-3.04,0.33-5.74-0.88-8.37-2.01c-5.7-2.45-11.28-5.16-17.27-6.86c-1.75-0.5-3.61-0.94-5.13-1.87c-1.65-1.02-2.75-0.74-3.97,0.48
		C179.49,521.22,174.27,525.07,170.99,530.74z M300.3,498.17c-0.7,0.69-1.28,1.12-1.69,1.69c-1.64,2.31-1.26,4.81-0.51,7.31
		c0.06,0.21,0.51,0.52,0.6,0.47c1.65-0.95,3.42-1.78,4.8-3.04c0.35-0.32-0.55-2.03-0.89-3.09c-0.19-0.61-0.29-1.29-0.63-1.79
		C301.59,499.17,300.97,498.78,300.3,498.17z M133.89,488.82c0.07-0.04,0.15-0.07,0.22-0.11c-0.14-0.01-0.28-0.02-0.42-0.03
		C133.75,488.72,133.82,488.77,133.89,488.82z"/>
	<path class="st14" d="M154.77,299.13c-0.26-2.15,0.53-4,1.59-5.78c0.72-1.19,1.52-2.35,2.1-3.6c2.17-4.71,5.97-7.99,9.52-11.59
		c3.23-3.27,6.94-5.99,9.98-9.48c2.44-2.79,5.55-4.99,8.31-7.51c3.72-3.39,7.42-6.8,11.07-10.26c0.91-0.87,1.68-1.05,2.32,0.07
		c0.48,0.84,0.65,1.02,1.62,0.4c1.11-0.71,2.55-0.93,3.88-1.24c1.74-0.41,3.59,0.1,5.3-1.07c1.06-0.72,2,0.33,2.39,1.44
		c0.48,1.38,1.12,1.45,2.4,0.82c2.78-1.38,5.65-2.59,8.53-3.77c4.52-1.86,8.8-4.08,11.85-8.03c1.02-1.32,1.71-2.91,2.47-4.41
		c1.35-2.68,2.2-5.75,4.04-8.02c4.34-5.35,3.53-10.98,1.78-16.81c-0.12-0.41-0.97-1-1.32-0.9c-5.46,1.47-9.82-1.66-14.4-3.53
		c-2.85-1.17-5.39-3.11-8.08-4.67c-1.02-0.59-2.16-0.99-3.15-1.62c-1.72-1.08-3.46-2.18-5.02-3.46c-0.68-0.56-1.52-1.82-1.31-2.41
		c0.71-1.98-0.55-3.02-1.49-4.27c-2.43-3.23-3.93-6.92-5.19-10.71c-0.65-1.96-0.31-3.08,0.8-3.31c1.16-0.24,2.56,0.92,2.64,2.66
		c0.17,3.73,1.6,6.85,3.9,9.69c0.6,0.74,1.26,1.64,1.37,2.53c0.49,4.19,3.63,5.8,6.86,7.33c1.94,0.92,4,1.59,5.88,2.6
		c1.07,0.57,2.59,0.63,2.91,2.46c0.11,0.61,1.78,0.99,2.78,1.37c1.8,0.67,3.66,1.2,5.44,1.9c2.28,0.9,4.6,0.94,7,0.69
		c1.13-0.12,2.3,0.01,3.44,0.1c1.41,0.11,2.5,0.34,0.52,1.62c-0.27,0.17-0.33,0.93-0.23,1.35c0.58,2.48,1.77,4.95,1.72,7.4
		c-0.05,2.69-0.98,5.45-1.96,8.02c-0.98,2.56-2.06,5.12-4.16,7.16c-1.15,1.12-1.82,2.71-1.85,4.64c-0.03,1.91-0.4,4.04-2.89,4.87
		c-1.28,0.43-2.4,1.36-2.85,2.88c-0.17,0.56-0.68,1.15-1.2,1.46c-1.98,1.15-3.96,2.36-6.07,3.22c-1.76,0.72-3.84,0.66-5.22,2.27
		c-0.07,0.08-0.19,0.16-0.28,0.15c-3.02-0.49-5.01,2-7.64,2.65c-0.62,0.15-1.26,0.31-1.82,0.61c-1.41,0.78-1.46,1.4-0.05,2.14
		c1.7,0.89,3.46,1.76,5.29,2.31c4.3,1.29,8.63,2.49,13.13,2.95c1.46,0.15,2.89,0.57,4.34,0.84c1.91,0.35,3.82,0.93,5.73,0.94
		c4.92,0.03,9.86-0.09,14.77-0.38c3.74-0.22,7.48-1.31,11.17-1.11c3.97,0.22,7.53-1.31,11.32-1.55c1.38-0.09,2.2-0.59,2.51-1.97
		c0.14-0.62,0.52-1.18,0.74-1.79c0.39-1.08,0.93-1.37,1.85-0.49c1.87,1.77,3.95,2.51,6.44,1.24c0.45-0.23,1.05-0.22,1.58-0.21
		c0.96,0.03,1.47,0.89,0.83,1.49c-4.2,3.94-8.44,7.84-12.7,11.71c-0.65,0.58-1.25,0.24-1.25-0.63c-0.01-1.29,0.12-2.58,0.15-3.88
		c0.03-1-0.27-1.67-1.5-1.49c-2.83,0.41-5.67,0.71-8.49,1.17c-2.92,0.49-5.72,1.16-8.81,0.7c-2.41-0.36-5,0.71-7.53,0.82
		c-4.5,0.18-9.03,0.29-13.52,0.05c-1.7-0.09-3.35-1.24-5.03-1.88c-1.07-0.41-2.14-0.87-3.25-1.12c-1.54-0.35-3.12-0.49-4.67-0.8
		c-2.91-0.59-5.84-1.11-8.69-1.89c-2.37-0.64-4.64-1.62-6.96-2.44c-2.61-0.91-5.23-1.79-7.84-2.72c-0.6-0.21-1.22-0.47-1.72-0.85
		c-0.63-0.48-1.24-1.62-1.68-1.54c-0.72,0.13-1.37,0.97-1.91,1.62c-2.69,3.19-6.3,5.32-9.18,8.4c-5.08,5.45-10.95,10.17-16.4,15.28
		c-2.34,2.19-4.49,4.59-6.68,6.94c-1.66,1.78-3.17,3.53-4.17,5.94c-0.81,1.97-3.19,3.29-4.87,4.9c-0.45,0.43-0.87,0.87-1.3,1.33
		C154.74,299.07,154.77,299.13,154.77,299.13z M286.76,263.06c-0.44-0.39-0.61-0.65-0.83-0.71c-0.97-0.28-1.41-0.9-1.35-1.89
		c-0.36,0.03-1.01-0.02-1.04,0.09c-0.5,2.02-0.93,4.05-1.33,6.09c-0.02,0.08,0.56,0.4,0.61,0.36
		C284.12,265.75,285.37,264.47,286.76,263.06z"/>
	<path class="st14" d="M207.72,149.87c-1.32,1.57-2.62,3.15-3.95,4.7c-0.23,0.26-0.56,0.44-0.84,0.66c0.03-0.31-0.02-0.65,0.09-0.92
		c1.14-2.87,2.23-5.76,3.5-8.57c1.06-2.35,2.33-4.6,3.48-6.91c0.12-0.24-0.01-0.59-0.02-0.9c-0.27,0.07-0.58,0.08-0.8,0.22
		c-1.32,0.88-2.48,2.2-4.29,1.88c-0.56-0.1-1.35-0.5-1.49-0.93c-0.13-0.39,0.37-1.3,0.81-1.5c5.03-2.3,7.71-7.1,11.52-10.69
		c0.66-0.62,0.99-1.62,1.39-2.49c0.87-1.9,0.79-2.09-1.21-1.71c-2.74,0.52-5.11-0.51-7.48-1.49c-7.32-3.04-11.68-8.5-14.02-16.1
		c-2-6.47-1.8-12.94-1.61-19.5c0.01-0.31-0.03-0.63-0.05-0.94c-0.26,0.27-0.68,0.5-0.76,0.82c-1,4.06-1.92,8.14-2.92,12.2
		c-1.76,7.18-2.14,14.46-1.59,21.79c0.37,4.86,2.03,9.41,3.69,13.93c0.56,1.52,1.74,2.41,3.22,2.97c0.19,0.07,0.38,0.55,0.32,0.76
		c-0.06,0.2-0.49,0.45-0.71,0.41c-1.59-0.31-3.03-0.71-4.15-2.16c-2.26-2.91-3.36-6.32-4.11-9.75c-2.54-11.52-2.28-22.94,1.26-34.34
		c1.66-5.36,3.28-10.68,6.02-15.59c2.1-3.77,4.65-7.18,8.18-9.77c0.51-0.38,0.95-0.89,1.31-1.42c2.68-3.94,6.88-6.1,10.52-8.92
		c0.61-0.47,1.57-0.5,2.37-0.74c-0.34,0.72-0.55,1.56-1.06,2.12c-1.08,1.18-2.35,2.2-3.5,3.32c-1.7,1.65-3.36,3.33-5.03,5.01
		c-0.38,0.38-0.66,0.91-1.1,1.18c-4.9,2.98-5.8,8.32-7.46,13.08c-1.77,5.09-2.26,10.55-1.88,15.88c0.52,7.28,2.6,14.23,8.07,19.5
		c2.89,2.79,6.65,4.36,10.46,5.56c0.91,0.29,2.32,0.14,3.06-0.4c2.12-1.55,1.64,0.22,1.82,1.23c-0.03-0.03-0.05-0.05-0.08-0.08
		c2-4.39,3.97-8.79,6.03-13.16c0.37-0.79,1.09-1.41,1.65-2.1c0.13,0.98,0.59,2.05,0.34,2.92c-1.16,4.13-2.46,8.22-3.83,12.29
		c-0.29,0.86-1.27,1.48-1.61,2.34c-0.5,1.24-3.07,2.55-0.12,3.96c0.14,0.07,0.13,0.83-0.04,1.14c-2.23,4.03-4.49,8.04-6.75,12.06
		c-0.26,0.47-0.59,0.92-0.76,1.42c-2.77,8.35-5.82,16.63-6.88,25.45c-0.05,0.42-0.17,0.84-0.3,1.24c-0.06,0.19-0.25,0.33-0.38,0.5
		c-0.16-0.18-0.41-0.34-0.48-0.56c-1-3.17-0.73-6.39-0.12-9.56c0.61-3.16,1.44-6.28,2.17-9.41c0.13-0.22,0.27-0.43,0.41-0.64
		c-0.13-0.03-0.25-0.06-0.38-0.09C207.69,149.33,207.71,149.6,207.72,149.87z M208.52,147.56l0.12-0.16l-0.17-0.03L208.52,147.56z"
		/>
	<path class="st14" d="M200.1,150.83c-1.61,0.99-2.87-0.4-4.27-0.68c-2.46-0.48-3.65-0.04-3.77,2.39c-0.12,2.53,0.25,5.12,0.69,7.63
		c0.47,2.62,1.26,5.19,1.96,7.77c0.36,1.34,0.69,2.72,1.31,3.94c0.41,0.8,1.31,1.35,2,2.01c0.22-0.84,0.45-1.69,0.67-2.53
		c0.03-0.1-0.01-0.25,0.05-0.31c0.66-0.77-0.26-2.47,1.27-2.51c0.32-0.01,0.83,1.79,0.99,2.79c0.65,4.02,1.29,8.05,1.73,12.1
		c0.25,2.22,0.36,4.52,0.11,6.73c-1.01,8.74-2.15,17.47-3.34,26.19c-0.15,1.07-0.89,2.05-1.35,3.07c-1.43-0.99-0.57-2.35-0.44-3.48
		c0.61-5.23,1.72-10.42,2-15.65c0.31-5.67-0.1-11.39-0.21-17.08c-0.01-0.64-0.18-1.28-0.21-1.92c-0.09-2.52-0.23-4.5-3.56-5.42
		c-2.59-0.71-4.19-3.51-4.83-6.42c-0.82-3.77-1.75-7.52-2.51-11.3c-0.22-1.1-0.75-1.65-1.69-2.11c-5.8-2.82-9.24-7.53-10.85-13.68
		c-0.89-3.41-2.07-6.77-2.6-10.24c-1.81-11.65,0.55-22.21,8.84-31.02c0.54-0.57,1.33-0.89,2.01-1.33c-0.13,0.81-0.23,1.63-0.42,2.43
		c-0.07,0.29-0.33,0.55-0.53,0.8c-5.33,6.8-6.58,14.93-6.53,23.1c0.03,5.93,1.01,12.05,3.62,17.51c1.62,3.38,2.95,7.2,6.53,9.33
		c0.98,0.58,1.51,0.7,1.56-0.7c0.02-0.52,0.3-1.02,0.47-1.53c1.14-3.28,3.72-4.55,6.83-3.04c1.6,0.78,2.93,2.12,4.37,3.21
		L200.1,150.83z"/>
	<path class="st14" d="M233.14,469.7c1.2,0,1.74,0.02,2.28,0c8.69-0.3,17.37-0.71,26.07-0.86c5.4-0.09,10.77,0.81,15.89,2.43
		c5.34,1.69,10.79,1.95,16.25,2.08c3.9,0.09,7.72,0.37,11.49,1.41c1.65,0.45,3.42,0.42,5.08,0.84c5.39,1.37,10.75,2.84,16.11,4.31
		c0.46,0.13,0.85,0.52,1.28,0.79c-0.43,0.4-0.81,0.93-1.31,1.15c-0.45,0.2-1.14,0.24-1.56,0.03c-2.24-1.12-4.62-0.72-6.96-0.75
		c-0.53-0.01-1.12,0.01-1.58-0.2c-4.37-2-9.14-2.23-13.76-3.09c-2.72-0.51-5.52-0.67-8.29-0.78c-6.02-0.24-11.94-0.89-17.66-3.01
		c-1.89-0.7-3.99-0.84-6-1.21c-0.52-0.09-1.09,0.02-1.61-0.1c-6.35-1.43-12.71-0.82-19.09-0.28c-1.14,0.1-2.32-0.35-3.49-0.36
		c-3.97-0.02-7.94,0.04-11.9,0.07c-1.78,0.01-3.56-0.02-5.34,0.05c-3.24,0.13-6.31,0.85-9.08,2.64c-0.09,0.06-0.2,0.09-0.3,0.12
		c-1,0.28-2.34,0.93-2.8-0.31c-0.53-1.44,1.15-1.46,2-1.97C223.51,469.96,228.56,469.36,233.14,469.7z"/>
	<path class="st14" d="M359.67,428.84c0.36,0.18,1.02,0.28,1.28,0.66c1.41,2.13,3.79,2.74,5.85,3.79c3.24,1.66,6.63,3.03,9.93,4.57
		c2.23,1.04,4.54,1.98,6.6,3.31c1.67,1.07,3.3,1.63,5.24,2.06c2.27,0.51,4.31,2.1,6.44,3.24c2.62,1.4,5.21,2.84,7.84,4.21
		c1.31,0.68,2.64,1.56,4.05,1.78c3.86,0.6,6.11,3.81,9.34,5.38c0.55,0.27,1.03,0.72,1.48,1.16c0.46,0.44,0.76,1.15,1.3,1.42
		c4,2.07,6.03,5.97,8.65,9.29c0.96,1.21,1.51,2.83,1.95,4.35c0.53,1.85,0.52,3.87,1.16,5.66c0.75,2.09-0.15,3.85-0.45,5.75
		c-0.43,2.64-0.36,5.41-1.16,7.91c-1.23,3.86-3.66,6.91-7.72,8.31c-1.83,0.63-3.63,1.34-5.46,1.97c-0.19,0.07-0.49-0.18-0.73-0.27
		c0.12-0.18,0.2-0.44,0.36-0.52c1.16-0.53,2.32-1.07,3.52-1.5c1.36-0.48,2.32-1.22,3.19-2.49c3.31-4.84,5.25-10.27,7.26-15.69
		c0.13-0.36,0.17-0.82,0.08-1.19c-1.26-4.78-2.7-9.5-5.82-13.47c-0.86-1.09-1.74-2.21-2.82-3.06c-3.2-2.53-6.41-5.08-9.81-7.34
		c-2.31-1.53-4.91-2.64-7.43-3.84c-6.21-2.95-12.5-5.73-18.66-8.79c-6.93-3.45-13.81-7.01-20.56-10.79
		c-2.08-1.16-3.66-3.2-5.45-4.87c-0.17-0.16-0.18-0.53-0.18-0.8C358.92,429,359.3,428.94,359.67,428.84z"/>
	<path class="st14" d="M311.58,396.28c1.6-0.07,2.92,0.47,4.01,1.68c1.72,1.92,3.49,3.79,5.26,5.67c0.51,0.54,1.03,1.11,1.65,1.49
		c2.72,1.65,4.68,4.29,7.66,5.65c1.2,0.54,1.96,1.98,3.1,2.72c2.72,1.75,4.7,4.44,8.11,5.38c2.73,0.75,5.24,2.38,7.73,3.83
		c1.92,1.12,3.66,2.55,5.47,3.86c0.26,0.19,0.57,0.42,0.65,0.69c0.1,0.35,0.09,0.8-0.05,1.13c-0.07,0.15-0.65,0.25-0.87,0.13
		c-1.85-1.07-3.92-1.92-5.44-3.36c-2.12-2.01-4.54-3.3-7.25-4.01c-3.21-0.85-5.85-2.54-8.41-4.57c-2.52-2-5.27-3.71-7.85-5.63
		c-1.19-0.89-2.29-1.94-3.33-3c-1.16-1.18-2.28-1.6-4.02-1.08c-2.66,0.79-5.43,1.21-8.18,1.67c-0.48,0.08-1.05-0.43-1.58-0.66
		c0.26-0.53,0.41-1.39,0.81-1.55c1.39-0.53,2.86-0.86,4.32-1.16c0.61-0.12,1.28,0.11,1.91,0.03c0.84-0.11,1.66-0.37,2.49-0.56
		c-0.58-0.57-1.18-1.14-1.74-1.73c-0.37-0.39-0.7-0.81-1.05-1.22c-1.56-1.8-3.53-2.45-5.35-1.09c-2.57,1.93-5.45,1.39-8.21,1.63
		c-1.59,0.14-3.2-0.23-4.65,0.82c-0.39,0.28-1.08,0.46-1.53,0.33c-3.45-1.06-6.35,0.44-9.44,1.61c-2.12,0.8-4.54,0.81-6.82,1.18
		c-1.54,0.24-3.26-0.38-4.58,0.97c-0.06,0.06-0.21,0.05-0.31,0.03c-2.45-0.44-4.83-0.97-7.42-0.41c-1.58,0.34-3.38-0.29-5.07-0.52
		c-0.36-0.05-0.69-0.29-1.04-0.44c0.3-0.27,0.57-0.72,0.91-0.77c1.91-0.29,3.83-0.47,5.74-0.72c5.09-0.67,10.21-1.19,15.26-2.07
		c8.74-1.53,17.44-3.27,26.15-4.97c1.04-0.2,2.03-0.67,3.05-1.02C311.69,396.23,311.58,396.28,311.58,396.28z"/>
	<path class="st14" d="M277.98,31.69c-0.44,4.31-1.95,8.53-3.89,12.61c-0.35,0.74-1.08,1.3-1.67,1.91c-0.74,0.77-1.7,1.39-2.26,2.27
		c-1.52,2.38-3.1,4.66-5.46,6.31c-0.24,0.17-0.33,0.54-0.49,0.81c0.31,0.03,0.65,0.14,0.93,0.06c5.84-1.67,10.99-4.39,14.3-9.76
		c1.24-2.01,2.3-4.12,3.49-6.17c0.19-0.33,0.6-0.55,0.9-0.81c0.23,0.44,0.48,0.86,0.67,1.32c0.08,0.19,0.12,0.47,0.03,0.63
		c-1.81,3.71-2.7,7.96-5.86,10.9c-4,3.73-8.61,6.4-14.08,7.34c-1.1,0.19-1.28,0.96-1.39,1.87c-0.27,2.11-1.01,3.9-3.07,5
		c-0.79,0.43-1.24,1.45-1.93,2.12c-1.3,1.27-2.57,2.6-4.02,3.68c-0.94,0.7-2.27,2.18-3.33,0.76c-1.16-1.55,0.73-2.37,1.67-3.27
		c1.63-1.56,3.33-3.05,4.94-4.62c0.85-0.82,1.62-1.73,2.36-2.65c0.53-0.66,1.16-1.36,1.34-2.14c0.07-0.3-1.12-0.77-1.51-1.32
		c-0.28-0.4-0.45-1.23-0.22-1.58c1.16-1.76,2.4-3.49,3.74-5.12c2.52-3.07,5.46-5.86,7.64-9.15c4.96-7.5,5.17-16.43-1.07-24.96
		c-0.64-0.87-1.33-1.7-1.92-2.59c-0.21-0.31-0.21-0.75-0.31-1.14c0.5-0.03,1.01-0.12,1.5-0.05c0.29,0.04,0.55,0.32,0.8,0.52
		C274.22,17.96,278.05,25.91,277.98,31.69z"/>
	<path class="st14" d="M246.01,92.4c-0.29,0.36-0.57,0.57-0.68,0.85c-1.34,3.25-2.61,6.54-3.98,9.78
		c-2.57,6.07-5.69,11.78-10.6,16.33c-0.86,0.8-1.54,1.78-2.37,2.6c-0.22,0.21-0.72,0.13-1.1,0.18c0.01-0.3-0.08-0.65,0.05-0.88
		c0.91-1.57,1.82-3.16,2.82-4.67c5.2-7.82,9.9-15.87,12.39-25.03c0.31-1.15,0.37-2.18,0.25-3.4c-0.19-1.98,0.2-4.02,0.43-6.02
		c0.03-0.31,0.53-0.81,0.76-0.79c0.34,0.03,0.79,0.41,0.93,0.74c0.36,0.89,0.79,1.84,0.8,2.77c0.02,3.15,1.69,5.48,3.52,7.77
		c0.6,0.76,1.33,1.44,1.8,2.28c2.6,4.66,5.13,9.36,7.68,14.05c0.15,0.28,0.24,0.62,0.45,0.84c2.82,3.05,5.65,6.09,8.49,9.13
		c0.15,0.16,0.37,0.28,0.45,0.46c1.6,3.91,5.6,5.8,7.8,9.25c1.19,1.87,3.07,3.28,4.49,5.01c0.55,0.67,0.71,1.65,1.04,2.49
		c-0.78-0.44-1.68-0.75-2.31-1.35c-4.64-4.5-9.27-8.99-13.8-13.6c-6.33-6.43-11.05-13.99-15.14-21.98c-1.03-2.01-2.19-3.94-3.32-5.9
		C246.66,92.99,246.33,92.74,246.01,92.4z"/>
	<path class="st14" d="M264.81,0.28c3.38-1.17,6.08,1.56,9.2,2.77c1.26,0.49,2.42,1.23,3.64,1.83c0.38,0.19,0.86,0.22,1.19,0.46
		c3.97,2.81,7.78,5.64,8.59,11.04c0.42,2.84,1.72,5.54,2.39,8.35c1.49,6.22,0.9,12.15-2.93,17.49c-0.28,0.39-0.8,0.6-1.21,0.9
		c-0.02-0.5-0.19-1.06-0.04-1.5c1.04-3.07,2.13-6.22,1.48-9.45c-1.04-5.1-0.88-10.48-3.73-15.22c-1.07-1.77-1.44-3.94-3.07-5.49
		c-1.57-1.5-3.17-2.8-5.25-3.62c-2.38-0.94-4.6-2.29-6.87-3.49c-2.98-1.57-8.35-1.02-10.91,1.09c-3.54,2.92-7.09,5.82-10.67,8.69
		c-0.35,0.28-1.26,0.47-1.37,0.31c-0.3-0.43-0.58-1.18-0.4-1.58c0.48-1.06,1.03-2.2,1.87-2.95c3.12-2.8,6.3-5.53,9.58-8.13
		C258.67-0.11,261.57,0.14,264.81,0.28z"/>
	<path class="st14" d="M222.89,53.69c-0.38,0.72-0.6,1.6-1.16,2.12c-6.21,5.8-8.94,13.3-10.19,21.39c-0.34,2.21,0.33,4.67,0.95,6.9
		c1.12,4.06,3.89,7.13,6.82,9.98c2.31,2.24,4.38,2.13,6.83,0.01c2.93-2.54,4.37-6.05,6-9.41c0.75-1.54,1.33-3.17,2.03-4.74
		c0.11-0.25,0.55-0.62,0.63-0.57c0.31,0.18,0.75,0.5,0.77,0.78c0.07,1.26,0.4,2.72-0.09,3.75c-1.8,3.76-3.3,7.91-6.01,10.92
		c-4.24,4.69-9.29,6.35-14.23,0.5c-0.69-0.82-1.67-1.46-2.18-2.37c-1.79-3.18-3.87-6.3-4.97-9.72c-0.77-2.41-0.54-5.37-0.02-7.93
		c0.7-3.44,1.92-6.83,3.27-10.09c1.58-3.81,4.18-7.04,7.34-9.67c1.14-0.95,2.85-1.2,4.3-1.77L222.89,53.69z"/>
	<path class="st14" d="M222.99,53.77c-0.68-1.01-1.29-2.07-2.05-3.01c-4.11-5.08-6.57-10.69-4.89-17.32
		c1.14-4.48,4.5-7.53,7.94-10.31c1.37-1.11,3.17-1.69,4.82-2.42c0.28-0.12,0.76,0.21,1.15,0.34c-0.12,0.27-0.18,0.6-0.38,0.8
		c-0.86,0.89-1.67,1.88-2.66,2.6c-3.82,2.74-6.38,6.21-7.26,10.95c-0.7,3.78,0.53,6.96,2.31,10.1c2.5,4.42,6.26,7.58,10.39,10.34
		c0.93,0.62,1.18,0.95,0.39,1.9c-3.09,3.69-2.6,10.16,0.93,13.58c0.31,0.3,0.58,0.64,0.82,0.99c0.11,0.16,0.19,0.56,0.15,0.58
		c-0.26,0.12-0.59,0.29-0.84,0.23c-2.4-0.57-4-2.06-4.73-4.4c-0.93-2.96-1.05-5.98,0.06-8.88c0.51-1.32,0.19-2.04-0.81-2.69
		c-1.79-1.17-3.61-2.3-5.42-3.45C222.89,53.69,222.99,53.77,222.99,53.77z"/>
	<path class="st14" d="M129.92,538.32c-7.28-1-14.29-1.41-20.71-4.55c-3.17-1.55-6.33-3.19-9.65-4.33
		c-7.52-2.59-13.43-7.6-19.21-12.68c-2.73-2.4-5.4-5.31-6.31-9.16c-0.12-0.5,0.17-1.1,0.28-1.66c0.52,0.29,1.2,0.45,1.53,0.89
		c1.11,1.45,1.98,3.08,3.15,4.47c1.5,1.77,3.12,3.48,4.86,5.01c2.17,1.9,4.56,3.54,6.78,5.38c3.2,2.65,7,4.1,10.79,5.62
		c2.48,1,4.82,2.32,7.24,3.46c4.23,1.99,8.82,2.63,13.34,3.59c2.7,0.57,5.31,1.63,7.94,2.52c0.34,0.12,0.58,0.54,0.86,0.83
		C130.43,537.97,130.04,538.23,129.92,538.32z"/>
	<path class="st14" d="M264.71,95.87c-3.83-0.21-6.87-2.56-9.59-5.39c-0.44-0.46-0.64-1.74-0.32-2.22c0.66-1,1.82-0.98,2.84-0.27
		c1.3,0.91,2.5,2,3.89,2.75c4.73,2.54,8.31,2,12.23-1.62c2.09-1.93,3.62-4.22,4.7-6.85c1.79-4.4,3.07-8.92,3.67-13.63
		c0.06-0.44,0.36-0.85,0.55-1.28c0.22,0.44,0.49,0.87,0.65,1.33c1.48,4.16,0.68,8.16-0.86,12.11c-1.6,4.09-3.1,8.09-6.83,11.03
		C272.43,94.36,269.01,95.6,264.71,95.87z"/>
	<path class="st14" d="M207.61,477.37c-0.95,0.81-1.5,1.65-2.14,1.73c-1.73,0.21-3.02,0.98-4.18,2.19
		c-0.35,0.37-0.89,0.58-1.38,0.78c-2.75,1.12-5.55,2.12-8.24,3.36c-2.31,1.07-4.45,2.51-6.75,3.62c-3.45,1.65-7,3.1-10.45,4.74
		c-0.93,0.44-1.64,1.34-2.53,1.9c-0.69,0.43-1.54,0.94-2.27,0.88c-0.73-0.06-1.4-0.79-2.1-1.22c0.45-0.53,0.8-1.21,1.36-1.58
		c5.51-3.61,11.63-6.02,17.6-8.73c5.18-2.35,10.31-4.83,15.5-7.16c1.26-0.56,2.67-0.79,4.03-1.09
		C206.34,476.73,206.72,477.03,207.61,477.37z"/>
	<path class="st14" d="M256.33,196.53c-2-0.18-3.8-0.13-5.43-1.74c-0.79-0.79-2.44-0.65-3.62-1.12c-1.57-0.63-3.09-1.41-4.55-2.25
		c-0.33-0.19-0.62-1.15-0.47-1.31c0.38-0.4,1.03-0.54,1.57-0.77c0.09-0.04,0.23-0.01,0.31,0.04c4.6,2.73,9.41,0.95,14.15,0.68
		c0.75-0.04,1.55-0.24,2.24-0.06c1.74,0.44,3.16-0.09,4.54-1.07c0.52-0.37,1.12-0.63,1.69-0.95c0.93-0.53,2.05-1.34,2.82-0.18
		c0.37,0.56,0.08,1.9-0.38,2.57c-0.6,0.89-1.57,1.67-2.54,2.15c-1.75,0.86-3.66,1.06-5.2,2.75
		C260.47,196.35,258.09,196.15,256.33,196.53z"/>
	<path class="st14" d="M245.77,53.95c-0.69-1.29-1.31-2.63-2.09-3.87c-1.42-2.24-2.23-4.66-2.3-7.29c-0.1-3.86-0.52-7.76,0.72-11.54
		c0.14-0.43,0.5-0.8,0.76-1.19c0.12,0.49,0.33,0.98,0.35,1.47c0.06,1.29-0.08,2.6,0.06,3.88c0.38,3.6,0.46,7.3,1.41,10.75
		c1.38,5.03,5.24,7.97,10.05,9.7c0.3,0.11,0.74,0.01,0.93,0.19c0.55,0.53,1.47,1.21,1.41,1.75c-0.13,1.25-1.17,0.88-2.01,0.59
		c-0.39-0.14-1.08-0.41-1.17-0.29c-1.61,2.25-2.82,0.16-4.3-0.21c-2.37-0.6-4.87-0.68-7.31-1.01c-2.27-0.3-4.53-0.63-6.79-0.97
		c-0.17-0.03-0.32-0.22-0.48-0.34c0.22-0.15,0.44-0.39,0.68-0.42c1.92-0.22,3.84-0.37,5.76-0.6c1.47-0.18,2.94-0.45,4.41-0.68
		c0.03,0.02,0.06,0.03,0.09,0.05C245.87,53.94,245.82,53.95,245.77,53.95z"/>
	<path class="st14" d="M281.04,157.02c-3,0.15-6,0.38-9,0.43c-2.29,0.04-4.46-0.62-6.34-1.96c-0.44-0.32-1-1.22-0.85-1.47
		c0.33-0.54,1.03-0.93,1.65-1.2c0.34-0.15,0.86-0.01,1.26,0.13c4.47,1.6,8.95,0.15,13.42-0.02c1.14-0.04,2.24-1.13,3.35-1.75
		c2.08-1.16,6.47,1.39,6.38,3.78c-0.02,0.42-0.74,1.13-1.16,1.14c-0.68,0.02-1.44-0.33-2.06-0.69c-1.11-0.66-1.9-1.16-1.41,0.85
		c0.13,0.52-0.06,1.57-0.34,1.66c-0.62,0.21-1.44,0.09-2.09-0.13c-0.91-0.31-1.75-0.85-2.62-1.29
		C281.17,156.68,281.1,156.85,281.04,157.02z"/>
	<path class="st14" d="M228.88,154.86c-1.04-0.27-1.69-0.65-2.26-0.54c-0.97,0.19-2.25,0.43-2.75,1.11
		c-0.86,1.2-1.95,1.63-3.21,1.88c-1.84,0.37-2.23,0.07-2.18-2.01c0.03-1.28-0.84-1.22-1.44-1.01c-1.2,0.41-2.28,1.15-3.46,1.61
		c-0.39,0.15-1.14,0.03-1.38-0.26c-0.25-0.3-0.29-1.09-0.07-1.42c0.71-1.03,0.88-1.98,0.69-3.26c-0.21-1.41,0.89-1.91,2.75-1.51
		c2.71,0.59,5.42,1.19,8.14,1.77c4.02,0.86,8.05,1.05,12.07-0.01c0.21-0.05,0.43-0.14,0.63-0.11c0.77,0.1,1.54,0.23,2.32,0.36
		c-0.62,0.48-1.18,1.2-1.88,1.4C234.1,153.65,231.29,154.27,228.88,154.86z"/>
	<path class="st14" d="M226.67,35.18c0.74-2.09,1.41-4.21,2.26-6.26c0.24-0.58,0.98-0.95,1.49-1.41c0.13,0.65,0.5,1.36,0.36,1.95
		c-0.73,3-0.59,5.95,0.18,8.9c0.19,0.72,0.18,1.6,0.61,2.14c2.53,3.24,4.15,7.31,8.19,9.21c0.29,0.13,0.66,0.29,0.78,0.53
		c0.26,0.56,0.38,1.19,0.56,1.79c-0.58,0.11-1.25,0.46-1.73,0.28c-1.4-0.51-2.87-1.04-4.05-1.91
		C230.25,46.68,226.83,41.97,226.67,35.18z"/>
	<path class="st14" d="M251.79,26.19c-0.77-0.72-1.54-1.45-2.31-2.17c-1.24-1.18-2.45-2.4-3.74-3.53c-0.83-0.72-1.04-1.5-0.1-2.08
		c0.46-0.29,1.42-0.23,1.92,0.07c1.19,0.69,2.24,1.62,3.36,2.44c1.8,1.32,4.13,2.27,5.32,4c2.76,4,5.93,8.08,3.5,13.59
		c-0.9,2.04-1.32,4.3-2.01,6.45c-0.12,0.36-0.49,0.64-0.75,0.95c-0.23-0.34-0.7-0.72-0.65-1.02c0.27-1.78,0.24-3.8,1.1-5.27
		c2.08-3.51,1.01-6.48-1.09-9.23c-1.27-1.66-3.09-2.89-4.66-4.31L251.79,26.19z"/>
	<path class="st14" d="M251.68,26.08c0.36,4.13,0.79,8.26,1.06,12.4c0.17,2.47,0.12,4.95,0.13,7.42c0,0.52-0.1,1.1-0.34,1.55
		c-0.23,0.43-0.71,0.72-1.09,1.07c-0.32-0.47-0.87-0.93-0.92-1.43c-0.36-3.85-0.61-7.71-0.92-11.57c-0.05-0.6-0.21-1.2-0.31-1.8
		c-0.3,0.62-0.6,1.23-0.89,1.85c-0.04,0.09,0.02,0.24-0.03,0.32c-0.16,0.25-0.32,0.65-0.52,0.67c-0.22,0.02-0.57-0.25-0.71-0.49
		c-1.27-2.04-0.6-7.97,1.32-9.41c0.78-0.59,2.21-0.33,3.34-0.46C251.79,26.19,251.68,26.08,251.68,26.08z"/>
	<path class="st14" d="M254.33,177.35c-5.83-0.1-6.58-1.09-5.76-6.3c0.71-4.54,1.17-9.11,1.79-13.67c0.06-0.43,0.4-0.82,0.6-1.23
		c0.28,0.31,0.66,0.57,0.81,0.93c0.2,0.48,0.32,1.03,0.32,1.55c0.03,2.98,0.07,5.95-0.02,8.93c-0.05,1.58-0.33,3.15-0.57,4.72
		c-0.33,2.17,0.57,3.26,2.65,2.59c1.45-0.46,3.7,0.27,4.25-2.12c0.01-0.06,0.62-0.13,0.75,0c1.23,1.3,0.79,3.48-0.87,3.93
		C256.85,177.08,255.34,177.19,254.33,177.35z"/>
	<path class="st14" d="M221.34,317.91c0.12-1.61,0.19-3.22,0.36-4.82c0.24-2.24,2-3.34,4.19-2.53c1.1,0.41,2.08,1.12,3.13,1.67
		c1.88,0.98,3.78,1.92,5.65,2.93c0.51,0.27,1.31,0.75,1.29,1.09c-0.04,0.51-0.59,1.23-1.08,1.4c-1.42,0.48-2.91,0.74-4.38,1.05
		c-2.11,0.45-4.25,0.74-6.32,1.32C221.48,320.78,221.21,320.66,221.34,317.91z M225.26,318.11c0.32-0.05,0.64-0.08,0.95-0.15
		c1.24-0.28,2.5-0.54,3.72-0.9c0.23-0.07,0.5-0.83,0.44-0.88c-1.48-1.15-3.01-2.24-4.53-3.34c-0.48,1.12-0.96,2.23-1.43,3.35
		c-0.08,0.2-0.11,0.42-0.18,0.62C223.87,317.81,224.29,318.18,225.26,318.11z"/>
	<path class="st14" d="M252.55,77.22c6.43,0.35,9.94-3.5,12.62-8.47c0.81-1.49,1.32-3.15,1.99-4.72c0.11-0.25,0.36-0.44,0.55-0.65
		c0.18,0.22,0.47,0.43,0.52,0.67c0.56,3.03,0.68,5.94-1.78,8.39c-1.21,1.2-2.03,2.8-3.27,3.96c-2.95,2.75-6.4,4.24-10.55,3.37
		c-0.42-0.09-0.92-0.11-1.22-0.35c-0.61-0.5-1.11-1.14-1.65-1.73c0.75-0.18,1.5-0.38,2.26-0.54
		C252.23,77.12,252.45,77.21,252.55,77.22z"/>
	<path class="st14" d="M233.39,139.52c-3.3,0.4-6.6,0.8-9.9,1.18c-0.38,0.04-0.78-0.08-1.17-0.13c0.33-0.18,0.64-0.41,0.99-0.52
		c4.07-1.32,8.09-2.89,12.51-2.38c1.11,0.13,1.82-0.25,2-1.5c0.14-0.97-0.08-1.54-1.1-1.41c-2.13,0.26-4.24,0.64-6.37,0.91
		c-1.25,0.16-2.51,0.2-3.76,0.29c1.08-0.77,2.06-1.81,3.26-2.26c2.61-0.97,5.3-1.82,8.18-1.16c2.81,0.64,4.33,3.9,2.38,5.88
		c-1.03,1.05-3.1,1.13-4.73,1.51c-0.71,0.16-1.5-0.03-2.25-0.07C233.41,139.75,233.4,139.63,233.39,139.52z"/>
	<path class="st14" d="M243.96,296.57c-4.25-0.49-7.68-1.15-10.83-2.97c-1.16-0.67-1.36-1.3-1.07-2.57
		c0.63-2.75,1.78-4.84,4.57-6.08c2.21-0.98,2.12-1.27,3.19,0.67c1.6,2.9,3.2,5.81,4.73,8.75
		C245.31,295.82,244.78,296.61,243.96,296.57z M240.38,294.74c2.16,0.07,2.39-0.24,1.37-2.05c-0.95-1.68-2.01-3.29-2.99-4.94
		c-0.5-0.84-1.23-0.66-1.48-0.06c-0.69,1.63-1.83,3.49-1.52,4.99c0.33,1.58,2.52,2.02,4.3,2.05
		C240.16,294.72,240.27,294.73,240.38,294.74z"/>
	<path class="st14" d="M260.51,284.07c0,0.31,0.06,0.64-0.01,0.93c-0.13,0.54-0.33,1.07-0.5,1.6c-0.42-0.22-0.89-0.38-1.27-0.66
		c-2.65-1.99-5.25-4.05-7.94-5.98c-1.39-0.99-1.41-2.05-0.52-3.27c0.63-0.86,1.37-1.64,2.1-2.42c2.4-2.55,3.37-2.52,5.22,0.51
		C259.3,277.62,260.83,280.57,260.51,284.07z M258.92,282.5c-0.16-0.32-0.37-0.93-0.73-1.42c-1.14-1.53-2.35-3.02-3.52-4.53
		c-0.5-0.64-1.03-1.25-1.74-0.31c-0.57,0.75-2.07,1.43-0.7,2.57c1.88,1.57,3.9,2.97,5.88,4.41c0.2,0.15,0.54,0.1,0.82,0.14
		C258.92,283.18,258.92,282.98,258.92,282.5z"/>
	<path class="st14" d="M249.42,411.28c9.98,0.86,19.97,0.78,29.97,0.28c0.36-0.02,0.74,0.25,1.11,0.38
		c-0.28,0.26-0.51,0.65-0.83,0.75c-1.9,0.56-4,0.46-5.7,1.76c-0.26,0.2-0.86,0.11-1.25-0.02c-3.06-0.95-6.15-0.34-9.24-0.3
		c-4.34,0.06-8.69-0.23-13.02-0.48c-0.93-0.05-1.86-0.52-2.74-0.91c-0.4-0.18-0.67-0.65-0.99-0.99c0.47-0.16,0.93-0.37,1.41-0.46
		C248.54,411.22,248.99,411.28,249.42,411.28z"/>
	<path class="st14" d="M214.87,168.73c0.14,0.29,0.46,0.62,0.4,0.85c-0.66,2.71-0.4,3.9,1.83,4.32c3.14,0.6,6.38,0.78,9.59,0.82
		c1.45,0.02,2.92-0.67,4.35-1.14c0.7-0.23,1.51-0.56,1.94-1.11c0.75-0.96,1.69-2.12,1.69-3.2c0-0.62-1.65-1.66-2.64-1.76
		c-1.87-0.2-3.85-0.08-5.69,0.32c-1.43,0.31-2.73,1.21-4.07,1.9c-0.15,0.08-0.1,0.52-0.14,0.79c1.55,0.23,3.09,0.5,4.64,0.66
		c0.21,0.02,0.7-0.52,0.68-0.77c-0.19-2.17,1.22-1.18,1.98-0.92c0.67,0.22,0.96,1.01,0.23,1.51c-0.87,0.6-1.89,1.4-2.84,1.39
		c-2.12-0.02-4.24-0.44-6.34-0.81c-0.4-0.07-0.92-0.67-0.98-1.09c-0.05-0.37,0.37-1.01,0.75-1.19c1.74-0.84,3.58-1.46,5.3-2.34
		c3-1.54,5.87-0.57,8.75,0.27c1.56,0.46,2.12,1.43,1.62,2.93c-0.33,0.98-0.83,2.24-1.63,2.67c-2.26,1.2-4.66,2.65-7.1,2.86
		c-3.37,0.29-6.83-0.45-10.24-0.79c-0.52-0.05-1.03-0.3-1.51-0.55c-2.81-1.44-3.01-2.72-0.84-5.07
		C214.74,169.15,214.78,168.92,214.87,168.73L214.87,168.73z"/>
	<path class="st14" d="M281.7,169.46c1.12-1.74,2.76-0.86,4.22-0.78c0.16,0.01,0.51,0.84,0.4,0.97c-0.82,0.93-1.61,2.29-2.65,2.55
		c-1.72,0.44-3.64,0.32-5.44,0.1c-0.8-0.1-1.6-0.92-2.16-1.6c-0.13-0.16,0.65-1.22,1.17-1.7c1.88-1.76,3.8-3.33,6.51-3.91
		c2.49-0.54,4.71-0.05,6.92,0.76c2.01,0.74,2.28,2.05,0.97,3.78c-1.74,2.3-4.02,4.07-6.81,4.62c-2.92,0.58-5.95,0.67-8.94,0.73
		c-1.91,0.04-3.39-1.15-4.57-2.61c-0.14-0.18,0.01-0.58,0.03-0.89c0.27,0.03,0.64-0.05,0.81,0.1c5.11,4.45,10.46,2.56,15.67,0.41
		c1.57-0.65,3.58-2.03,3.09-4.05c-0.49-2.06-2.8-1.93-4.6-2.1c-3.52-0.34-5.74,2.01-8.14,3.97c-0.14,0.12,0.05,0.98,0.14,0.99
		c1.67,0.19,3.35,0.38,5.02,0.39c0.37,0,0.75-0.68,1.13-1.05c-0.52-0.26-1.01-0.6-1.55-0.76c-0.39-0.12-0.85-0.01-1.28,0
		L281.7,169.46z"/>
	<path class="st14" d="M271.34,137.24c2.94,0.55,5.88,1.09,8.82,1.66c0.15,0.03,0.4,0.36,0.37,0.43c-0.12,0.23-0.34,0.58-0.54,0.58
		c-2.15,0.09-4.31,0.07-6.46,0.18c-2,0.11-4.05,0.05-5.76,1.5c-0.84,0.71-1.72,0.24-2.04-0.68c-0.27-0.78-0.5-1.87-0.16-2.49
		c1.17-2.08,2.17-4.52,5.19-4.59c1.4-0.04,2.79-0.22,4.19-0.22c0.55,0,1.09,0.35,1.64,0.53c-0.37,0.36-0.67,0.86-1.11,1.05
		c-0.65,0.29-1.39,0.4-2.1,0.51c-0.74,0.12-1.54,0.02-2.22,0.27c-0.85,0.31-1.6,0.89-2.39,1.35c0.82,0.15,1.65,0.31,2.47,0.46
		C271.28,137.61,271.31,137.43,271.34,137.24z"/>
	<path class="st14" d="M290.73,286.65c-0.14-0.54-0.41-0.96-0.31-1.28c0.3-1.03,0.66-2.05,1.12-3.01c1.11-2.31,2.3-4.59,3.44-6.89
		c0.82-1.66,1.03-1.72,2.63-0.72c0.46,0.28,0.97,0.52,1.33,0.9c2.45,2.58,3.62,5.75-0.51,7.17c-1.69,0.58-3.16,1.77-4.77,2.61
		C292.83,285.87,291.91,286.16,290.73,286.65z M299.12,279.2c-0.35-0.53-0.61-1-0.94-1.41c-1.24-1.53-1.72-1.45-2.57,0.39
		c-0.36,0.78-0.78,1.54-1.09,2.34c-0.4,1.03-0.71,2.08-1.05,3.13c1.01-0.54,2.07-1.01,3.03-1.64c0.71-0.47,1.31-1.12,1.91-1.73
		C298.69,280,298.86,279.61,299.12,279.2z"/>
	<path class="st14" d="M273.31,293.41c-0.41-0.38-0.86-0.59-0.96-0.91c-0.3-1.02-0.55-2.08-0.69-3.14c-0.32-2.55-0.55-5.1-0.83-7.65
		c-0.2-1.84-0.07-2.01,1.82-2.03c0.54-0.01,1.1-0.09,1.61,0.03c3.46,0.84,6.16,2.88,3.45,6.3c-1.11,1.4-1.7,3.2-2.59,4.78
		C274.66,291.62,274.05,292.36,273.31,293.41z M276.34,282.61c-0.58-0.26-1.05-0.51-1.55-0.67c-1.87-0.62-2.23-0.29-1.95,1.72
		c0.12,0.85,0.17,1.72,0.35,2.56c0.22,1.08,0.54,2.13,0.81,3.2c0.56-1,1.2-1.97,1.66-3.02c0.34-0.78,0.5-1.65,0.67-2.49
		C276.41,283.51,276.34,283.09,276.34,282.61z"/>
	<path class="st14" d="M254.62,304.82c-0.4,0.39-0.64,0.83-0.96,0.9c-1.04,0.24-2.11,0.43-3.17,0.5c-2.56,0.17-5.13,0.25-7.69,0.39
		c-1.85,0.1-2.01-0.05-1.92-1.93c0.02-0.54-0.03-1.1,0.13-1.6c1.04-3.41,3.23-5.98,6.49-3.08c1.33,1.19,3.09,1.88,4.62,2.87
		C252.91,303.38,253.62,304.03,254.62,304.82z M244.02,301.18c-0.29,0.56-0.57,1.02-0.76,1.51c-0.73,1.83-0.42,2.21,1.6,2.05
		c0.86-0.07,1.72-0.07,2.57-0.2c1.09-0.16,2.16-0.41,3.24-0.62c-0.97-0.62-1.9-1.31-2.91-1.83c-0.76-0.39-1.62-0.59-2.45-0.82
		C244.92,301.16,244.49,301.2,244.02,301.18z"/>
	<path class="st14" d="M271.57,303.38c0.11-0.55,0.06-1.04,0.29-1.29c0.72-0.79,1.5-1.54,2.34-2.2c2.02-1.58,4.09-3.1,6.14-4.65
		c1.47-1.12,1.68-1.09,2.68,0.52c0.28,0.46,0.64,0.9,0.8,1.4c1.06,3.4,0.7,6.76-3.63,6.2c-1.77-0.23-3.62,0.19-5.43,0.23
		C273.8,303.61,272.85,303.47,271.57,303.38z M282.39,300.42c-0.08-0.63-0.1-1.16-0.22-1.68c-0.43-1.92-0.9-2.06-2.48-0.79
		c-0.67,0.54-1.38,1.03-2.01,1.61c-0.81,0.74-1.55,1.56-2.33,2.34c1.15-0.03,2.31,0.01,3.44-0.13c0.84-0.1,1.67-0.42,2.48-0.71
		C281.65,300.94,281.98,300.67,282.39,300.42z"/>
	<path class="st14" d="M303.75,302.07c-0.68,0.7-1.16,1.59-1.88,1.86c-2.99,1.11-6.05,2.06-9.1,3.01c-0.43,0.13-1.22,0.05-1.42-0.23
		c-0.23-0.32-0.06-1.01,0.09-1.48c0.13-0.39,0.46-0.73,0.76-1.03c2.2-2.19,4.38-4.4,6.62-6.54c1.38-1.32,1.99-1.24,2.98,0.42
		C302.5,299.23,303,300.5,303.75,302.07z M295.55,304.94c2.11-0.99,3.89-1.71,5.51-2.7c0.3-0.19,0.13-1.55-0.17-2.21
		c-0.45-1.01-1.23-0.57-1.81,0c-1.22,1.2-2.42,2.43-3.58,3.68C295.37,303.86,295.52,304.26,295.55,304.94z"/>
	<path class="st14" d="M254.45,298.74c0.96-0.14,1.89-0.56,2.62-0.34c3.06,0.93,6.06,2.03,9.06,3.13c0.43,0.16,1,0.7,0.99,1.04
		c-0.02,0.39-0.56,0.84-0.97,1.12c-0.33,0.23-0.8,0.3-1.22,0.36c-3.08,0.41-6.15,0.84-9.24,1.19c-1.89,0.21-2.33-0.22-2.11-2.14
		C253.72,301.76,254.09,300.44,254.45,298.74z M262.71,301.44c-2.28-0.49-4.13-1-6.02-1.2c-0.35-0.04-1.05,1.15-1.21,1.86
		c-0.25,1.08,0.63,1.2,1.44,1.09c1.7-0.22,3.39-0.46,5.08-0.76C262.19,302.4,262.32,301.99,262.71,301.44z"/>
	<path class="st14" d="M265.9,303.91c-0.33-0.92-0.93-1.74-0.85-2.5c0.3-3.18,0.78-6.34,1.26-9.5c0.07-0.45,0.49-1.12,0.83-1.18
		c0.39-0.06,0.93,0.38,1.29,0.73c0.29,0.28,0.46,0.73,0.6,1.13c1.02,2.93,2.05,5.86,3,8.81c0.59,1.81,0.25,2.33-1.68,2.5
		C269,304.02,267.64,303.91,265.9,303.91z M266.9,295.28c-0.03,2.33-0.16,4.25,0.03,6.14c0.03,0.35,1.34,0.8,2.07,0.82
		c1.1,0.03,1.05-0.85,0.78-1.63c-0.55-1.62-1.13-3.23-1.75-4.83C267.95,295.59,267.52,295.54,266.9,295.28z"/>
	<path class="st14" d="M195.8,159.16c-0.53-0.03-1.05-0.06-1.58-0.1c0.19-0.8,0.15-1.79,0.63-2.34c0.48-0.55,1.51-0.96,2.23-0.88
		c2.07,0.23,5.3,4.67,4.98,6.75c-0.08,0.5-0.64,1.12-1.12,1.32c-0.87,0.34-1.69,0.07-2.09-0.93c-0.39-0.99-0.7-2.05-1.25-2.94
		c-0.35-0.56-1.08-0.89-1.64-1.33C195.91,158.86,195.86,159.01,195.8,159.16z"/>
	<path class="st14" d="M251.27,144.91c-0.21-1.79-0.43-3.58-0.61-5.37c-0.09-0.85-0.17-1.71-0.11-2.55c0.02-0.33,0.4-0.84,0.68-0.9
		c0.3-0.06,0.83,0.25,1,0.55c0.31,0.53,0.59,1.18,0.6,1.78c0.04,3.83,0.02,7.66-0.06,11.49c-0.01,0.41-0.55,0.8-0.85,1.2
		c-0.22-0.36-0.59-0.69-0.64-1.07c-0.2-1.69-0.3-3.39-0.44-5.09C250.99,144.94,251.13,144.93,251.27,144.91z"/>
	<path class="st14" d="M230.97,410.81c1.49,0,2.99-0.07,4.47,0.04c0.55,0.04,1.06,0.5,1.59,0.77c-0.45,0.42-0.84,1.02-1.38,1.22
		c-0.75,0.28-1.61,0.28-2.43,0.37c-0.71,0.08-1.55-0.1-2.12,0.22c-2.09,1.18-3.39-0.36-4.88-1.25c-0.22-0.13-0.45-0.68-0.36-0.79
		c0.23-0.29,0.62-0.6,0.96-0.62c1.38-0.07,2.77-0.03,4.15-0.03C230.97,410.76,230.97,410.79,230.97,410.81z"/>
	<path class="st14" d="M268.37,531.39c-0.13,1.97-0.12,3.41-0.35,4.81c-0.29,1.73-1.81,2.2-3.03,0.94c-0.94-0.97-2.12-2-1.35-3.63
		c0.74-1.57,2.69-2.73,4.16-2.46C268.19,531.12,268.53,531.49,268.37,531.39z"/>
	<path class="st14" d="M205.86,189.71c-0.12,4.39-0.24,8.78-0.38,13.17c-0.01,0.35-0.2,0.69-0.31,1.03
		c-0.12-0.29-0.24-0.58-0.35-0.87c-0.1-0.3-0.26-0.61-0.26-0.92c-0.02-4.16-0.09-8.32,0.02-12.47c0.03-1.07,0.66-2.11,1.02-3.17
		c0.23,1.06,0.47,2.12,0.7,3.18C206.16,189.67,206.01,189.69,205.86,189.71z"/>
	<path class="st14" d="M254.84,148.71c0.02-0.19,0.03-0.51,0.11-0.82c0.04-0.15,0.23-0.36,0.34-0.35c0.18,0.01,0.44,0.14,0.51,0.28
		c0.69,1.64,1.42,3.28,1.96,4.97c0.21,0.66,0.08,1.5-0.1,2.2c-0.18,0.72-0.61,1.37-0.93,2.05c-0.37-0.63-0.94-1.22-1.06-1.9
		C255.31,153.06,255.12,150.95,254.84,148.71z"/>
	<path class="st14" d="M215.81,410.37c0.8,0.45,2.33,1.16,2.28,1.32c-0.45,1.31-1.64,0.96-2.68,0.82c-0.42-0.05-0.88-0.09-1.22-0.3
		c-0.37-0.23-0.61-0.65-0.91-0.98c0.36-0.17,0.7-0.4,1.08-0.48c0.41-0.08,0.84-0.02,1.27-0.02
		C215.68,410.6,215.75,410.49,215.81,410.37z"/>
	<path class="st14" d="M258.9,165.21c0,0.52,0.07,1.06-0.02,1.56c-0.07,0.39-0.33,0.75-0.5,1.12c-0.11-0.39-0.22-0.78-0.32-1.18
		c-0.46-1.93,0.3-4.05-0.98-5.86c-0.12-0.17,0.09-0.57,0.15-0.87c0.22,0.21,0.54,0.39,0.63,0.65c0.49,1.47,0.91,2.97,1.36,4.46
		C259.11,165.13,259,165.17,258.9,165.21z"/>
	<path class="st14" d="M281.72,56.85c-0.09,0.05-0.2,0.16-0.28,0.15c-0.39-0.05-0.78-0.13-1.16-0.23c-0.03-0.01-0.02-0.19-0.03-0.28
		c0.36,0.1,0.73,0.21,1.09,0.32c0.1,0.03,0.19,0.09,0.3,0.13C281.66,56.92,281.72,56.85,281.72,56.85z"/>
	<path class="st14" d="M128.68,534.59c0.16,0.02,0.33,0.03,0.49,0.05c-0.02-0.16-0.04-0.32-0.06-0.48c-0.19,0.15-0.38,0.3-0.57,0.45
		L128.68,534.59z"/>
	<path class="st14" d="M125.47,533.26c-0.03,0.07-0.06,0.2-0.09,0.2c-0.09,0-0.19-0.05-0.28-0.07c0.03-0.07,0.06-0.2,0.09-0.2
		C125.28,533.18,125.37,533.23,125.47,533.26z"/>
	<path class="st14" d="M281.64,169.39c-0.35,0.05-0.69,0.11-1.04,0.16c0-0.09,0-0.18,0-0.27c0.36,0.05,0.72,0.11,1.09,0.17
		C281.7,169.46,281.64,169.39,281.64,169.39z"/>
	<path class="st14" d="M214.87,168.73c0.47-0.23,0.93-0.46,1.4-0.68c0.01,0.01,0-0.04,0-0.04
		C216.02,168.69,215.74,169.28,214.87,168.73C214.87,168.73,214.87,168.73,214.87,168.73z"/>
	<path class="st14" d="M217.68,167.7c-0.23,1.14-0.78,0.87-1.4,0.32c0-0.01,0,0.04,0,0.03c0.49-0.11,0.99-0.2,1.49-0.3L217.68,167.7
		z"/>
	<path class="st14" d="M217.76,167.75c0.17-0.08,0.33-0.16,0.5-0.23c-0.19,0.07-0.37,0.13-0.57,0.19
		C217.68,167.7,217.76,167.75,217.76,167.75z"/>
	<polygon class="st14" points="223.13,166.18 223.14,166.32 222.94,166.26 	"/>
	<path class="st14" d="M123.35,532.12c0.04,0.01,0.09,0.03,0.13,0.04L123.35,532.12z"/>
	<path class="st14" d="M128.53,534.61c-0.01-0.05-0.02-0.1-0.03-0.15c0.06,0.04,0.13,0.07,0.19,0.12
		C128.68,534.59,128.53,534.61,128.53,534.61z"/>
	<path class="st14" d="M200.02,150.87c-0.03,0.07-0.06,0.14-0.09,0.2c0.05-0.08,0.09-0.16,0.15-0.24
		C200.1,150.83,200.02,150.87,200.02,150.87z"/>
	<path class="st14" d="M123.48,532.16c-0.06,0.03-0.12,0.05-0.18,0.08c0.02-0.04,0.04-0.08,0.06-0.12
		C123.35,532.12,123.48,532.16,123.48,532.16z"/>
	<path class="st14" d="M297,144.06c-0.05,0.1-0.19,0.35-0.32,0.6c-0.18-0.24-0.45-0.46-0.54-0.73c-0.96-2.93-1.93-5.86-2.81-8.82
		c-0.11-0.38,0.29-0.91,0.45-1.37c0.5,0.25,1.18,0.38,1.47,0.78c0.42,0.59,0.69,1.35,0.79,2.08
		C296.41,139.01,296.68,141.45,297,144.06z"/>
	<path class="st14" d="M305.2,151.28c-0.04,1.25-3.26,4.48-4.2,4.29c-0.32-0.06-0.84-0.88-0.74-1.07c0.75-1.39,1.56-2.76,2.53-3.99
		c0.22-0.28,1.15-0.12,1.71,0.03C304.82,150.62,305.04,151.1,305.2,151.28z"/>
	<path class="st14" d="M226.32,532.5c2.48-0.36,3.43,0.85,4.26,2.08c0.53,0.78-0.37,2.37-1.54,2.73c-0.91,0.28-1.91,0.45-2.23-0.97
		c-0.12-0.55-0.61-1.01-0.9-1.53c-0.29-0.51-0.9-1.29-0.74-1.52C225.54,532.78,226.29,532.53,226.32,532.5z"/>
	<path class="st14" d="M282.67,302.17c-3.5,0.42-7.02,0.7-10.54,0.99c-0.48,0.04-0.95,0.06-1.22-0.16c-1.29,0.16-2.68,0.29-4.09,0.4
		c-0.49,0.2-0.98,0.28-1.36,0.14c-0.02-0.01-0.03-0.03-0.05-0.04c-1.15,0.07-2.3,0.13-3.42,0.17c-0.74,0.53-1.71,0.75-2.9,0.82
		c-5.47,0.35-10.93,0.84-16.4,1.19c-1.13,0.07-2.28-0.01-2.62,1.28c-0.3,1.14-0.42,2.37,0.76,3.23c0.33,0.24,0.67,0.49,1,0.74
		c0.9,1.77,1.51,3.74,0.25,5.41c-0.84,1.1-0.79,2.09-0.82,3.24c-0.16,5.43,2.06,10.44,2.8,15.71c0.39,2.79,1.62,5.49,0.83,8.4
		c0.01,0.01-0.06-0.07-0.05-0.06c0.36,0.5,0.89,0.95,1.02,1.5c0.74,3.02,1.57,6.04,2.02,9.11c0.67,4.66,1.14,9.35,1.54,14.04
		c0.65,7.59,0.77,7.27,7.81,9.77c6.16,2.19,11.59-0.35,17.3-1.3c0.29-0.05,0.67-0.28,0.78-0.52c0.56-1.24,1.63-1.09,2.71-1.24
		c3.24-0.47,4.02-1.58,4-4.89c-0.03-4.3-0.09-8.61,0.08-12.91c0.22-5.68,0.73-11.35,0.97-17.03c0.23-5.48,0.19-10.97,0.43-16.45
		c0.29-6.54,0.72-13.08,1.16-19.62C284.75,302.51,284.31,301.97,282.67,302.17z M243.92,315.66c0-0.64,0.01-1.29,0.02-1.93
		c0.01-1.07,0.6-1.54,1.63-1.53c1.82,0,3.65,0,5.47,0c0.02,0.12,0.03,0.25,0.05,0.37c3.6-0.47,7.2-0.92,10.8-1.43
		c0.03,0,0.06-0.01,0.09-0.01c6.29-1.15,13.47-2.22,17.21-1.95c0.3-0.04,0.6-0.08,0.9-0.12c1.83-0.22,2.27,0.28,2.07,2.17
		c-0.1,0.97-0.57,1.06-1.24,0.54c-2.35-1.82-4.67-1.65-7.18-0.22c-0.28,0.16-0.59,0.25-0.91,0.33c-2.72,1.66-6.9,4.06-9.06,4.49
		c-1.11,0.22-1.97,0.29-2.77,0.23c-0.68,0.37-1.54,0.34-2.43-0.04c-4.42-1.9-8.89-2.95-13.36-0.13
		C244.14,317.13,243.92,316.63,243.92,315.66z M252.92,311.34c0.37-0.07,0.74-0.19,1.12-0.21c0.39-0.01,0.79,0.08,1.19,0.12
		c-0.36,0.13-0.72,0.25-1.04,0.36C253.71,311.51,253.31,311.43,252.92,311.34z M258.64,310.61c0.13,0.01,0.27,0.03,0.4,0.04
		c-0.07,0.03-0.14,0.06-0.21,0.09C258.77,310.7,258.71,310.66,258.64,310.61z M264.63,377.42l-0.25-0.12l0.27-0.08L264.63,377.42z
		 M281.84,327.4c0.04,5.05-0.13,10.1-0.3,15.15c-0.16,4.73-0.42,9.45-0.65,14.18c-0.06,1.18-0.91,2.08-1.23,3.06
		c-0.82,2.52-1.06,5.24-1.46,7.88c-0.11,0.73,0.03,1.5,0.1,2.25c0.13,1.6-0.53,2.35-2.19,2.46c-0.88,0.06-1.71,0.69-2.6,0.92
		c-1.53,0.39-3.09,0.68-4.64,1c-0.03-0.15-0.05-0.3-0.08-0.45c-2,0.26-4.09,0.27-5.99,0.85c-2.92,0.89-5.51-0.27-8.21-0.8
		c-0.35-0.07-0.75-0.64-0.85-1.04c-0.56-2.29-1.04-4.6-1.55-6.9c-1.2-5.42-2.28-10.86-3.63-16.24c-2.08-8.23-3.37-16.58-4.23-25.01
		c-0.16-1.6-0.3-3.01,1.57-3.68c0.17-0.06,0.31-0.3,0.4-0.49c1.19-2.72,3.06-3.53,5.98-2.62c0.92,0.29,1.9-0.25,2.19,1.27
		c0.22,1.19,1.36,1.35,2.35,1.03c3.68-1.19,7.39-2.31,10.97-3.76c2.25-0.92,4.24-2.46,6.41-3.58c1.15-0.59,2.34-0.8,3.65,0.04
		c2.41,1.53,2.45,1.57,2.23,4.5c-0.11,1.47,0.15,2.97,0.24,4.46C283.41,322.98,281.82,325.5,281.84,327.4z M281.86,306.94
		c-2.44,0.55-4.89,1.16-7.4,1.25c-3.71,0.51-9.62,0.67-13.96,0.72c-0.18,0.03-0.37,0.04-0.56,0.06c-5.21,0.39-10.42,0.88-15.62,1.37
		c-0.81,0.08-1.61,0.35-2.41,0.55c1.24-3.21,4.11-3.76,7.02-4.2c1.06-0.16,2.14-0.16,3.2-0.28c2.49-0.26,4.99-0.54,7.48-0.8
		c0.22-0.08,0.44-0.17,0.68-0.25c3.62-1.24,12.23-1.31,15.46-1.29c1.1-0.18,2.2-0.39,3.31-0.57c0.01,0.07,0.03,0.13,0.04,0.2
		c0.75-0.06,1.5-0.12,2.25-0.17c0.93-0.05,1.52,0.41,1.37,1.33C282.6,305.61,282.3,306.85,281.86,306.94z"/>
	<path class="st39" d="M137.28,594.41c12.45-0.89,24.94-2.81,37.35-2.38c12.35,0.43,24.59,4.21,36.95,4.72
		c17.7,0.72,35.46-0.01,53.19-0.51c6.66-0.18,13.29-2.03,19.93-2.06c19.67-0.08,39.35,0.29,59.01,0.69
		c4.66,0.09,9.3,0.95,13.95,1.45l0.05-0.16c-7.4,1.17-14.79,3.18-22.21,3.34c-17.87,0.38-35.75-0.11-53.63-0.22
		c-19.13-0.12-38.45-1.98-57.32,0.16c-23.06,2.61-44.7-4.66-67.1-5.69c-4.83-0.22-9.72,1.32-14.61,1.68
		c-1.8,0.14-3.68-0.76-5.53-1.2C137.3,594.22,137.28,594.41,137.28,594.41 M299.86,596.79l-0.11-0.4l-0.35,0.34L299.86,596.79z"/>
</g>
</svg>
