<?xml version="1.0" encoding="utf-8"?>
<!-- Generator: Adobe Illustrator 24.0.1, SVG Export Plug-In . SVG Version: 6.00 Build 0)  -->
<svg version="1.1" id="Camada_1" xmlns="http://www.w3.org/2000/svg" xmlns:xlink="http://www.w3.org/1999/xlink" x="0px" y="0px"
	 viewBox="0 0 1920 1920" style="enable-background:new 0 0 1920 1920;" xml:space="preserve">
<style type="text/css">
	.st0{fill:#691460;}
	.st1{fill:#00A580;}
</style>
<g>
	<path class="st0" d="M1680.01,658.98l188.59,188.59c30.93,30.95,46.4,71.73,46.4,112.45c0,40.72-15.48,81.44-46.4,112.39
		l-796.21,796.16c-30.92,30.95-71.67,46.43-112.39,46.43c-40.69,0-81.49-15.48-112.41-46.43L51.41,1072.41
		C20.48,1041.46,5,1000.74,5,960.02c0-40.72,15.48-81.5,46.41-112.45L343.19,555.8c2.66-2.65,6-3.86,9.69-3.5
		c6.69,0.61,13.39,1.47,20.01,2.46c4.09,0.67,7.31,3.07,9.09,6.82c1.75,3.74,1.53,7.73-0.56,11.3
		c-16.96,28.62-32.24,58.89-45.88,89.29c-0.67,1.54-1.49,2.7-2.72,3.81L92.74,892.84c-19.55,18.42-29.3,42.8-29.3,67.18
		c0,24.32,9.75,48.71,29.3,67.13l796.14,752.19c19.55,18.42,45.34,27.63,71.12,27.63c25.78,0,51.59-9.21,71.08-27.63l796.19-752.19
		c19.55-18.41,29.28-42.8,29.28-67.13c0-24.38-9.73-48.76-29.28-67.18l-235.41-222.38c-3.72-3.5-4.83-8.66-2.93-13.39
		c1.91-4.67,6.26-7.55,11.3-7.55c24.25,0.24,48.71,2.51,72.97,6.02C1675.89,655.97,1678.07,657.07,1680.01,658.98 M1072.39,51.44
		l351.7,351.7c4.49,4.48,4.78,11.55,0.69,16.4c-7.93,9.27-15.23,19.34-21.91,30.16c-1.75,2.88-4.38,4.73-7.68,5.46
		c-3.35,0.74-6.47,0.12-9.3-1.73c-14.31-9.51-29.65-16.95-45.74-22.29c-1.79-0.62-3.15-1.42-4.49-2.71l-304.59-287.75
		c-19.49-18.43-45.3-27.65-71.08-27.65c-25.78,0-51.57,9.21-71.12,27.65L723.43,297.03c-2.62,2.43-5.92,3.6-9.56,3.24
		c-10.02-1.11-20.09-1.66-30.17-1.66c-20.01,0-39.64,2.32-58.53,6.93c-5.34,1.35-10.7-0.98-13.42-5.77
		c-2.69-4.78-1.92-10.6,2.01-14.51L847.59,51.44C878.51,20.48,919.3,5,960,5C1000.71,5,1041.47,20.48,1072.39,51.44"/>
	<path class="st0" d="M1480.43,937.55c-34.65,15.84-101.27,45.38-178.24,74.67c-147.75,56.26-266.09,85.92-342.12,85.92
		c-76.11,0-194.41-29.67-342.21-85.92c-78.28-29.85-145.99-59.94-180.06-75.54c-1.31-0.61-26.4-10.56-26.9-11.79
		c-15.65-5.47-27.78,2.46-5.42,25.79c0.4-1.78,42.63,38.51,48.08,43.97c49.28,49.74,123.77,124.97,210.67,187.38
		c48.02,34.5,94.92,61.4,139.41,80.07c52.69,22.05,103.6,33.22,151.45,33.22c1.65,0,3.25,0,4.9,0h0.07c1.59,0,3.24,0,4.84,0
		c47.84,0,98.82-11.17,151.52-33.22c44.46-18.67,91.38-45.57,139.36-80.07c86.94-62.41,161.42-137.64,210.68-187.38
		C1475.25,985.82,1552.57,904.7,1480.43,937.55"/>
	<path class="st1" d="M422.83,903.47c2.26-57.06,11.66-115.15,28.12-172.88c8.97-31.32,27.48-75.84,44.3-113.67
		c1.02-2.34,3.23-3.68,5.68-3.5c2.5,0.12,4.59,1.66,5.37,4.06c10.24,31.68,18.66,73.51,24.74,124.42
		c8.41,70.86,9.46,134.43,9.46,135.04c0,3.51,2.04,6.69,5.16,8.29c1.35,0.68,2.83,1.04,4.3,1.04c1.91,0,3.82-0.55,5.4-1.72
		c35.12-24.69,59.7-54.9,73.09-89.77c10.65-27.96,14.13-58.77,10.31-91.7c-2.63-22.97-8.47-43.6-14.43-60
		c-0.89-2.4-0.13-5.03,1.87-6.62c2-1.61,4.69-1.73,6.88-0.31c74.72,48.32,143.13,160.22,143.92,161.57c2.04,3.32,5.97,5.1,9.78,4.37
		c3.86-0.68,6.9-3.69,7.61-7.56c14.93-79.96,3.98-147.21-32.49-200.02c-28.73-41.64-68.23-65.91-96.31-78.98
		c-12.4-5.72-23.63-9.84-32.68-12.71c-1.93-0.62-3.35-2.1-3.89-4c-0.55-2.03-0.13-3.93,1.2-5.47c31.9-37.45,82.14-60.24,121.18-73.2
		c48.99-16.27,91.58-21.06,92.87-21.24h0.05c4.17-0.43,7.49-3.56,8.24-7.61c0.8-4.12-1.22-8.29-4.95-10.2
		c-59.73-30.64-114.88-46.18-163.89-46.18c-63.84,0-105.87,26.53-129.9,48.82c-7.69,7.14-14.09,14.25-19.27,20.83
		c-1.39,1.72-3.44,2.51-5.58,2.15c-2.17-0.36-3.87-1.78-4.61-3.81C479.58,278.29,390.43,251,320.9,251
		c-72.04,0-132.49,28.53-135.04,29.75c-3.7,1.79-5.87,5.78-5.25,9.87c0.56,4.11,3.75,7.32,7.84,8
		c78.6,12.77,148.31,56.99,192.95,91.86c1.24,0.98,2.45,1.9,3.64,2.89c2.21,1.77,2.9,4.79,1.61,7.31c-1.29,2.51-4.13,3.8-6.87,3.01
		c-18.01-4.98-35.75-7.49-53.26-7.49c-51.02,0-100.22,21.8-142.36,62.87c-31.26,30.53-47.6,60.81-48.5,62.52
		c-0.08,0-0.08,0.07-0.08,0.07c-0.69,1.35-1.03,2.82-1.03,4.36c-0.06,2.03,0.6,4.11,1.93,5.77c2.24,2.95,5.93,4.31,9.61,3.5
		c61.48-13.94,117.67-21.01,166.97-21.01c61.52,0,101.83,10.63,127.44,22.06c1.71,0.79,2.83,2.15,3.31,3.86
		c0.46,1.84,0.15,3.57-0.91,5.04c-24.64,33.72-61.51,94.21-99.67,192.9c-50.55,130.56-65.69,264.26-43.92,386.72
		c3.93,22.29,9.09,44.22,15.2,65.65c0.28,1.11,0.84,1.9,1.64,2.69l216.97,205c2.07,1.97,5.28,2.15,7.6,0.43
		c2.34-1.78,3.06-4.85,1.73-7.43c-55.18-108.33-102.03-236.38-115.69-373.7C423.04,979.61,421.35,941.53,422.83,903.47"/>
	<path class="st1" d="M1496.38,1053.56c-12.22,121.29-54.04,234.28-103.02,329.48c-1.17,2.2-0.54,4.97,1.51,6.44
		c2.02,1.53,4.78,1.35,6.59-0.36l190.78-180.26c0.75-0.6,1.17-1.34,1.42-2.26c5.76-19.72,10.49-39.86,14.12-60.37
		c19-106.86,5.78-223.55-38.33-337.53c-33.31-86.16-65.51-138.98-86.97-168.45c-0.95-1.3-1.24-2.77-0.85-4.36
		c0.43-1.53,1.42-2.7,2.89-3.37c22.35-9.96,57.55-19.28,111.28-19.28c43.05,0,92.09,6.19,145.76,18.36c3.17,0.68,6.42-0.49,8.4-3.07
		c1.13-1.47,1.71-3.26,1.71-5.04c0-1.28-0.34-2.57-0.95-3.81c0,0,0-0.05-0.04-0.05c-0.83-1.54-15.11-27.94-42.38-54.54
		c-36.78-35.93-79.71-54.91-124.26-54.91c-15.28,0-30.78,2.22-46.51,6.51c-2.42,0.68-4.89-0.43-5.98-2.63
		c-1.11-2.22-0.55-4.86,1.41-6.39c1.05-0.8,2.05-1.65,3.16-2.46c38.97-30.45,99.83-69.09,168.5-80.26c3.48-0.56,6.31-3.38,6.8-7
		c0.5-3.56-1.36-7-4.6-8.6c-2.2-1.04-55.03-25.98-117.92-25.98c-60.66,0-138.48,23.83-177.6,132.59c-0.61,1.85-2.08,3.08-3.99,3.38
		c-1.91,0.3-3.67-0.36-4.88-1.91c-4.51-5.71-10.08-11.98-16.82-18.17c-20.97-19.47-57.66-42.62-113.4-42.62
		c-42.77,0-90.93,13.57-143.03,40.35c-3.26,1.66-5.03,5.28-4.37,8.9c0.69,3.49,3.61,6.19,7.19,6.62c0,0,0.06,0,0.06,0.07
		c1.16,0.06,38.33,4.24,81.06,18.48c34.09,11.3,78,31.2,105.78,63.94c1.2,1.29,1.58,3,1.09,4.73c-0.49,1.72-1.73,2.95-3.39,3.5
		c-7.92,2.52-17.75,6.08-28.56,11.11c-24.5,11.37-58.94,32.56-84.06,68.91c-31.86,46.11-41.41,104.89-28.38,174.66
		c0.63,3.37,3.27,5.95,6.64,6.56c3.38,0.62,6.76-0.86,8.54-3.8c0.71-1.17,60.44-98.82,125.64-141.07c1.85-1.23,4.26-1.11,6.04,0.31
		c1.75,1.43,2.39,3.69,1.61,5.78c-5.2,14.31-10.27,32.36-12.61,52.38c-3.32,28.75-0.29,55.64,9.04,80.03
		c11.66,30.46,33.08,56.86,63.78,78.35c1.41,1.06,3.03,1.55,4.76,1.55c1.29,0,2.57-0.32,3.74-0.93c2.71-1.35,4.47-4.18,4.52-7.24
		c0-0.56,0.82-56.02,8.26-117.86c5.28-44.46,12.59-81,21.6-108.64c0.64-2.08,2.42-3.44,4.63-3.56c2.17-0.13,4.11,1.04,4.96,3.07
		c14.69,32.98,30.84,71.86,38.7,99.25c12.25,42.99,20.05,86.28,23.27,128.97C1501.82,971.81,1500.5,1012.84,1496.38,1053.56"/>
</g>
</svg>
